SplineFontDB: 3.2
FontName: UnicodiaDaarage
FullName: UnicodiaDaarage
FamilyName: UnicodiaDaarage
Weight: Regular
Copyright: 
Version: 2.9.3
ItalicAngle: 0
UnderlinePosition: -125
UnderlineWidth: 50
Ascent: 800
Descent: 350
InvalidEm: 0
sfntRevision: 0x00010000
LayerCount: 2
Layer: 0 0 "+BBcEMAQ0BD0EOAQ5 +BD8EOwQwBD0A" 1
Layer: 1 0 "+BB8ENQRABDUENAQ9BDgEOQAA +BD8EOwQwBD0A" 0
XUID: [1021 59 1751208496 15733]
StyleMap: 0x0040
FSType: 4
OS2Version: 4
OS2_WeightWidthSlopeOnly: 0
OS2_UseTypoMetrics: 1
CreationTime: 1604307526
ModificationTime: 1733962396
PfmFamily: 81
TTFWeight: 400
TTFWidth: 5
LineGap: 100
VLineGap: 0
Panose: 0 0 0 0 0 0 0 0 0 0
OS2TypoAscent: 750
OS2TypoAOffset: 0
OS2TypoDescent: -550
OS2TypoDOffset: 0
OS2TypoLinegap: 100
OS2WinAscent: 750
OS2WinAOffset: 0
OS2WinDescent: 350
OS2WinDOffset: 0
HheadAscent: 750
HheadAOffset: 0
HheadDescent: -550
HheadDOffset: 0
OS2SubXSize: 650
OS2SubYSize: 600
OS2SubXOff: 0
OS2SubYOff: 75
OS2SupXSize: 650
OS2SupYSize: 600
OS2SupXOff: 0
OS2SupYOff: 350
OS2StrikeYSize: 50
OS2StrikeYPos: 300
OS2CapHeight: 700
OS2XHeight: 500
OS2Vendor: '    '
OS2CodePages: 00000001.00000000
OS2UnicodeRanges: 00000001.40000000.00000000.00000000
Lookup: 4 0 0 "Tutg my ligs" { "Tutg my ligs-1"  } ['ccmp' ('DFLT' <'dflt' > 'latn' <'dflt' > 'tutg' <'dflt' > ) ]
Lookup: 4 0 0 "Subj ligs" { "Subj ligs-1"  } ['ccmp' ('DFLT' <'dflt' > 'latn' <'dflt' > 'tutg' <'dflt' > ) ]
Lookup: 5 8 0 "Oo Au" { "Ee Oo Au 3cons"  "Ai 3cons"  "Ee Oo Au 2cons"  "Ai 2cons"  "Oo Au 1cons"  } ['rclt' ('DFLT' <'dflt' > 'latn' <'dflt' > ) ]
Lookup: 4 8 0 "Tutg workar" { "Tutg workar-1"  } ['ccmp' ('DFLT' <'dflt' > 'latn' <'dflt' > ) ]
Lookup: 4 0 1 "Orig CCMP" { "Orig CCMP-1"  } ['ccmp' ('DFLT' <'dflt' > 'latn' <'dflt' > 'tutg' <'dflt' > ) ]
Lookup: 4 0 0 "Subjoin" { "Subjoin-1"  } ['ccmp' ('DFLT' <'dflt' > 'latn' <'dflt' > 'tutg' <'dflt' > ) ]
Lookup: 4 0 0 "Subj vowel" { "Subj vowel-1"  } ['ccmp' ('DFLT' <'dflt' > 'latn' <'dflt' > 'tutg' <'dflt' > ) ]

StartChar: .notdef
Encoding: 100 -1 0
Width: 552
VWidth: 1000
GlyphClass: 1
Flags: W
HStem: 0 51<145 422> 532 51<145 422>
VStem: 94 51<51 532> 422 51<51 532>
LayerCount: 2
Fore
SplineSet
94 0 m 1
 94 583 l 1
 473 583 l 1
 473 0 l 1
 94 0 l 1
145 51 m 1
 422 51 l 1
 422 532 l 1
 145 532 l 1
 145 51 l 1
EndSplineSet
EndChar

StartChar: Uml.Vir
Encoding: 88 70606 4
Width: 0
VWidth: 1000
GlyphClass: 2
Flags: HMW
HStem: 521 86<-253.435 -173.71>
LayerCount: 2
Fore
SplineSet
-359 690 m 0
 -338 690 -322 648 -261 607 c 1
 -260 607 l 1
 -250 604 -240 602 -229 602 c 0
 -212 602 -188 606 -173 616 c 0
 -153 629 -127 695 -109 695 c 0
 -88 695 -56 647 -56 627 c 0
 -56 619 -69 603 -74 596 c 0
 -109 541 -116 521 -187 521 c 0
 -205 521 -224 525 -240 534 c 0
 -275 553 -370 637 -370 678 c 0
 -370 686 -367 690 -359 690 c 0
EndSplineSet
EndChar

StartChar: Tutg.Bh
Encoding: 57 70569 5
Width: 1087
VWidth: 1000
GlyphClass: 2
Flags: W
HStem: 2 79<438 683> 420 80<208.892 394.047 705.298 885.001>
VStem: 30 64<143.045 315.211> 437 63<216.689 383.766> 587 63<204.879 364.829> 993 64<150.83 330.092>
AnchorPoint: "Rakar" 968 72 basechar 0
AnchorPoint: "VocR" 1017 54 basechar 0
LayerCount: 2
Fore
SplineSet
152 0 m 0
 121 0 30 144 30 264 c 0
 30 434 143 500 300 500 c 0
 446 500 500 355 500 283 c 0
 500 216 479 134 438 81 c 1
 683 81 l 1
 623 152 587 246 587 339 c 0
 587 437 646 499 745 499 c 0
 788 499 832 495 873 480 c 0
 991 438 1057 327 1057 206 c 0
 1057 140 1033 77 999 21 c 0
 994 13 988 -1 977 -1 c 0
 956 -1 924 47 924 67 c 0
 924 70 925 74 926 76 c 0
 930 83 935 88 939 94 c 0
 969 139 993 210 993 263 c 0
 993 294 991 327 974 355 c 0
 944 406 841 419 787 419 c 0
 705 419 650 364 650 282 c 0
 650 221 669 146 715 104 c 0
 731 89 752 83 768 69 c 0
 782 57 800 31 800 12 c 0
 800 4 797 0 789 0 c 2
 670 -1 l 2
 641 -1 341 0 335 2 c 0
 314 11 287 45 287 69 c 0
 287 73 288 78 291 80 c 0
 300 86 311 90 320 96 c 0
 395 145 437 253 437 340 c 0
 437 353 433 381 426 392 c 0
 412 414 366 420 342 420 c 0
 203 420 94 359 94 207 c 0
 94 166 108 121 126 84 c 0
 137 63 163 36 163 12 c 0
 163 4 160 0 152 0 c 0
EndSplineSet
Substitution2: "Link cons+-Ee-1" Wa.BhEe
Substitution2: "Link cons+-Ai-1" Wa.BhAi
EndChar

StartChar: Tutg.Ch
Encoding: 40 70552 6
Width: 942
VWidth: 1000
GlyphClass: 2
Flags: W
HStem: -4 81<141.123 216.156 446.788 484.649 716.118 788.332> 169 81<141.052 248.903 698.155 810.667> 414 81<200.864 345.119 602.191 750.157>
VStem: 249 64<112.635 166.778> 382 63<78.0176 390.819> 495 64<83.5134 367.864> 629 63<94.3255 199> 848 64<170.128 312.299>
AnchorPoint: "VocR" 848 28 basechar 0
LayerCount: 2
Fore
SplineSet
205 -4 m 0
 129 -4 30 117 30 248 c 0
 30 374 113 495 248 495 c 0
 345 495 414 434 439 343 c 0
 448 310 450 275 450 240 c 0
 450 196 445 152 445 108 c 0
 445 97 446 88 447 77 c 1
 448 77 l 2
 492 77 495 133 495 165 c 0
 495 209 491 253 491 297 c 0
 491 413 520 496 652 496 c 0
 802 496 912 331 912 193 c 0
 912 80 845 -3 778 -3 c 0
 704 -3 629 106 629 175 c 0
 629 223 657 251 705 251 c 0
 749 251 806 230 845 208 c 1
 847 222 848 236 848 249 c 0
 848 348 797 416 694 416 c 0
 579 416 555 339 555 240 c 0
 555 196 559 153 559 109 c 0
 559 62 552 -4 491 -4 c 0
 443 -4 402 53 390 94 c 0
 383 117 382 141 382 165 c 0
 382 209 386 252 386 296 c 0
 386 330 386 361 373 393 c 1
 369 397 349 414 291 414 c 0
 185 414 111 325 97 227 c 1
 131 241 159 250 196 250 c 0
 260 250 313 178 313 118 c 0
 313 61 266 -4 205 -4 c 0
748 170 m 0
 716 170 692 152 692 119 c 0
 692 91 710 78 736 78 c 0
 776 78 808 118 826 152 c 1
 801 163 775 170 748 170 c 0
237 169 m 0
 176 169 123 131 108 131 c 0
 106 131 104 131 102 132 c 1
 111 102 129 77 163 77 c 0
 210 77 240 126 249 167 c 1
 249 168 l 1
 245 169 241 169 237 169 c 0
EndSplineSet
Substitution2: "Link cons+-Ee-1" Wa.ChEe
Substitution2: "Link cons+-Ai-1" Wa.ChAi
EndChar

StartChar: Tutg.Dh
Encoding: 52 70564 7
Width: 794
VWidth: 1000
GlyphClass: 2
Flags: W
HStem: 0 81<166.139 279.161 505.149 617.299>
VStem: 30 63<153.087 300.174> 363 61<186.125 272.358> 701 63<168.618 314.163>
AnchorPoint: "VocR" 698 45 basechar 0
AnchorPoint: "U" 594 50 basechar 0
LayerCount: 2
Fore
SplineSet
581 500 m 0
 596 500 764 369 764 202 c 0
 764 100 690 0 582 0 c 0
 505 0 440 75 408 138 c 1
 382 69 334 0 253 0 c 0
 130 0 30 145 30 259 c 0
 30 347 76 418 138 476 c 0
 145 482 161 500 171 500 c 0
 192 500 224 452 224 432 c 0
 224 430 223 425 222 423 c 0
 214 412 187 392 175 380 c 0
 129 333 93 269 93 202 c 0
 93 129 136 81 210 81 c 0
 301 81 349 189 363 265 c 0
 365 274 364 286 376 286 c 0
 393 286 418 251 424 236 c 0
 428 225 430 214 432 203 c 0
 445 143 470 81 541 81 c 0
 632 81 701 173 701 259 c 0
 701 397 570 423 570 488 c 0
 570 496 573 500 581 500 c 0
EndSplineSet
Substitution2: "Link cons+-Ee-1" Wa.DhEe
Substitution2: "Link cons+-Ai-1" Wa.DhAi
EndChar

StartChar: E
Encoding: 13 69 8
Width: 316
VWidth: 1000
GlyphClass: 2
Flags: W
HStem: 0 81<82.1284 175.502> 250 81<144.062 231> 418 81<144.886 220.145>
VStem: 17 79<84.44 180.33> 69 63<338.393 436> 231 68<151.498 250 336 406.92>
LayerCount: 2
Fore
SplineSet
17 135 m 0xf4
 17 147 27 191 36 198 c 0
 38 199 41 199 43 199 c 0
 64 199 96 151 96 131 c 0xf4
 96 127 83 93 81 84 c 1
 88 82 96 81 103 81 c 0
 200 81 220 170 231 250 c 1
 161 251 112 285 84 349 c 0
 76 368 69 389 69 409 c 0xec
 69 463 100 499 155 499 c 0
 176 499 203 486 220 474 c 0
 295 419 299 349 299 263 c 0
 299 197 285 76 234 30 c 0
 210 8 177 0 145 0 c 0
 78 0 17 69 17 135 c 0xf4
197 418 m 0
 164 418 132 392 132 358 c 0xec
 132 352 133 347 134 342 c 0
 146 334 179 331 194 331 c 0
 205 331 216 331 227 334 c 0
 230 335 233 336 236 336 c 1
 236 360 236 385 229 408 c 1
 220 414 208 418 197 418 c 0
EndSplineSet
EndChar

StartChar: F
Encoding: 14 70 9
Width: 504
VWidth: 1000
GlyphClass: 2
Flags: W
HStem: 2 81<59.1106 295.09> 249 81<336.497 412.959> 419 81<347.5 404.65>
LayerCount: 2
Fore
SplineSet
64 20 m 0
 44 30 17 64 17 87 c 0
 17 95 20 99 28 99 c 0
 36 99 49 93 58 92 c 0
 92 86 129 83 164 83 c 0
 284 83 382 131 413 249 c 1
 410 249 406 249 404 249 c 0
 340 249 271 315 271 379 c 0
 271 412 291 470 318 490 c 0
 329 498 341 500 354 500 c 0
 370 500 392 486 404 476 c 0
 465 424 487 344 487 266 c 0
 487 248 485 230 482 212 c 0
 457 62 349 2 205 2 c 0
 175 2 88 8 64 20 c 0
336 334 m 1
 345 331 354 330 363 330 c 0
 377 330 392 332 405 337 c 0
 411 339 417 343 424 344 c 1
 422 374 416 419 395 419 c 0
 358 419 342 363 336 334 c 1
EndSplineSet
EndChar

StartChar: Tutg.Gh
Encoding: 37 70549 10
Width: 1088
VWidth: 1000
GlyphClass: 2
Flags: W
HStem: 0 81<355.197 554.767 693.761 889.592> 417 81<148.301 242.529 556.949 646.208 875.611 949.156>
VStem: 30 63<129.188 346.396> 247 63<107.159 310.243> 273 63<223.199 406.537> 479 63<260.236 404.347> 688 64<219.88 381.151> 994 64<186.525 355.953>
AnchorPoint: "VocR" 944 30 basechar 0
AnchorPoint: "U" 830 45 basechar 0
LayerCount: 2
Fore
SplineSet
141 0 m 0xef
 113 0 30 113 30 287 c 0
 30 367 63 498 163 498 c 0
 218 498 336 440 336 330 c 0xef
 336 267 310 208 310 145 c 0
 310 136 311 117 315 109 c 0
 338 86 420 80 451 80 c 0
 499 80 543 95 580 121 c 1
 518 199 479 304 479 391 c 0
 479 446 500 500 563 500 c 0
 643 500 752 412 752 270 c 0
 752 203 729 141 690 93 c 1
 718 84 749 81 785 81 c 0
 911 81 994 167 994 292 c 0
 994 323 986 378 965 402 c 0
 953 415 933 420 916 420 c 0
 911 420 905 419 901 421 c 0
 880 431 853 464 853 488 c 0
 853 500 860 501 870 501 c 0
 988 501 1058 340 1058 236 c 0
 1058 95 970 0 827 0 c 0
 759 0 703 11 648 52 c 1
 606 19 553 -1 493 -1 c 0
 406 -1 329 16 278 94 c 0
 257 127 247 163 247 202 c 0xf7
 247 265 273 323 273 386 c 0
 273 389 272 392 272 395 c 0
 252 408 229 417 205 417 c 0
 122 417 93 295 93 230 c 0
 93 77 152 46 152 12 c 0
 152 4 149 0 141 0 c 0xef
610 146 m 1
 658 192 688 257 688 327 c 0
 688 342 686 383 674 394 c 0
 660 408 624 419 604 419 c 0
 558 419 542 373 542 334 c 0
 542 270 567 194 610 146 c 1
EndSplineSet
Substitution2: "Link cons+-Ee-1" Wa.GhEe
Substitution2: "Link cons+-Ai-1" Wa.GhAi
EndChar

StartChar: Tutg.Uml.Vis
Encoding: 87 70605 11
Width: 280
VWidth: 1000
GlyphClass: 2
Flags: W
HStem: 1 79<94.9189 172.316> 148 79<106.034 186.446> 256 79<89.9189 167.316> 403 79<101.034 181.446>
VStem: 30 62<80.0613 133.125 335.061 391.599> 187 63<94.1641 147.929 354.342 402.929>
LayerCount: 2
Fore
SplineSet
30 143 m 0
 30 200 73 227 126 227 c 0
 191 227 250 154 250 92 c 0
 250 37 215 1 159 1 c 0
 95 1 30 82 30 143 c 0
25 398 m 0
 25 455 68 482 121 482 c 0
 186 482 245 409 245 347 c 0
 245 292 210 256 154 256 c 0
 90 256 25 337 25 398 c 0
167 148 m 0
 132 148 92 128 92 89 c 0
 92 88 93 86 93 85 c 0
 101 81 110 80 119 80 c 0
 156 80 186 107 187 145 c 1
 181 147 173 148 167 148 c 0
87 344 m 0
 87 343 88 341 88 340 c 0
 96 336 105 335 114 335 c 0
 151 335 181 362 182 400 c 1
 176 402 168 403 162 403 c 0
 127 403 87 383 87 344 c 0
EndSplineSet
EndChar

StartChar: Uml.Ii
Encoding: 73 70586 12
Width: 123
VWidth: 1000
GlyphClass: 2
Flags: W
HStem: 522 81<-412.368 -306.785> 724 20G<-322.5 -218.5>
VStem: 20 63<243.242 514.661>
LayerCount: 2
Fore
SplineSet
-329 522 m 0
 -426 522 -483 608 -483 653 c 0
 -483 728 -350 744 -295 744 c 0
 -142 744 -8 658 56 519 c 0
 66 497 83 456 83 432 c 0
 83 389 82 344 82 301 c 0
 82 281 82 260 82 240 c 0
 82 232 81 227 71 227 c 0
 50 227 18 275 18 295 c 0
 18 358 20 423 20 486 c 0
 20 489 -2 642 -221 662 c 1
 -213 649 -208 637 -208 629 c 0
 -208 623 -231 522 -329 522 c 0
-281 662 m 1
 -329 658 -389 645 -415 610 c 1
 -402 604 -386 603 -372 603 c 0
 -335 603 -295 627 -281 662 c 1
EndSplineSet
EndChar

StartChar: Tutg.Jh
Encoding: 42 70554 13
Width: 1062
VWidth: 1000
GlyphClass: 2
Flags: W
HStem: 0 81<490.107 618.061 737.526 886.279> 17 81<282.952 376.864> 222 81<881.721 958.793> 241 81<220 321.304> 424 81<182.672 348.376 855.351 932.801>
VStem: 30 63<129.558 336.576> 180 63<141.583 258.589> 431 63<187.075 330.026> 641 62<216.828 327.373> 767 64<340.599 441.5> 968 64<307.485 386.857>
AnchorPoint: "VocR" 948 32 basechar 0
AnchorPoint: "U" 835 44 basechar 0
LayerCount: 2
Fore
SplineSet
246 322 m 0x5fe0
 261 322 350 316 417 186 c 1
 427 212 431 240 431 265 c 0
 431 354 395 424 296 424 c 0
 176 424 93 362 93 233 c 0
 93 181 102 126 122 78 c 0
 131 57 152 41 152 17 c 0x5fe0
 152 9 149 5 141 5 c 0
 131 5 114 21 108 28 c 0
 54 88 30 211 30 290 c 0
 30 434 115 505 255 505 c 0
 400 505 494 340 494 208 c 0
 494 171 487 131 471 97 c 1
 496 84 523 81 551 81 c 0
 633 81 649 147 649 215 c 0
 649 254 641 293 641 332 c 0
 641 340 644 344 652 344 c 0
 671 344 698 304 703 287 c 0
 715 247 704 152 727 92 c 1
 745 83 767 81 787 81 c 0
 810 81 834 86 856 93 c 0
 927 116 950 161 959 222 c 1
 857 222 767 351 767 413 c 0
 767 470 822 501 875 501 c 0
 960 501 1032 369 1032 289 c 0
 1032 222 1031 122 989 67 c 0
 954 21 885 1 829 1 c 0
 774 1 731 18 698 63 c 1
 685 20 636 0 594 0 c 0xafe0
 529 0 483 21 447 60 c 1
 425 34 394 17 353 17 c 0
 259 17 180 152 180 236 c 0
 180 281 194 322 246 322 c 0x5fe0
243 180 m 0
 243 136 263 98 311 98 c 0
 347 98 375 116 394 141 c 1
 382 166 372 196 355 215 c 0
 343 229 306 241 288 241 c 0
 253 241 243 209 243 180 c 0
916 420 m 0
 885 420 831 397 831 360 c 0
 831 324 889 303 918 303 c 0x2fe0
 937 303 955 313 968 315 c 1
 968 322 l 2
 968 360 970 420 916 420 c 0
EndSplineSet
Substitution2: "Link cons+-Ee-1" Wa.JhEe
Substitution2: "Link cons+-Ai-1" Wa.JhAi
EndChar

StartChar: Tutg.Kh
Encoding: 35 70547 14
Width: 831
VWidth: 1000
GlyphClass: 2
Flags: W
HStem: -4 81<105.749 220.431 483.24 693.734> 210 81<122.66 216.105> 422 81<198.097 324.3>
VStem: 30 64<84.2148 175.386> 237 63<81.5 189.606> 446 63<149.091 302.775> 737 64<125.298 411.57>
AnchorPoint: "VocR" 768 47 basechar 0
AnchorPoint: "Rakar" 742 80 basechar 0
AnchorPoint: "U" 626 45 basechar 0
LayerCount: 2
Fore
SplineSet
737 275 m 0
 737 438 703 465 703 487 c 0
 703 495 706 499 714 499 c 0
 721 499 732 490 737 486 c 0
 789 437 801 287 801 218 c 0
 801 160 795 47 737 15 c 0
 709 0 562 -1 522 -1 c 0
 498 -1 436 1 417 12 c 0
 399 22 374 55 374 77 c 0
 374 80 375 84 376 86 c 0
 383 96 392 104 399 114 c 0
 428 153 446 200 446 249 c 0
 446 346 368 422 271 422 c 0
 195 422 146 353 122 288 c 1
 130 290 138 291 146 291 c 0
 239 291 300 170 300 89 c 0
 300 74 298 56 291 43 c 0
 273 10 223 -4 188 -4 c 0
 100 -4 30 75 30 161 c 0
 30 284 68 503 228 503 c 0
 375 503 509 333 509 193 c 0
 509 155 502 114 483 80 c 1
 513 80 650 81 676 90 c 0
 732 108 737 226 737 275 c 0
189 210 m 0
 152 210 112 178 97 173 c 1
 95 149 94 126 94 105 c 0
 94 99 94 93 95 87 c 1
 111 79 129 77 146 77 c 0
 173 77 220 90 232 116 c 0
 236 125 237 135 237 145 c 0
 237 155 233 195 226 200 c 0
 216 207 201 210 189 210 c 0
EndSplineSet
Substitution2: "Link cons+-Ee-1" Wa.KhEe
Substitution2: "Link cons+-Ai-1" Wa.KhAi
EndChar

StartChar: Tutg.Ll
Encoding: 67 70579 15
Width: 548
VWidth: 1000
GlyphClass: 2
Flags: W
HStem: -1 72<109.118 503.726> 113 72<231.5 457.338> 126 72<127.463 417> 228 72<86.9985 165.191> 248 72<312.875 377.438> 427 72<185.204 389.541>
VStem: 30 56<302.293 366.341> 174 57<280.5 379.699> 461 57<191.34 239.762>
AnchorPoint: "VocR" 512 17 basechar 0
AnchorPoint: "U" 432 44 basechar 0
LayerCount: 2
Fore
SplineSet
222 71 m 0xa780
 295 71 466 78 468 78 c 0
 487 78 514 34 514 20 c 0
 514 6 508 7 499 6 c 0
 423 2 345 -1 269 -1 c 0
 223 -1 128 -1 90 22 c 0
 70 34 43 68 43 92 c 0
 43 190 134 198 210 198 c 0xa780
 274 198 337 185 401 185 c 0
 427 185 461 194 461 226 c 1
 435 244 411 255 378 255 c 0
 366 255 355 248 343 248 c 0
 324 248 297 292 297 309 c 0
 297 313 298 317 302 320 c 0xcf80
 319 333 428 317 452 362 c 0
 456 369 456 376 457 384 c 1
 410 417 348 427 292 427 c 0
 260 427 220 423 183 412 c 1
 211 380 231 335 231 304 c 0
 231 257 198 228 152 228 c 0
 82 228 30 301 30 366 c 0
 30 474 173 499 256 499 c 0
 432 499 513 397 513 330 c 0
 513 301 496 279 469 269 c 1
 491 247 518 208 518 175 c 0
 518 127 479 113 439 113 c 0xd780
 375 113 311 126 247 126 c 0
 204 126 128 123 107 77 c 1
 144 69 184 71 222 71 c 0xa780
86 316 m 2
 86 305 l 1
 95 301 105 300 114 300 c 0x9780
 146 300 174 320 174 354 c 0
 174 373 166 383 147 383 c 0
 125 383 115 370 107 367 c 1
 95 353 86 335 86 316 c 2
EndSplineSet
Substitution2: "Link cons+-Ee-1" Wa.LlEe
Substitution2: "Link cons+-Ai-1" Wa.LlAi
EndChar

StartChar: M
Encoding: 15 77 16
Width: 406
VWidth: 1000
GlyphClass: 2
Flags: W
HStem: 6 80<134.549 267.32> 296 79<142.485 284.143>
VStem: 17 62<131.024 239.686> 327 62<147.288 268.32>
LayerCount: 2
Fore
SplineSet
222 6 m 0
 111 6 17 124 17 230 c 0
 17 328 107 375 195 375 c 0
 300 375 389 278 389 175 c 0
 389 74 324 6 222 6 c 0
236 296 m 0
 166 296 79 254 79 174 c 0
 79 156 83 135 93 119 c 0
 107 96 157 86 182 86 c 0
 266 86 327 145 327 230 c 0
 327 239 325 259 321 267 c 0
 312 286 256 296 236 296 c 0
EndSplineSet
EndChar

StartChar: Tutg.Nn
Encoding: 48 70560 17
Width: 1167
VWidth: 1000
GlyphClass: 2
Flags: W
HStem: 2 81<138.516 246.533> 181 81<153.438 235.988> 422 80<192.508 356.368 559.207 687.073 894.973 999.585>
VStem: 261 64<55 166.992> 420 66<22.9069 331.122> 765 63<17.5836 315.984> 1073 64<135.964 348.449>
AnchorPoint: "VocR" 1094 25 basechar 0
LayerCount: 2
Fore
SplineSet
817 0 m 0
 816 0 772 12 764 73 c 1
 764 79 l 2
 764 115 764 150 765 186 c 0
 763 259 752 378 710 404 c 0
 688 417 662 422 637 422 c 0
 521 422 492 306 486 206 c 1
 486 166 l 2
 486 127 485 89 486 50 c 0
 487 37 488 25 488 12 c 0
 488 4 485 0 477 0 c 0
 466 0 437 23 426 57 c 0
 420 79 420 176 420 203 c 0
 420 222 421 244 422 267 c 0
 420 322 413 376 394 393 c 0
 367 416 309 422 274 422 c 0
 170 422 112 326 97 233 c 1
 117 250 140 262 167 262 c 0
 245 262 325 160 325 86 c 0
 325 24 273 2 219 2 c 0
 101 2 30 140 30 244 c 0
 30 365 94 502 232 502 c 0
 326 502 396 475 445 389 c 1
 471 463 515 502 595 502 c 0
 687 502 748 441 785 362 c 1
 799 424 827 500 902 500 c 0
 1057 500 1137 361 1137 220 c 0
 1137 154 1122 77 1091 18 c 0
 1087 11 1083 -2 1072 -2 c 0
 1051 -2 1019 46 1019 66 c 0
 1019 77 1073 153 1073 276 c 0
 1073 374 1052 419 946 419 c 0
 853 419 833 251 828 141 c 0
 829 124 829 107 829 91 c 0
 829 0 829 0 817 0 c 0
112 105 m 1
 129 88 155 83 177 83 c 0
 214 83 261 99 261 143 c 0
 261 172 235 181 210 181 c 0
 176 181 145 152 127 126 c 0
 122 119 119 111 112 105 c 1
EndSplineSet
Substitution2: "Link cons+-Ee-1" Wa.NnEe
Substitution2: "Link cons+-Ai-1" Wa.NnAi
EndChar

StartChar: Tutg.Ph
Encoding: 55 70567 18
Width: 963
VWidth: 1000
GlyphClass: 2
Flags: W
HStem: -4 81<467 794.062> 223 81<693.097 804.675> 326 81<219.606 379.672> 418 81<687.964 776.927>
VStem: 30 64<104.78 213.645> 454 63<182.165 277.813> 611 63<318.845 436.5> 869 64<145.734 256.867>
AnchorPoint: "VocR" 873 37 basechar 0
AnchorPoint: "U" 762 48 basechar 0
LayerCount: 2
Fore
SplineSet
157 0 m 0
 142 0 30 83 30 198 c 0
 30 300 145 407 283 407 c 0
 391 407 517 303 517 191 c 0
 517 152 495 112 467 79 c 1
 495 78 523 77 551 77 c 0
 613 77 759 77 810 109 c 0
 849 134 869 189 869 233 c 0
 869 241 869 249 868 258 c 1
 839 232 800 223 761 223 c 0
 679 223 611 332 611 409 c 0
 611 464 646 499 701 499 c 0
 814 499 933 331 933 176 c 0
 933 124 910 60 865 31 c 0
 811 -3 671 -4 605 -4 c 0
 533 -4 462 1 390 1 c 2
 374 1 l 1
 372 0 370 0 368 0 c 0
 345 0 314 48 314 69 c 0
 314 77 319 80 325 81 c 1
 324 82 l 1
 374 108 454 189 454 248 c 0
 454 264 454 274 438 286 c 0
 408 313 364 326 324 326 c 0
 196 326 94 219 94 142 c 0
 94 75 136 86 161 35 c 0
 164 28 168 20 168 12 c 0
 168 4 165 0 157 0 c 0
674 352 m 0
 674 340 676 327 681 316 c 1
 694 310 704 304 719 304 c 0
 746 304 785 313 806 330 c 0
 819 341 826 357 833 365 c 1
 813 396 783 418 743 418 c 0
 704 418 674 392 674 352 c 0
EndSplineSet
Substitution2: "Link cons+-Ee-1" Wa.PhEe
Substitution2: "Link cons+-Ai-1" Wa.PhAi
EndChar

StartChar: Tutg.Tth
Encoding: 45 70557 19
Width: 568
VWidth: 1000
GlyphClass: 2
Flags: W
HStem: 0 81<209.468 376.987> 196 78<256.828 343.312> 418 81<224.79 363.457>
VStem: 30 64<172.434 291.491> 253 94<200.785 269.154> 475 63<173.566 311.032>
AnchorPoint: "VocR" 487 68 basechar 0
AnchorPoint: "U" 344 50 basechar 0
LayerCount: 2
Fore
SplineSet
322 0 m 0
 163 0 30 148 30 265 c 0
 30 323 57 369 95 411 c 0
 141 462 197 499 268 499 c 0
 409 499 538 338 538 203 c 0
 538 81 440 0 322 0 c 0
94 208 m 0
 94 121 209 81 281 81 c 0
 381 81 475 155 475 260 c 0
 475 354 402 418 310 418 c 0
 213 418 94 307 94 208 c 0
300 196 m 0
 275 196 253 214 253 234 c 0
 253 256 275 274 300 274 c 0
 326 274 347 256 347 234 c 0
 347 214 326 196 300 196 c 0
EndSplineSet
Substitution2: "Link cons+-Ee-1" Wa.TthEe
Substitution2: "Link cons+-Ai-1" Wa.TthAi
EndChar

StartChar: Uml.VocR
Encoding: 76 70589 20
Width: 0
VWidth: 1000
GlyphClass: 4
Flags: W
HStem: -125 81<-439.918 -337.821>
VStem: -63 63<-26.6996 73.5146>
AnchorPoint: "VocR mark" 0 51 mark 0
AnchorPoint: "VocR" 0 51 mark 0
LayerCount: 2
Fore
SplineSet
-319 -275 m 0
 -457 -275 -533 -182 -533 -126 c 0
 -533 -77 -449 -44 -408 -44 c 0
 -342 -44 -274 -114 -262 -180 c 1
 -257 -178 -252 -177 -247 -175 c 0
 -144 -136 -63 -38 -63 75 c 0
 -63 99 0 86 0 57 c 1
 0 19 l 2
 0 -119 -111 -275 -319 -275 c 0
-465 -172 m 1
 -442 -183 -410 -190 -382 -193 c 1
 -372 -186 -354 -185 -345 -179 c 0
 -317 -159 -328 -141 -324 -135 c 1
 -325 -135 l 1
 -342 -129 -346 -125 -365 -125 c 0
 -389 -125 -454 -149 -465 -172 c 1
EndSplineSet
EndChar

StartChar: Tutg.Sh
Encoding: 63 70575 21
Width: 883
VWidth: 1000
GlyphClass: 2
Flags: W
HStem: -1 81<159.544 279.114 605.085 727.947> 220 81<592.83 731.992> 413 81<159.484 277.819> 420 80<510.346 681.698>
VStem: 30 64<171.551 343.363> 510 64<107.044 200.5> 790 63<240 304.129>
AnchorPoint: "VocR" 825 72 basechar 0
LayerCount: 2
Fore
SplineSet
30 295 m 0xde
 30 412 83 494 208 494 c 0
 247 494 266 490 288 456 c 0
 294 447 301 433 301 422 c 0
 301 414 298 410 290 410 c 0
 276 410 263 413 249 413 c 0xee
 140 413 94 339 94 238 c 0
 94 200 109 123 139 98 c 0
 158 82 171 80 195 80 c 0
 469 80 215 500 584 500 c 0
 743 500 853 327 853 182 c 0
 853 87 802 1 699 1 c 0
 676 1 652 3 631 11 c 0
 557 39 510 129 510 205 c 0
 510 276 561 301 625 301 c 0
 679 301 744 278 790 240 c 1
 790 345 738 420 626 420 c 0
 279 420 538 -1 237 -1 c 0
 109 -1 30 187 30 295 c 0xde
574 148 m 0
 574 127 580 105 580 103 c 1
 579 103 l 1
 595 84 633 82 656 82 c 0
 725 82 768 129 783 188 c 1
 756 207 697 220 666 220 c 0
 620 220 574 201 574 148 c 0
EndSplineSet
Substitution2: "Link cons+-Ee-1" Wa.ShEe
Substitution2: "Link cons+-Ai-1" Wa.ShAi
EndChar

StartChar: Tutg.Th
Encoding: 50 70562 22
Width: 798
VWidth: 1000
GlyphClass: 2
Flags: W
HStem: 2 81<252.573 503.59> 417 81<495.647 630.304> 481 20G<107 122.5>
VStem: 30 64<207.521 354.206> 354 63<238.694 345.396> 704 64<243.532 360.014>
AnchorPoint: "VocR" 649 76 basechar 0
AnchorPoint: "U" 557 77 basechar 0
LayerCount: 2
Fore
SplineSet
399 2 m 0xdc
 150 2 30 185 30 308 c 0
 30 374 53 425 89 479 c 0
 94 486 102 501 112 501 c 0xbc
 133 501 165 453 165 433 c 0
 165 414 94 357 94 251 c 0
 94 122 255 83 358 83 c 0
 413 83 471 94 524 116 c 1
 497 127 469 141 447 157 c 0
 396 196 354 265 354 331 c 0
 354 430 446 498 539 498 c 0
 654 498 768 380 768 264 c 0
 768 138 612 2 399 2 c 0xdc
609 164 m 1
 656 200 704 260 704 321 c 0
 704 359 698 370 667 390 c 0
 642 407 610 417 580 417 c 0xdc
 505 417 417 355 417 274 c 0
 417 261 419 245 426 234 c 0
 449 200 568 164 609 164 c 1
EndSplineSet
Substitution2: "Link cons+-Ee-1" Wa.ThEe
Substitution2: "Link cons+-Ai-1" Wa.ThAi
EndChar

StartChar: Uml.Uu
Encoding: 75 70588 23
Width: 0
VWidth: 1000
GlyphClass: 4
Flags: W
HStem: -295 81<-170.24 -73.2542> -195 81<-192.562 -114>
VStem: -273 80<-114 -63.0029> -134 63<-104.499 -44.6563> -46 64<-187.407 -76.9054>
AnchorPoint: "U mark" -151 49 mark 0
AnchorPoint: "U" -151 49 mark 0
LayerCount: 2
Fore
SplineSet
-149 49 m 0
 -82 49 18 -66 18 -181 c 0
 18 -249 -28 -295 -96 -295 c 0
 -185 -295 -273 -183 -273 -98 c 0
 -273 -10 -205 49 -149 49 c 0
-142 -195 m 0
 -166 -195 -190 -180 -210 -159 c 1
 -209 -168 -205 -179 -202 -187 c 1
 -181 -205 -166 -214 -137 -214 c 0
 -85 -214 -46 -177 -46 -125 c 0
 -46 -97 -53 -63 -74 -44 c 1
 -71 -58 -71 -72 -71 -89 c 0
 -71 -135 -86 -195 -142 -195 c 0
-193 -112 m 2
 -193 -113 l 1
 -190 -114 -187 -114 -184 -114 c 0
 -147 -114 -135 -69 -134 -39 c 1
 -164 -52 -193 -85 -193 -112 c 2
EndSplineSet
Substitution2: "Link U spacing-1" Uml.Uu.Spa
EndChar

StartChar: Tutg.Ddh
Encoding: 47 70559 24
Width: 810
VWidth: 1000
GlyphClass: 2
Flags: W
HStem: 1 81<202.716 323.922 495.871 601.464> 210 81<609.184 686.117> 416 81<134.134 220.64 624.747 688.912>
VStem: 30 64<274.352 372.325> 111 64<97.834 188.423> 389 64<143.243 355.898> 529 64<298.334 381.361> 716 64<299.974 380.569>
AnchorPoint: "VocR" 667 40 basechar 0
AnchorPoint: "U" 577 50 basechar 0
LayerCount: 2
Fore
SplineSet
84 254 m 0
 71 254 30 288 30 336 c 0
 30 403 62 497 143 497 c 0
 211 497 292 432 292 362 c 0
 292 275 175 198 175 119 c 0
 175 114 176 108 177 103 c 0
 193 89 223 82 244 82 c 0
 265 82 287 88 306 97 c 0
 374 130 388 173 389 242 c 1
 385 285 385 328 385 367 c 0
 385 375 388 379 396 379 c 0
 408 379 437 353 447 322 c 0
 452 306 453 208 453 184 c 0
 456 156 459 127 472 101 c 0
 481 90 513 83 527 83 c 0
 595 83 653 142 687 210 c 1
 609 213 529 282 529 362 c 0
 529 419 565 498 631 498 c 0
 692 498 751 402 768 351 c 0
 777 324 780 296 780 267 c 0
 780 157 691 2 568 2 c 0
 515 2 462 44 435 87 c 1
 409 32 344 1 285 1 c 0
 198 1 111 88 111 175 c 0
 111 267 206 322 227 407 c 1
 213 412 202 416 187 416 c 0
 122 416 94 333 94 279 c 0
 94 274 95 271 95 266 c 0
 95 258 92 254 84 254 c 0
593 306 m 2
 593 305 l 1
 610 296 632 291 651 291 c 0
 698 291 706 314 716 324 c 1
 716 353 712 417 673 417 c 0
 624 417 593 348 593 306 c 2
EndSplineSet
Substitution2: "Link cons+-Ee-1" Wa.DdhEe
Substitution2: "Link cons+-Ai-1" Wa.DdhAi
EndChar

StartChar: Uml.LoopVir
Encoding: 89 70607 25
Width: 448
VWidth: 1000
GlyphClass: 2
Flags: W
HStem: 5 80<164.637 252.773> 439 90<-112.918 189.336> 605 81<75.2431 231.666>
VStem: 87 63<100.453 229.041> 265 63<508.283 592.318> 331 63<169.701 333.903>
LayerCount: 2
Fore
SplineSet
182 85 m 0
 236 85 331 139 331 269 c 0
 331 326 317 376 280 403 c 1
 227 315 150 220 150 135 c 0
 150 116 156 109 159 92 c 1
 166 87 174 85 182 85 c 0
87 191 m 0
 87 265 127 327 191 429 c 1
 152 435 105 439 62 439 c 0
 -37 439 -54 419 -76 428 c 0
 -97 438 -124 471 -124 495 c 0
 -124 507 -114 506 -105 509 c 0
 -64 522 -14 529 36 529 c 0
 102 529 171 516 229 489 c 1
 232 494 264 545 265 584 c 1
 225 604 148 605 103 605 c 0
 97 605 80 604 75 606 c 0
 54 616 27 649 27 673 c 0
 27 685 37 686 46 686 c 0
 48 686 50 686 52 686 c 0
 144 686 249 685 305 600 c 0
 318 580 328 556 328 531 c 0
 328 503 317 473 301 442 c 1
 360 382 394 290 394 213 c 0
 394 77 307 5 226 5 c 0
 148 5 87 123 87 191 c 0
EndSplineSet
EndChar

StartChar: Uml.Length
Encoding: 84 70601 26
Width: 466
VWidth: 1000
GlyphClass: 2
Flags: W
HStem: 0 21G<63.5 80> 419 81<63 147.88 276.919 345.633>
VStem: 20 64<19.9225 36.5611 346.774 459.5> 372 64<243.503 390.28>
LayerCount: 2
Fore
SplineSet
104 281 m 0
 71 281 20 380 20 439 c 0
 20 480 43 500 83 500 c 0
 128 500 171 471 191 431 c 1
 210 465 238 500 281 500 c 0
 367 500 436 373 436 293 c 0
 436 250 428 198 402 163 c 0
 326 61 106 73 85 13 c 0
 82 5 86 0 74 0 c 0
 53 0 21 48 21 68 c 0
 21 154 260 140 336 228 c 0
 365 261 372 307 372 349 c 0
 372 382 365 419 324 419 c 0
 254 419 229 282 200 282 c 0
 179 282 147 330 147 350 c 0
 147 366 149 383 149 399 c 0
 149 405 148 410 148 416 c 1
 140 418 132 419 124 419 c 0
 101 419 84 408 84 383 c 0
 84 343 115 318 115 293 c 0
 115 285 112 281 104 281 c 0
EndSplineSet
EndChar

StartChar: Tutg.Ng
Encoding: 38 70550 27
Width: 807
VWidth: 1000
GlyphClass: 2
Flags: W
HStem: -2 21G<662.5 670> 113 81<127.221 211.002> 243 81<522.771 608.117> 257 78<117.449 219.368> 416 81<169.006 291.567 500.192 681.738>
VStem: 222 64<205.613 254.92> 610 67<20.0055 106> 713 64<299.584 397.259>
AnchorPoint: "Rakar" 674 165 basechar 0
AnchorPoint: "VocR" 678 17 basechar 0
AnchorPoint: "U" 657 27 basechar 0
LayerCount: 2
Fore
SplineSet
577 503 m 0xdf
 707 503 777 382 777 319 c 0
 777 249 729 189 677 148 c 1
 677 117 674 88 674 57 c 0
 674 41 677 26 677 10 c 0
 677 2 674 -2 666 -2 c 0
 659 -2 648 7 643 11 c 0
 614 38 610 69 610 106 c 1
 585 95 560 88 536 88 c 0
 475 88 423 158 423 215 c 0
 423 273 487 324 542 324 c 0xef
 586 324 628 289 652 250 c 1
 688 290 713 337 713 375 c 0
 713 380 712 385 711 390 c 1
 711 391 l 1
 694 415 644 422 617 422 c 0
 556 422 445 381 415 321 c 0
 412 316 412 309 409 304 c 0
 407 301 404 301 400 301 c 0
 386 301 365 326 359 337 c 0
 354 345 352 353 347 361 c 0
 325 399 292 416 248 416 c 0
 193 416 140 381 113 333 c 1
 116 334 119 335 121 335 c 0
 130 337 138 338 147 338 c 0
 218 338 286 263 286 194 c 0
 286 148 251 113 205 113 c 0
 105 113 30 229 30 321 c 0
 30 416 110 497 205 497 c 0
 269 497 327 456 363 406 c 1
 407 467 503 503 577 503 c 0xdf
488 170 m 1
 519 162 561 169 614 213 c 1
 614 222 614 229 612 237 c 1
 603 242 594 243 584 243 c 0
 545 243 498 208 488 170 c 1
100 225 m 1
 105 200 140 194 161 194 c 0
 191 194 222 218 222 250 c 2
 222 252 l 1
 212 256 202 257 191 257 c 0xdf
 155 257 111 226 100 225 c 1
EndSplineSet
Substitution2: "Link cons+-Ee-1" Wa.NgEe
Substitution2: "Link cons+-Ai-1" Wa.NgAi
EndChar

StartChar: Uml.Aa
Encoding: 71 70584 28
Width: 233
VWidth: 1000
GlyphClass: 2
Flags: W
HStem: -5 21G<170.5 183> 417 82<77.6631 128.967>
VStem: 0 62<364.67 400.27> 128 62<13.67 415.196>
LayerCount: 2
Fore
SplineSet
0 414 m 0
 0 464 43 499 91 499 c 0
 137 499 183 448 191 405 c 0
 193 395 193 386 193 376 c 0
 193 276 192 174 192 74 c 0
 192 63 193 3 190 -2 c 0
 188 -5 185 -5 181 -5 c 0
 160 -5 128 43 128 63 c 0
 128 181 130 299 129 417 c 1
 105 417 72 396 66 372 c 0
 64 366 65 354 62 349 c 0
 60 346 57 346 53 346 c 0
 32 346 0 394 0 414 c 0
EndSplineSet
EndChar

StartChar: Tutg.B
Encoding: 56 70568 29
Width: 887
VWidth: 1000
GlyphClass: 2
Flags: W
HStem: 8 81<132.59 192.627 591.394 738.371> 147 81<103.515 203.665> 415 80<158.351 271.205 404.607 531.314>
VStem: 30 64<229.517 336.452> 314 62<149.627 269.653> 577 64<194.998 371.053> 793 64<150.475 411.356>
AnchorPoint: "VocR" 817 56 basechar 0
AnchorPoint: "U" 706 51 basechar 0
LayerCount: 2
Fore
SplineSet
188 8 m 0
 140 8 30 97 30 278 c 0
 30 371 72 495 184 495 c 0
 244 495 285 469 319 421 c 1
 338 480 383 498 441 498 c 0
 537 498 641 406 641 250 c 0
 641 191 620 132 590 82 c 1
 760 82 793 117 793 337 c 0
 793 367 792 398 780 426 c 0
 773 443 754 468 754 486 c 0
 754 494 757 498 765 498 c 0
 797 498 857 399 857 281 c 0
 857 41 812 1 634 1 c 0
 615 1 510 1 503 4 c 0
 482 13 455 48 455 71 c 0
 455 79 455 79 465 86 c 0
 533 131 577 228 577 307 c 0
 577 378 566 417 483 417 c 0
 390 417 370 353 370 273 c 0
 370 201 376 167 376 145 c 0
 376 137 373 133 365 133 c 0
 346 133 319 173 314 190 c 0
 301 233 309 333 287 400 c 1
 288 400 l 1
 268 411 248 415 226 415 c 0
 134 415 95 306 94 228 c 1
 266 228 274 98 274 96 c 0
 274 51 233 8 188 8 c 0
136 147 m 0
 124 147 114 142 103 139 c 1
 110 112 123 89 145 89 c 0
 170 89 200 114 208 137 c 1
 185 144 160 147 136 147 c 0
EndSplineSet
Substitution2: "Link cons+-Ee-1" Wa.BEe
Substitution2: "Link cons+-Ai-1" Wa.BAi
EndChar

StartChar: Tutg.C
Encoding: 39 70551 30
Width: 781
VWidth: 1000
GlyphClass: 2
Flags: W
HStem: 0 81<315 658.734> 416 81<198.721 339.181>
VStem: 77 62<299.67 355.671> 393 63<256.859 380.879> 687 64<110.561 314.585>
AnchorPoint: "VocR" 666 4 basechar 0
AnchorPoint: "U" 536 41 basechar 0
LayerCount: 2
Fore
SplineSet
585 486 m 0
 633 486 751 369 751 158 c 0
 751 105 739 18 676 5 c 0
 647 -1 616 3 587 2 c 0
 524 1 461 0 398 0 c 0
 357 0 77 0 63 6 c 0
 42 15 15 50 15 73 c 0
 15 76 16 82 19 84 c 0
 23 86 36 86 41 87 c 0
 171 101 393 191 393 339 c 0
 393 374 390 386 358 402 c 0
 335 413 309 416 284 416 c 0
 216 416 153 373 142 304 c 0
 141 298 142 289 139 284 c 0
 137 281 133 281 130 281 c 0
 109 281 77 329 77 349 c 0
 77 438 157 497 241 497 c 0
 358 497 456 400 456 283 c 0
 456 190 390 125 315 81 c 1
 357 81 l 2
 418 81 480 82 541 83 c 0
 569 84 599 80 627 86 c 0
 680 99 687 169 687 215 c 0
 687 266 676 356 644 396 c 0
 638 404 625 405 617 409 c 0
 599 419 574 453 574 474 c 0
 574 482 577 486 585 486 c 0
EndSplineSet
Substitution2: "Link cons+-Ee-1" Wa.CEe
Substitution2: "Link cons+-Ai-1" Wa.CAi
EndChar

StartChar: Tutg.D
Encoding: 51 70563 31
Width: 514
VWidth: 1000
GlyphClass: 2
Flags: W
HStem: -2 81<203.69 362.042> 418 81<251.529 374.186>
VStem: 286 161<259 365> 418 66<136.251 202.641>
AnchorPoint: "VocR" 441 47 basechar 0
LayerCount: 2
Fore
SplineSet
325 -2 m 0xd0
 147 -2 25 153 25 219 c 0
 25 227 28 231 36 231 c 0
 51 231 75 201 81 188 c 0
 87 175 87 159 97 149 c 0
 143 103 218 79 282 79 c 0
 358 79 408 129 418 203 c 1xd0
 392 202 370 189 344 189 c 0
 319 189 286 235 286 259 c 0
 286 262 286 266 288 269 c 0
 295 283 372 361 381 408 c 1
 363 415 345 418 326 418 c 0
 297 418 258 408 241 382 c 0
 221 353 238 329 218 329 c 0
 197 329 165 377 165 397 c 0
 165 469 220 499 285 499 c 0
 386 499 447 415 447 365 c 0xe0
 447 336 430 302 413 279 c 1
 452 261 484 213 484 170 c 0
 484 73 426 -2 325 -2 c 0xd0
EndSplineSet
Substitution2: "Link cons+-Ee-1" Wa.DEe
Substitution2: "Link cons+-Ai-1" Wa.DAi
EndChar

StartChar: Uml.Ee
Encoding: 80 70594 32
Width: 365
VWidth: 1000
GlyphClass: 2
Flags: W
HStem: 252 81<99.2728 224.326> 417 81<127.004 238.637>
VStem: 30 64<335.322 385.262> 281 64<200.147 372.041>
LayerCount: 2
Fore
SplineSet
182 252 m 0
 82 252 30 346 30 389 c 0
 30 458 96 498 159 498 c 0
 244 498 308 418 331 343 c 0
 342 308 345 271 345 234 c 0
 345 152 302 99 254 38 c 0
 247 29 236 9 225 9 c 0
 204 9 172 57 172 77 c 0
 172 99 281 186 281 291 c 0
 281 317 278 363 267 387 c 0
 256 411 225 417 201 417 c 0
 160 417 97 387 94 341 c 1
 108 335 124 333 139 333 c 0
 167 333 195 352 202 352 c 0
 223 352 255 304 255 284 c 0
 255 261 199 252 182 252 c 0
EndSplineSet
Substitution2: "Link to dummy-1" Dummy
Substitution2: "Link Oo Au 2nd-1" Dummy
EndChar

StartChar: Tutg.Reph
Encoding: 91 70609 33
Width: 195
VWidth: 1000
GlyphClass: 2
Flags: W
HStem: 497 192<86.6286 114.16>
VStem: 67 66<516.323 670.979>
LayerCount: 2
Fore
SplineSet
133 597 m 0
 133 497 133 497 120 497 c 0
 99 497 67 545 67 565 c 0
 67 579 70 683 71 685 c 0
 74 689 76 689 80 689 c 0
 81 689 133 675 133 597 c 0
EndSplineSet
EndChar

StartChar: Tutg.G
Encoding: 36 70548 34
Width: 797
VWidth: 1000
GlyphClass: 2
Flags: W
HStem: -5 80<154.537 278.71 529.887 625.872> 411 81<179.073 291.618> 417 80<508.202 635.35>
VStem: 30 64<145.033 317.957> 704 63<150.413 321.148>
AnchorPoint: "VocR" 689 27 basechar 0
LayerCount: 2
Fore
SplineSet
237 -5 m 0xb8
 130 -5 30 121 30 268 c 0
 30 386 95 492 223 492 c 0
 263 492 283 486 303 450 c 0
 308 441 313 430 313 420 c 0
 313 412 310 408 302 408 c 0
 289 408 277 411 264 411 c 0xd8
 153 411 94 313 94 211 c 0
 94 139 110 75 195 75 c 0
 437 75 282 420 489 488 c 0
 513 496 541 497 567 497 c 0
 656 497 767 354 767 186 c 0
 767 79 706 2 595 2 c 0
 555 2 539 3 515 39 c 0
 509 48 502 62 502 73 c 0
 502 81 505 85 513 85 c 0
 526 85 540 83 553 83 c 0
 648 83 704 151 704 243 c 0
 704 300 685 417 609 417 c 0
 307 417 532 -5 237 -5 c 0xb8
EndSplineSet
Substitution2: "Link cons+-Ee-1" Wa.GEe
Substitution2: "Link cons+-Ai-1" Wa.GAi
EndChar

StartChar: Syl.Ng_K
Encoding: 101 -1 35
Width: 1163
VWidth: 1000
GlyphClass: 3
Flags: W
HStem: 0 81<94.5248 205.471 585.527 648.345 847.217 906.538> 198 81<103.067 216.578> 416 81<196.252 316.212 545.488 699.131 893.35 1027.54>
VStem: 17 63<99.2952 209.164> 245 64<117.035 186.146> 522 63<80.6414 178.116> 958 64<146.587 284.924> 1062 84<328.766 360.005>
AnchorPoint: "VocR" 975 43 basechar 0
LayerCount: 2
Fore
SplineSet
96 22 m 0
 44 60 17 160 17 222 c 0
 17 253 20 284 29 314 c 0
 55 404 131 497 232 497 c 0
 311 497 372 436 412 374 c 1
 443 466 534 502 624 502 c 0
 679 502 735 492 786 472 c 1
 830 493 875 505 918 505 c 0
 1018 505 1085 438 1125 352 c 0
 1131 339 1146 304 1146 291 c 0
 1146 283 1143 279 1135 279 c 0
 1130 279 1122 284 1118 287 c 0
 1077 320 1088 353 1062 386 c 0
 1038 416 998 424 961 424 c 0
 939 424 915 420 892 413 c 1
 958 363 1022 276 1022 189 c 0
 1022 173 1021 157 1018 142 c 0
 1010 99 974 23 933 4 c 0
 923 -1 913 -2 902 -2 c 0
 858 -2 802 69 782 104 c 1
 747 64 691 -1 633 -1 c 0
 587 -1 543 64 530 103 c 0
 525 120 522 137 522 155 c 0
 522 256 625 364 700 420 c 1
 688 421 677 421 666 421 c 0
 570 421 480 376 467 274 c 0
 466 265 467 247 464 240 c 0
 462 237 458 237 455 237 c 0
 450 237 440 243 436 246 c 0
 407 270 403 299 390 332 c 0
 369 383 332 416 275 416 c 0
 198 416 131 347 102 279 c 1
 161 279 237 258 276 210 c 0
 295 186 309 144 309 114 c 0
 309 38 234 0 167 0 c 0
 142 0 117 7 96 22 c 0
831 388 m 1
 740 343 585 210 585 95 c 0
 585 90 586 85 587 80 c 1
 591 80 l 2
 631 80 686 137 711 165 c 0
 721 176 731 191 742 200 c 0
 744 201 747 201 749 201 c 0
 763 201 783 177 790 167 c 0
 805 146 833 79 861 79 c 0
 905 79 942 158 952 194 c 0
 956 211 958 228 958 245 c 0
 958 319 893 362 831 388 c 1
152 198 m 0
 127 198 105 193 81 186 c 1
 80 179 80 172 80 165 c 0
 80 146 87 102 95 85 c 1
 105 83 115 81 125 81 c 0
 175 81 245 113 245 171 c 2
 245 176 l 1
 220 191 181 198 152 198 c 0
EndSplineSet
Substitution2: "Link cons+-Ai-1" Wa.Ng_KAi
Substitution2: "Link cons+-Ee-1" Wa.Ng_KEe
Ligature2: "Subj ligs-1" Tutg.Ng Uml.Conj Tutg.K
LCarets2: 2 498 686
Colour: ccffcf
EndChar

StartChar: Syl.Ng_G
Encoding: 102 -1 36
Width: 783
VWidth: 1000
GlyphClass: 3
Flags: W
HStem: -496 80<142.087 269.641 517.887 613.872> -80 81<167.073 279.618> -74 80<494.753 623.085> -2 21G<651.5 659> 113 81<116.221 200.002> 243 81<511.771 597.117> 257 78<106.449 208.368> 416 81<158.006 280.567 489.192 670.743>
VStem: 18 64<-346.747 -173.043> 211 64<205.613 254.92> 599 67<20.0055 106> 692 63<-340.587 -169.483> 702 64<299.584 396.123>
AnchorPoint: "VocR" 712 -435 basechar 0
LayerCount: 2
Fore
SplineSet
194 113 m 0x8be8
 94 113 19 229 19 321 c 0
 19 416 99 497 194 497 c 0
 258 497 316 456 352 406 c 1
 396 467 492 503 566 503 c 0
 644 503 706 460 744 393 c 0
 756 371 766 345 766 319 c 0
 766 249 718 189 666 148 c 1
 666 117 663 88 663 57 c 0
 663 41 666 26 666 10 c 0
 666 2 663 -2 655 -2 c 0
 648 -2 637 7 632 11 c 0
 603 38 599 69 599 106 c 1
 574 95 549 88 525 88 c 0
 464 88 412 158 412 215 c 0
 412 273 476 324 531 324 c 0x9de8
 575 324 617 289 641 250 c 1
 677 290 702 337 702 375 c 0
 702 380 701 385 700 390 c 2
 700 391 l 1
 683 415 633 422 606 422 c 0
 545 422 434 381 404 321 c 0
 401 316 401 309 398 304 c 0
 396 301 393 301 389 301 c 0
 375 301 354 326 348 337 c 0
 343 345 341 353 336 361 c 0
 314 399 281 416 237 416 c 0
 182 416 129 381 102 333 c 1
 105 334 108 335 110 335 c 0
 119 337 127 338 136 338 c 0
 207 338 275 263 275 194 c 0
 275 148 240 113 194 113 c 0x8be8
18 -223 m 0
 18 -105 83 1 211 1 c 0
 251 1 271 -5 291 -41 c 0
 296 -50 301 -61 301 -71 c 0
 301 -79 298 -83 290 -83 c 0
 277 -83 265 -80 252 -80 c 0xc9f0
 141 -80 82 -178 82 -280 c 0
 82 -352 98 -416 183 -416 c 0
 425 -416 270 -71 477 -3 c 0
 501 5 529 6 555 6 c 0
 584 6 612 -9 634 -27 c 0
 713 -91 755 -205 755 -305 c 0
 755 -412 694 -489 583 -489 c 0
 543 -489 527 -488 503 -452 c 0
 497 -443 490 -429 490 -418 c 0
 490 -410 493 -406 501 -406 c 0
 514 -406 528 -408 541 -408 c 0
 636 -408 692 -340 692 -248 c 0
 692 -191 673 -74 597 -74 c 0xa9f0
 569 -74 536 -77 510 -90 c 0
 341 -174 484 -496 225 -496 c 0
 128 -496 56 -400 31 -315 c 0
 22 -285 18 -254 18 -223 c 0
477 170 m 1
 481 169 l 2
 517 160 563 180 603 213 c 1
 603 222 603 229 601 237 c 1
 592 242 583 243 573 243 c 0x8de0
 534 243 487 208 477 170 c 1
89 225 m 1
 94 200 129 194 150 194 c 0
 180 194 211 218 211 250 c 2
 211 252 l 1
 201 256 191 257 180 257 c 0x8be0
 144 257 100 226 89 225 c 1
EndSplineSet
Substitution2: "Link cons+-Ai-1" Wa.Ng_GAi
Substitution2: "Link cons+-Ee-1" Wa.Ng_GEe
Ligature2: "Subj ligs-1" Tutg.Ng Uml.Conj Tutg.G
LCarets2: 2 294 584
Colour: ccffcf
EndChar

StartChar: Syl.Ny_C
Encoding: 103 -1 37
Width: 1461
VWidth: 1000
GlyphClass: 3
Flags: W
HStem: 6 80<99.3012 186.401 550.133 606.087 1008 1356.06> 421 81<173.728 279.98 450.675 571.184 722.018 1002.35>
VStem: 198 64<58 172.58> 305 62<179.67 316.682> 472 63<100.14 238.926> 640 63<153.6 340.506> 1086 63<256.859 371.907> 1380 64<110.561 315.239>
AnchorPoint: "VocR" 1424 52 basechar 0
LayerCount: 2
Fore
SplineSet
17 221 m 0
 17 320 68 502 192 502 c 0
 259 502 310 465 340 412 c 1
 366 463 411 499 483 499 c 0
 538 499 579 490 620 452 c 1
 687 493 770 506 849 506 c 0
 946 506 1047 477 1109 398 c 0
 1135 364 1149 326 1149 283 c 0
 1149 190 1083 125 1008 81 c 1
 1050 81 l 2
 1111 81 1173 82 1234 83 c 0
 1262 84 1292 81 1320 86 c 0
 1373 99 1380 169 1380 215 c 0
 1380 266 1369 356 1337 396 c 0
 1331 404 1318 404 1310 409 c 0
 1292 419 1267 453 1267 474 c 0
 1267 482 1270 486 1278 486 c 0
 1293 486 1322 467 1333 457 c 0
 1412 386 1444 261 1444 158 c 0
 1444 105 1432 18 1369 5 c 0
 1340 -1 1309 3 1280 2 c 0
 1217 1 1154 0 1091 0 c 0
 1050 0 770 0 756 6 c 0
 735 15 708 50 708 73 c 0
 708 76 709 82 712 84 c 0
 716 86 729 86 734 87 c 0
 864 101 1086 191 1086 339 c 0
 1086 346 1085 363 1082 369 c 0
 1080 372 1070 381 1066 383 c 0
 1019 414 945 425 890 425 c 0
 825 425 753 415 692 383 c 0
 687 379 681 375 675 371 c 1
 694 326 703 276 703 231 c 0
 703 170 688 82 648 34 c 0
 636 20 621 8 602 8 c 0
 552 8 505 78 488 119 c 0
 478 143 472 169 472 195 c 0
 472 259 498 321 537 372 c 0
 546 388 559 403 572 415 c 1
 556 418 540 418 527 418 c 0
 422 418 384 330 373 238 c 0
 372 209 370 168 367 164 c 0
 365 161 362 161 358 161 c 0
 337 161 305 209 305 229 c 0
 305 256 307 285 311 314 c 0
 311 317 311 320 311 323 c 0
 311 343 311 364 306 383 c 0
 304 391 300 398 298 406 c 1
 281 420 256 421 235 421 c 0
 169 421 125 350 104 296 c 1
 182 285 262 158 262 86 c 0
 262 30 221 6 169 6 c 0
 97 6 46 78 28 140 c 0
 20 166 17 194 17 221 c 0
535 139 m 0
 535 127 538 101 546 92 c 0
 548 90 554 89 557 89 c 0
 567 89 575 95 582 101 c 0
 623 137 640 235 640 288 c 0
 640 305 639 323 636 341 c 1
 624 331 613 319 603 306 c 0
 600 302 597 297 593 293 c 0
 558 247 535 193 535 139 c 0
138 215 m 0
 95 215 90 157 82 138 c 1
 84 118 88 95 97 91 c 0
 105 87 116 86 125 86 c 0
 160 86 198 103 198 143 c 0
 198 175 174 215 138 215 c 0
EndSplineSet
Substitution2: "Link cons+-Ai-1" Wa.Ny_CAi
Substitution2: "Link cons+-Ee-1" Wa.Ny_CEe
Ligature2: "Subj ligs-1" Tutg.Ny Uml.Conj Tutg.C
LCarets2: 2 710 934
Colour: ccffcf
EndChar

StartChar: Syl.Ny_Ch
Encoding: 104 -1 38
Width: 1388
VWidth: 1000
GlyphClass: 3
Flags: W
HStem: -4 81<922.788 960.649 1202.47 1253.03> 8 81<97.4347 188.476 547.68 611.5> 140 81<1215.74 1280.57> 421 81<173.728 279.98 450.675 567.023 696.382 808.392 1089.83 1204.6>
VStem: 198 64<58 172.58> 305 62<179.67 312.641> 473 63<97.5201 242.743> 640 63<153.6 348.375> 858 63<78.0176 388.272> 971 63<84.967 366.864> 1138 64<79.8374 125.23> 1308 63<213 321.417>
AnchorPoint: "VocR" 1339 72 basechar 0
LayerCount: 2
Fore
SplineSet
17 221 m 0x7ff0
 17 320 68 502 192 502 c 0
 259 502 310 465 340 412 c 1
 366 463 411 499 483 499 c 0
 535 499 574 491 614 457 c 1
 647 481 684 496 724 496 c 0
 741 496 758 494 773 489 c 0
 892 461 928 344 928 237 c 0
 928 227 926 178 923 165 c 0
 922 146 921 127 921 108 c 0
 921 97 922 88 923 77 c 1
 924 77 l 2
 968 77 971 133 971 165 c 0
 971 209 966 252 966 296 c 0
 966 412 994 495 1126 495 c 0
 1272 495 1371 334 1371 201 c 0
 1371 178 1370 154 1365 132 c 0
 1353 78 1315 -4 1250 -4 c 0
 1196 -4 1138 84 1138 134 c 0
 1138 201 1186 221 1245 221 c 0
 1256 221 1286 218 1305 213 c 1
 1307 227 1308 242 1308 257 c 0
 1308 350 1267 415 1168 415 c 0
 1053 415 1030 340 1030 240 c 0
 1030 196 1034 152 1034 108 c 0
 1034 61 1028 -4 967 -4 c 0xbff0
 919 -4 878 53 866 94 c 0
 859 117 858 141 858 165 c 0
 858 189 859 213 860 236 c 0
 861 256 862 276 862 296 c 0
 862 326 862 356 852 384 c 0
 843 403 810 411 791 414 c 0
 790 414 788 414 786 414 c 0
 778 414 769 414 761 416 c 0
 730 415 699 401 671 380 c 1
 693 334 703 279 703 231 c 0
 703 170 688 82 648 34 c 0
 636 20 621 8 602 8 c 0
 554 8 507 74 490 114 c 0
 480 138 473 165 473 191 c 0
 473 275 512 354 568 416 c 1
 553 418 539 418 527 418 c 0
 422 418 384 330 373 238 c 0
 372 209 370 168 367 164 c 0
 365 161 362 161 358 161 c 0
 337 161 305 209 305 229 c 0
 305 256 307 285 311 314 c 0
 311 337 311 360 306 383 c 0
 304 391 300 398 298 406 c 1
 281 420 256 421 235 421 c 0
 169 421 125 350 104 296 c 1
 182 285 262 158 262 86 c 0
 262 30 221 6 169 6 c 0
 97 6 46 78 28 140 c 0
 20 166 17 194 17 221 c 0x7ff0
536 134 m 0
 536 123 540 101 546 92 c 0
 548 90 555 89 557 89 c 0x7ff0
 567 89 575 95 582 101 c 0
 623 137 640 235 640 288 c 0
 640 307 638 329 634 349 c 1
 578 292 536 216 536 134 c 0
138 215 m 0
 95 215 90 157 82 138 c 1
 84 118 88 95 97 91 c 0
 105 87 116 86 125 86 c 0
 160 86 198 103 198 143 c 0
 198 175 174 215 138 215 c 0
1202 78 m 1
 1204 78 1206 77 1208 77 c 0xbff0
 1238 77 1264 108 1281 140 c 1
 1244 139 1202 124 1202 80 c 2
 1202 78 l 1
EndSplineSet
Substitution2: "Link cons+-Ai-1" Wa.Ny_ChAi
Substitution2: "Link cons+-Ee-1" Wa.Ny_ChEe
Ligature2: "Subj ligs-1" Tutg.Ny Uml.Conj Tutg.Ch
LCarets2: 2 624 878
Colour: ccffcf
EndChar

StartChar: Syl.Ny_J
Encoding: 105 -1 39
Width: 1792
VWidth: 1000
GlyphClass: 3
Flags: W
HStem: 6 80<99.4068 186.401 550.654 611.5 1111.52 1247.11 1545.63 1672.66> 190 81<1569.74 1660.63> 421 81<173.728 279.98 450.675 577.317 711.151 806.092 975.537 1058.26 1475.22 1606.23>
VStem: 198 64<58 172.58> 305 62<179.67 316.682> 473 63<98.0722 235.401> 640 63<153.936 337.258> 823 66<70.7644 306.131> 1047 64<88.1461 185.576> 1100 64<254.885 384.447> 1465 64<94.4207 149.871> 1711 64<143.58 284.108>
AnchorPoint: "VocR" 1769 100 basechar 0
LayerCount: 2
Fore
SplineSet
17 221 m 0xff70
 17 320 68 502 192 502 c 0
 259 502 310 465 340 412 c 1
 366 463 411 499 483 499 c 0
 538 499 579 490 621 451 c 1
 659 480 701 499 743 499 c 0
 797 499 841 454 866 406 c 1
 892 459 933 498 995 498 c 0
 1081 498 1164 377 1164 298 c 0xff70
 1164 226 1116 164 1111 92 c 1
 1130 87 1150 86 1169 86 c 0
 1370 86 1227 355 1415 471 c 0
 1447 491 1488 504 1526 504 c 0
 1557 504 1591 489 1616 471 c 0
 1707 407 1775 271 1775 160 c 0
 1775 81 1742 7 1652 7 c 0
 1582 7 1522 29 1484 91 c 0
 1473 109 1465 131 1465 152 c 0
 1465 218 1531 271 1594 271 c 0
 1641 271 1682 234 1710 193 c 1
 1711 201 1711 209 1711 217 c 0
 1711 298 1664 423 1567 423 c 0
 1536 423 1496 409 1470 393 c 0
 1287 281 1439 5 1210 5 c 0
 1149 5 1104 20 1070 73 c 0
 1055 96 1047 119 1047 147 c 0xffb0
 1047 219 1100 284 1100 355 c 0
 1100 394 1076 417 1037 417 c 0
 942 417 902 294 892 218 c 0
 891 200 889 183 887 175 c 0
 886 160 886 146 886 133 c 0
 886 109 889 85 889 61 c 0
 889 53 886 49 878 49 c 0
 871 49 860 58 855 62 c 0
 817 99 823 141 823 190 c 0
 823 203 823 217 824 232 c 0
 824 240 825 247 826 255 c 0
 827 262 828 269 829 276 c 0
 830 292 831 309 831 325 c 0
 831 339 827 403 818 410 c 0
 811 416 794 418 785 418 c 0
 746 418 705 395 674 372 c 1
 694 327 703 276 703 231 c 0
 703 170 688 82 648 34 c 0
 636 20 621 8 602 8 c 0
 553 8 505 78 488 119 c 0
 478 143 473 168 473 194 c 0
 473 276 522 358 578 414 c 1
 561 418 541 418 527 418 c 0
 422 418 384 330 373 238 c 0
 372 209 370 168 367 164 c 0
 365 161 362 161 358 161 c 0
 337 161 305 209 305 229 c 0
 305 256 307 285 311 314 c 0
 311 317 311 320 311 323 c 0
 311 343 311 364 306 383 c 0
 304 391 300 398 298 406 c 1
 281 420 256 421 235 421 c 0
 169 421 125 350 104 296 c 1
 182 285 262 158 262 86 c 0
 262 30 221 6 169 6 c 0
 97 6 46 78 28 140 c 0
 20 166 17 194 17 221 c 0xff70
636 338 m 1
 581 284 536 209 536 138 c 0
 536 123 537 89 557 89 c 0
 567 89 575 95 582 101 c 0
 623 139 640 234 640 288 c 0
 640 304 639 321 636 338 c 1
1635 190 m 0
 1583 190 1542 151 1529 103 c 1
 1529 102 l 1
 1550 92 1585 88 1609 88 c 0
 1652 88 1679 109 1695 140 c 1
 1680 166 1675 190 1635 190 c 0
138 215 m 0
 95 215 90 157 82 138 c 1
 84 118 88 95 97 91 c 0
 104 87 117 86 125 86 c 0
 160 86 198 103 198 143 c 0
 198 175 174 215 138 215 c 0
EndSplineSet
Substitution2: "Link cons+-Ai-1" Wa.Ny_JAi
Substitution2: "Link cons+-Ee-1" Wa.Ny_JEe
Ligature2: "Subj ligs-1" Tutg.Ny Uml.Conj Tutg.J
LCarets2: 2 754 1086
Colour: ccffcf
EndChar

StartChar: Syl.Ny_Ny
Encoding: 106 -1 40
Width: 1799
VWidth: 1000
GlyphClass: 3
Flags: W
HStem: -172 81<864.703 1397.69> -155 81<491.272 896.297> 6 80<112.407 199.401> 8 81<561.579 624.5 1089.52 1144.5> 421 81<186.728 292.735 463.675 591.132 727.186 818.84 972.887 1111.02 1234.61 1347.28 1520.84 1636.83>
VStem: 211 64<58 172.58> 318 62<179.67 316.682> 486 63<98.0722 233.109> 653 63<153.936 336.359> 838 62<185.737 324.841> 1006 63<104.63 240.381> 1173 63<161.024 343.359> 1358 62<192.67 296.437> 1706 63<99.7139 318.426>
AnchorPoint: "VocL B" 1785 -174 basechar 0
AnchorPoint: "VocR" 1691 -40 basechar 0
AnchorPoint: "Rakar" 1589 -36 basechar 0
AnchorPoint: "U" 1525 -52 basechar 0
LayerCount: 2
Fore
SplineSet
30 221 m 0x2ffc
 30 320 81 502 205 502 c 0
 272 502 323 465 353 412 c 1
 379 463 424 499 496 499 c 0
 552 499 593 490 634 451 c 1
 672 479 714 498 756 498 c 0
 805 498 846 461 872 417 c 1
 898 469 943 506 1016 506 c 0
 1071 506 1113 497 1154 458 c 1
 1192 486 1234 505 1276 505 c 0
 1332 505 1377 457 1402 406 c 1
 1436 461 1490 505 1556 505 c 0
 1590 505 1622 490 1648 469 c 0
 1732 401 1769 272 1769 167 c 0
 1769 113 1759 56 1731 10 c 0
 1624 -164 1336 -172 1154 -172 c 0xaffc
 985 -172 817 -155 648 -155 c 0
 607 -155 533 -158 497 -176 c 0
 490 -180 481 -185 476 -191 c 0
 471 -198 470 -210 459 -210 c 0
 438 -210 406 -162 406 -142 c 0
 406 -135 410 -127 414 -121 c 0
 447 -75 555 -74 607 -74 c 0x4ffc
 776 -74 944 -91 1113 -91 c 0
 1286 -91 1590 -82 1680 97 c 0
 1700 135 1706 181 1706 223 c 0
 1706 266 1694 353 1670 388 c 0
 1653 414 1629 424 1598 424 c 0
 1508 424 1442 321 1427 243 c 0
 1426 217 1423 183 1420 177 c 0
 1418 174 1414 174 1411 174 c 0
 1390 174 1358 222 1358 242 c 0
 1358 265 1360 288 1364 310 c 0
 1365 317 1365 324 1365 331 c 0
 1365 345 1361 409 1352 416 c 0
 1345 422 1327 424 1318 424 c 0
 1279 424 1239 401 1208 378 c 1
 1227 333 1236 283 1236 238 c 0
 1236 178 1221 88 1181 41 c 0
 1169 27 1154 15 1135 15 c 0
 1086 15 1037 85 1021 126 c 0
 1011 150 1006 175 1006 201 c 0
 1006 285 1055 364 1112 421 c 1
 1094 425 1075 425 1060 425 c 0
 959 425 921 344 908 260 c 0
 907 237 904 176 900 170 c 0
 898 167 895 167 891 167 c 0
 870 167 838 215 838 236 c 0
 838 265 840 297 845 328 c 1
 844 347 840 402 832 409 c 0
 825 415 807 417 798 417 c 0
 759 417 719 394 688 371 c 1
 707 326 716 276 716 231 c 0
 716 170 701 82 661 34 c 0
 649 20 634 8 615 8 c 0x9ffc
 566 8 518 78 501 119 c 0
 491 143 486 168 486 194 c 0
 486 276 535 359 592 414 c 1
 574 418 554 418 540 418 c 0
 435 418 397 330 386 238 c 0
 385 209 383 168 380 164 c 0
 378 161 375 161 371 161 c 0
 350 161 318 209 318 229 c 0
 318 256 320 285 324 314 c 0
 324 317 324 320 324 323 c 0
 324 343 324 364 319 383 c 0
 311 416 306 421 248 421 c 0
 182 421 138 350 117 296 c 1
 195 285 275 158 275 86 c 0
 275 30 234 6 182 6 c 0
 110 6 59 78 41 140 c 0
 33 166 30 194 30 221 c 0x2ffc
649 337 m 1
 594 283 549 208 549 138 c 0
 549 123 550 89 570 89 c 0x1ffc
 580 89 588 95 595 101 c 0
 636 139 653 234 653 288 c 0
 653 304 652 321 649 337 c 1
1169 344 m 1
 1114 290 1069 215 1069 145 c 0
 1069 131 1071 116 1077 103 c 0
 1081 97 1083 96 1090 96 c 0
 1100 96 1108 102 1115 108 c 0
 1156 146 1173 241 1173 295 c 0
 1173 310 1172 328 1169 344 c 1
151 215 m 0
 108 215 103 157 95 138 c 1
 97 118 101 95 110 91 c 0
 117 87 130 86 138 86 c 0x2ffc
 173 86 211 103 211 143 c 0
 211 175 187 215 151 215 c 0
EndSplineSet
Substitution2: "Link cons+-Ai-1" Wa.Ny_NyAi
Substitution2: "Link cons+-Ee-1" Wa.Ny_NyEe
Ligature2: "Subj ligs-1" Tutg.Ny Uml.Conj Tutg.Ny
LCarets2: 2 714 1022
Colour: ccffcf
EndChar

StartChar: Syl.Nn_T
Encoding: 107 -1 41
Width: 1202
VWidth: 1000
GlyphClass: 3
Flags: W
HStem: -10 81<943.403 1097.93> 2 81<125.516 233.533> 125 82<981.768 1119.44> 181 81<140.438 222.988> 422 80<179.508 343.251 546.207 674.073 882.264 1030.42>
VStem: 248 64<55 166.992> 409 64<20.4266 331.194> 752 63<17.4208 317.878> 916 65<206.103 234.448> 1086 64<303.5 392.296>
AnchorPoint: "VocR" 1180 50 basechar 0
LayerCount: 2
Fore
SplineSet
17 244 m 0x5fc0
 17 365 81 502 219 502 c 0
 313 502 383 475 432 389 c 1
 458 463 502 502 582 502 c 0
 674 502 735 441 772 363 c 1
 784 416 805 461 837 484 c 0
 858 499 884 501 909 501 c 0
 997 501 1072 473 1122 397 c 0
 1138 373 1150 344 1150 315 c 0
 1150 292 1136 271 1114 263 c 0
 1101 258 1086 258 1072 256 c 0
 1039 251 998 240 981 209 c 1
 981 207 l 1
 991 206 1000 206 1010 206 c 0
 1036 206 1071 210 1096 203 c 0
 1137 192 1185 121 1185 79 c 0
 1185 9 1106 -10 1050 -10 c 0xafc0
 1015 -10 944 9 916 30 c 0
 901 41 878 72 878 92 c 0
 878 100 881 104 889 104 c 2
 889 104 935 85 941 83 c 0x4fc0
 962 76 986 71 1008 71 c 0
 1045 71 1109 84 1120 125 c 1
 1112 126 1104 126 1096 126 c 0
 1070 126 1027 122 1004 130 c 0
 966 143 916 215 916 255 c 0
 916 310 979 330 1023 337 c 0
 1036 339 1052 339 1064 344 c 0
 1077 349 1086 361 1086 375 c 0
 1086 410 977 420 951 420 c 0
 926 420 905 417 885 400 c 0
 833 355 819 232 815 137 c 0
 816 121 816 106 816 91 c 0
 816 82 816 44 815 21 c 2
 815 17 l 2
 814 10 814 4 813 3 c 0
 811 0 808 0 804 0 c 0
 797 0 786 9 781 13 c 0
 761 32 754 49 751 73 c 0
 751 75 751 77 751 79 c 0
 751 117 751 154 752 192 c 0
 749 265 738 378 697 404 c 0
 675 417 649 422 624 422 c 0
 508 422 479 306 473 206 c 0
 473 193 473 179 473 166 c 0
 473 127 472 89 473 50 c 0
 474 37 475 25 475 12 c 0
 475 4 472 0 464 0 c 0
 457 0 446 9 441 13 c 0
 407 44 408 84 409 125 c 0xafc0
 408 151 407 177 407 203 c 0
 407 222 408 244 409 268 c 0
 407 322 400 376 381 393 c 0
 354 416 295 422 261 422 c 0
 157 422 99 326 84 233 c 1
 104 250 127 262 154 262 c 0
 232 262 312 160 312 86 c 0
 312 24 260 2 206 2 c 0
 88 2 17 140 17 244 c 0x5fc0
99 105 m 1
 116 88 142 83 164 83 c 0
 201 83 248 99 248 143 c 0
 248 172 222 181 197 181 c 0x5fc0
 163 181 132 152 114 126 c 0
 109 119 106 111 99 105 c 1
EndSplineSet
Substitution2: "Link cons+-Ai-1" Wa.Nn_TAi
Substitution2: "Link cons+-Ee-1" Wa.Nn_TEe
Ligature2: "Subj ligs-1" Tutg.Nn Uml.Conj Tutg.Tt
LCarets2: 2 671 880
Colour: ccffcf
EndChar

StartChar: Syl.Nn_Tth
Encoding: 108 -1 42
Width: 1277
VWidth: 1000
GlyphClass: 3
Flags: W
HStem: 0 80<126.851 231.077 997.169 1129.83> 160 57<1053.29 1107.72> 181 81<140.438 222.988> 422 80<179.508 342.193 546.207 674.073 881.973 1007.46>
VStem: 248 64<55 166.992> 409 64<20.4266 331.194> 752 63<17.4208 316.67> 895 64<109.252 244.919> 1053 55<160.233 216.767> 1196 64<147.337 269.886>
AnchorPoint: "VocR" 1222 60 basechar 0
LayerCount: 2
Fore
SplineSet
206 2 m 0xbfc0
 88 2 17 140 17 244 c 0
 17 365 81 502 219 502 c 0
 313 502 382 475 432 389 c 1
 458 463 502 502 582 502 c 0
 674 502 735 441 772 363 c 1
 786 424 814 500 889 500 c 0
 982 500 1035 487 1070 389 c 1
 1176 375 1260 277 1260 170 c 0
 1260 72 1188 0 1090 0 c 0
 973 0 895 103 895 214 c 0
 895 279 942 391 1018 391 c 1
 1014 411 l 1
 1004 419 948 420 933 420 c 0
 840 420 820 252 815 142 c 0
 816 125 816 108 816 91 c 0
 816 82 816 45 815 21 c 2
 815 17 l 2
 814 10 814 4 813 3 c 0
 811 0 808 0 804 0 c 0
 797 0 786 9 781 13 c 0
 761 32 754 49 751 73 c 0
 751 75 751 77 751 79 c 0
 751 115 751 151 752 187 c 0
 750 259 739 378 697 404 c 0
 675 417 649 422 624 422 c 0
 508 422 479 306 473 206 c 0
 473 193 473 179 473 166 c 0
 473 127 472 89 473 50 c 0
 474 37 475 25 475 12 c 0
 475 4 472 0 464 0 c 0
 457 0 446 9 441 13 c 0
 407 44 408 84 409 125 c 0
 408 151 407 177 407 203 c 0
 407 222 408 244 409 268 c 0
 407 322 400 376 381 393 c 0
 354 416 296 422 261 422 c 0
 157 422 99 326 84 233 c 1
 104 250 127 262 154 262 c 0
 232 262 312 160 312 86 c 0
 312 24 260 2 206 2 c 0xbfc0
1043 305 m 0
 993 289 959 206 959 157 c 0
 959 142 959 111 971 101 c 0
 989 85 1025 80 1048 80 c 0
 1128 80 1196 145 1196 226 c 0
 1196 252 1194 272 1172 288 c 0
 1145 307 1106 310 1074 310 c 0
 1066 308 1054 309 1043 305 c 0
114 126 m 0
 109 119 106 111 100 104 c 1
 117 88 142 83 164 83 c 0
 201 83 248 99 248 143 c 0
 248 172 222 181 197 181 c 0
 163 181 132 152 114 126 c 0
1053 188 m 0
 1053 204 1064 217 1082 217 c 0
 1097 217 1108 204 1108 188 c 0
 1108 173 1097 160 1082 160 c 0xdfc0
 1064 160 1053 173 1053 188 c 0
EndSplineSet
Substitution2: "Link cons+-Ai-1" Wa.Nn_TthAi
Substitution2: "Link cons+-Ee-1" Wa.Nn_TthEe
Ligature2: "Subj ligs-1" Tutg.Nn Uml.Conj Tutg.Tth
LCarets2: 2 526 746
Colour: ccffcf
EndChar

StartChar: Syl.Nn_Dd
Encoding: 109 -1 43
Width: 1567
VWidth: 1000
GlyphClass: 3
Flags: W
HStem: 2 81<125.516 233.533 1001.16 1142.45 1312.87 1420.04> 181 81<140.438 222.925> 422 80<179.508 343.368 546.207 673.799 925.621 1013.83>
VStem: 248 64<55 164.338> 407 66<22.9069 331.194> 751 64<18.387 236.663> 1034 63<314.227 413.533> 1202 62<315.907 459.373> 1224 64<180.829 418.828> 1486 64<157.451 359.517>
AnchorPoint: "VocR" 1512 70 basechar 0
LayerCount: 2
Fore
SplineSet
804 0 m 0xfec0
 789 0 751 38 751 73 c 0
 751 96 752 119 753 142 c 0
 753 200 749 371 697 404 c 0
 675 417 649 422 624 422 c 0
 508 422 479 306 473 206 c 1
 473 166 l 2
 473 127 472 89 473 50 c 0
 474 37 475 25 475 12 c 0
 475 4 472 0 464 0 c 0
 453 0 424 23 413 57 c 0
 407 79 407 176 407 203 c 0
 407 222 408 244 409 268 c 0
 407 322 400 376 381 393 c 0
 354 416 296 422 261 422 c 0
 157 422 99 326 84 233 c 1
 104 250 127 262 154 262 c 0
 232 262 312 160 312 86 c 0
 312 24 260 2 206 2 c 0
 88 2 17 140 17 244 c 0
 17 365 81 502 219 502 c 0
 313 502 383 475 432 389 c 1
 458 463 502 502 582 502 c 0
 686 502 752 423 784 331 c 1
 811 414 858 500 940 500 c 0
 1017 500 1097 420 1097 343 c 0
 1097 255 1018 170 1000 84 c 1
 1016 81 1033 79 1049 79 c 0
 1180 79 1224 202 1224 313 c 0xfec0
 1224 375 1202 438 1202 464 c 0
 1202 472 1205 476 1213 476 c 0
 1232 476 1259 436 1264 419 c 0xff40
 1264 417 1287 308 1287 235 c 0
 1289 227 1288 218 1288 210 c 0
 1288 186 1291 108 1304 92 c 0
 1308 87 1330 83 1337 83 c 0
 1453 83 1486 186 1486 283 c 0
 1486 321 1479 376 1457 408 c 0
 1447 424 1399 454 1399 491 c 0
 1399 499 1402 503 1410 503 c 0
 1428 503 1550 408 1550 226 c 0
 1550 159 1530 63 1470 24 c 0
 1445 7 1409 2 1379 2 c 0
 1324 2 1278 53 1255 99 c 1
 1226 40 1174 -1 1091 -1 c 0
 1032 -1 989 12 956 63 c 0
 943 84 935 105 935 130 c 0
 935 210 1034 318 1034 400 c 0
 1034 402 1033 404 1033 406 c 0
 1021 415 1003 419 988 419 c 0
 985 419 982 419 979 418 c 0
 977 418 975 417 973 417 c 0
 960 414 948 408 938 406 c 0
 847 355 820 166 816 76 c 0
 816 61 816 39 815 23 c 1
 815 17 l 1
 813 0 813 0 804 0 c 0xfec0
99 105 m 1
 116 88 142 83 164 83 c 0
 201 83 248 99 248 143 c 0
 248 150 247 156 244 162 c 1
 245 162 l 1
 232 176 216 181 197 181 c 0
 163 181 132 152 114 126 c 0
 109 119 106 111 99 105 c 1
EndSplineSet
Substitution2: "Link cons+-Ai-1" Wa.Nn_DdAi
Substitution2: "Link cons+-Ee-1" Wa.Nn_DdEe
Ligature2: "Subj ligs-1" Tutg.Nn Uml.Conj Tutg.Dd
LCarets2: 2 644 918
Colour: ccffcf
EndChar

StartChar: Syl.Nn_Ddh
Encoding: 110 -1 44
Width: 1633
VWidth: 1000
GlyphClass: 3
Flags: W
HStem: 2 81<125.516 233.533 1000.4 1142.49 1331.74 1446.84> 181 81<140.438 222.925> 212 81<1444.02 1526.27> 422 80<179.508 343.368 546.207 673.799 924.993 1014.05 1462.84 1519.05>
VStem: 248 64<55 164.338> 407 66<58.0856 331.194> 751 64<18.7774 236.663> 1034 63<314.227 413.533> 1220 67<172.701 351.711> 1364 64<298.951 383.361> 1553 63<303.284 381.146>
AnchorPoint: "VocR" 1556 84 basechar 0
LayerCount: 2
Fore
SplineSet
206 2 m 0xdfe0
 88 2 17 140 17 244 c 0
 17 365 81 502 219 502 c 0
 313 502 383 475 432 389 c 1
 458 463 502 502 582 502 c 0
 686 502 752 423 784 331 c 1
 800 383 836 465 891 488 c 0
 905 496 924 500 940 500 c 0
 1017 500 1097 420 1097 343 c 0
 1097 255 1018 170 1000 84 c 1
 1016 81 1033 79 1049 79 c 0
 1167 79 1215 180 1223 281 c 1
 1221 309 1220 336 1220 361 c 0
 1220 369 1223 373 1231 373 c 0
 1238 373 1249 364 1254 360 c 0
 1285 331 1287 297 1287 257 c 0
 1287 248 1287 240 1286 231 c 0
 1289 191 1295 150 1308 112 c 0
 1318 86 1345 78 1371 78 c 0
 1441 78 1501 155 1527 212 c 1xbfe0
 1448 212 1364 282 1364 364 c 0
 1364 421 1400 500 1466 500 c 0
 1527 500 1586 404 1603 353 c 0
 1612 326 1616 297 1616 268 c 0
 1616 160 1537 -2 1413 -2 c 0
 1345 -2 1289 56 1262 114 c 1
 1234 47 1181 -1 1091 -1 c 0
 1032 -1 990 12 956 63 c 0
 943 83 935 105 935 130 c 0
 935 210 1034 318 1034 400 c 0
 1034 402 1033 404 1033 406 c 0
 1021 415 1004 419 989 419 c 0
 970 419 951 409 938 406 c 0
 847 355 820 166 816 76 c 0
 816 61 816 39 815 23 c 2
 815 17 l 2
 814 10 814 4 813 3 c 0
 811 0 808 0 804 0 c 0
 785 0 758 40 753 57 c 0
 751 62 751 67 751 73 c 0
 751 96 752 119 753 142 c 0
 753 200 749 371 697 404 c 0
 675 417 649 422 624 422 c 0
 508 422 479 306 473 206 c 0
 473 193 473 179 473 166 c 0
 473 127 472 89 473 50 c 0
 474 37 475 25 475 12 c 0
 475 4 472 0 464 0 c 0
 457 0 446 9 441 13 c 0
 429 24 418 41 413 57 c 0
 407 79 407 176 407 203 c 0
 407 222 408 244 409 268 c 0
 407 322 400 376 381 393 c 0
 354 416 296 422 261 422 c 0
 157 422 99 326 84 233 c 1
 104 250 127 262 154 262 c 0
 232 262 312 160 312 86 c 0
 312 24 260 2 206 2 c 0xdfe0
1428 308 m 2
 1428 307 l 1
 1445 298 1467 293 1486 293 c 0
 1536 293 1542 320 1553 328 c 1
 1552 358 1546 419 1508 419 c 0
 1459 419 1428 350 1428 308 c 2
99 105 m 1
 116 88 142 83 164 83 c 0
 201 83 248 99 248 143 c 0
 248 150 247 156 244 162 c 1
 245 162 l 1
 232 176 216 181 197 181 c 0xdfe0
 163 181 132 152 114 126 c 0
 109 119 106 111 99 105 c 1
EndSplineSet
Substitution2: "Link cons+-Ai-1" Wa.Nn_DdhAi
Substitution2: "Link cons+-Ee-1" Wa.Nn_DdhEe
Ligature2: "Subj ligs-1" Tutg.Nn Uml.Conj Tutg.Ddh
LCarets2: 2 746 968
Colour: ccffcf
EndChar

StartChar: Syl.N_T
Encoding: 111 -1 45
Width: 1146
VWidth: 1000
GlyphClass: 3
Flags: W
HStem: -1 81<674.545 766.526> 416 81<131.487 246.709 517.763 683.527 853.17 1003.27>
VStem: 17 63<151.341 358.401> 329 65<58.8186 260.782> 606 63<84.2691 205.957> 794 63<108.586 268.854> 1065 64<160.063 362.823>
AnchorPoint: "Rakar" 1022 67 basechar 0
AnchorPoint: "VocR" 1069 23 basechar 0
LayerCount: 2
Fore
SplineSet
118 23 m 0
 51 90 17 199 17 293 c 0
 17 352 30 442 84 477 c 0
 105 491 140 497 165 497 c 0
 261 497 329 404 355 321 c 1
 393 463 513 502 579 502 c 0
 642 502 696 472 739 428 c 1
 786 470 843 498 905 498 c 0
 1038 498 1129 376 1129 250 c 0
 1129 175 1108 70 1059 11 c 0
 1053 4 1043 -9 1032 -9 c 0
 1011 -9 979 39 979 59 c 0
 979 72 989 73 997 81 c 0
 1005 89 1011 100 1017 110 c 0
 1051 169 1065 239 1065 306 c 0
 1065 335 1060 380 1033 397 c 0
 1009 412 975 418 947 418 c 0
 894 418 842 391 796 350 c 1
 835 281 857 200 857 133 c 0
 857 68 828 -1 753 -1 c 0
 661 -1 606 84 606 169 c 0
 606 246 659 341 708 397 c 1
 683 413 654 421 620 421 c 0
 583 421 519 393 518 392 c 0
 405 328 394 175 394 59 c 0
 394 49 395 10 392 4 c 0
 390 1 386 1 383 1 c 0
 364 1 337 41 332 58 c 0
 327 75 330 122 329 142 c 0
 327 211 317 321 283 381 c 0
 267 409 238 416 208 416 c 0
 103 416 80 323 80 237 c 0
 80 186 92 123 120 80 c 0
 135 58 161 44 161 13 c 0
 161 5 158 1 150 1 c 0
 140 1 125 16 118 23 c 0
767 321 m 1
 709 256 669 171 669 101 c 0
 669 96 670 92 671 87 c 1
 684 82 698 80 712 80 c 0
 770 80 794 140 794 190 c 0
 794 234 786 280 767 321 c 1
EndSplineSet
Substitution2: "Link cons+-Ai-1" Wa.N_TAi
Substitution2: "Link cons+-Ee-1" Wa.N_TEe
Ligature2: "Subj ligs-1" Tutg.N Uml.Conj Tutg.T
LCarets2: 2 480 643
Colour: ccffcf
EndChar

StartChar: Syl.N_D
Encoding: 112 -1 46
Width: 923
VWidth: 1000
GlyphClass: 3
Flags: W
HStem: 1 81<557.698 751.204> 201 91<640.017 745.605> 416 81<131.487 247.198 535.452 781.27>
VStem: 17 63<152.408 358.401> 332 60<17.6271 227.193> 485 65<87.1711 142.036> 842 64<148.789 214>
AnchorPoint: "VocR" 870 70 basechar 0
LayerCount: 2
Fore
SplineSet
150 1 m 0
 124 1 17 119 17 293 c 0
 17 352 30 442 84 477 c 0
 105 491 140 497 165 497 c 0
 268 497 330 398 359 311 c 1
 374 357 403 416 443 446 c 0
 469 470 532 497 569 497 c 0
 570 497 572 497 574 496 c 0
 593 498 612 499 631 499 c 0
 690 499 779 484 826 447 c 0
 852 427 885 380 885 346 c 0
 885 318 870 293 848 272 c 1
 876 250 906 204 906 168 c 0
 906 141 901 112 886 89 c 0
 844 22 732 1 658 1 c 0
 530 1 485 95 485 138 c 0
 485 147 484 161 497 161 c 0
 519 161 550 112 550 93 c 2
 550 92 l 1
 567 84 598 82 617 82 c 0
 682 82 790 102 827 162 c 0
 837 177 840 195 842 213 c 1
 842 214 l 1
 841 214 l 1
 830 216 820 218 809 218 c 0
 732 218 718 201 673 201 c 0
 652 201 620 249 620 269 c 0
 620 280 620 283 686 292 c 1
 743 309 810 348 820 390 c 1
 780 409 716 418 672 418 c 0
 601 418 543 408 489 358 c 0
 370 239 402 24 392 4 c 0
 390 1 387 1 383 1 c 0
 364 1 337 41 332 58 c 0
 326 79 338 285 283 381 c 0
 267 409 238 416 208 416 c 0
 103 416 80 323 80 237 c 0
 80 186 92 123 120 80 c 0
 135 58 161 44 161 13 c 0
 161 5 158 1 150 1 c 0
EndSplineSet
Substitution2: "Link cons+-Ai-1" Wa.N_DAi
Substitution2: "Link cons+-Ee-1" Wa.N_DEe
Ligature2: "Subj ligs-1" Tutg.N Uml.Conj Tutg.D
LCarets2: 2 428 572
Colour: ccffcf
EndChar

StartChar: Syl.N_Dh
Encoding: 113 -1 47
Width: 1261
VWidth: 1000
GlyphClass: 3
Flags: W
HStem: -2 80<680.282 737.859 984.54 1097.11> 416 81<131.487 246.872 533.832 650.226>
VStem: 17 63<151.968 358.401> 332 62<17.6271 234.859> 616 63<81.2524 241.873> 651 63<234.003 415.713> 840 74<176.298 258.857> 1181 63<166.981 311.544>
AnchorPoint: "VocR" 1194 63 basechar 0
LayerCount: 2
Fore
SplineSet
150 1 m 0xf7
 124 1 17 117 17 293 c 0
 17 352 30 442 84 477 c 0
 105 491 140 497 165 497 c 0
 267 497 329 398 358 312 c 1
 386 397 432 459 520 487 c 0
 542 494 566 499 589 499 c 0
 669 499 714 412 714 341 c 0xf7
 714 253 679 146 679 87 c 2
 679 78 l 1
 681 78 l 1
 690 81 702 80 709 81 c 0
 784 96 825 180 840 247 c 0
 842 257 842 283 856 283 c 0
 861 283 869 278 873 275 c 0
 903 250 906 228 914 193 c 0
 928 133 951 78 1022 78 c 0
 1110 78 1181 170 1181 254 c 0
 1181 398 1050 418 1050 485 c 0
 1050 493 1053 497 1061 497 c 0
 1074 497 1244 370 1244 197 c 0
 1244 97 1168 -2 1063 -2 c 0
 983 -2 923 71 888 135 c 1
 888 134 l 1
 860 61 819 4 738 -1 c 0
 735 -3 732 -3 727 -3 c 0
 706 -3 616 13 616 143 c 0xfb
 616 229 651 312 651 398 c 0
 651 404 651 410 650 416 c 1
 644 417 638 418 632 418 c 0
 611 418 589 412 569 406 c 0
 458 370 419 272 403 165 c 0
 398 129 394 91 394 55 c 0
 394 1 394 1 383 1 c 0
 364 1 337 41 332 58 c 0
 326 79 339 283 283 381 c 0
 267 409 238 416 208 416 c 0
 103 416 80 323 80 237 c 0
 80 186 92 123 120 80 c 0
 135 58 161 44 161 13 c 0
 161 5 158 1 150 1 c 0xf7
EndSplineSet
Substitution2: "Link cons+-Ai-1" Wa.N_DhAi
Substitution2: "Link cons+-Ee-1" Wa.N_DhEe
Ligature2: "Subj ligs-1" Tutg.N Uml.Conj Tutg.Dh
LCarets2: 2 552 770
Colour: ccffcf
EndChar

StartChar: Subj.Y
Encoding: 114 -1 48
Width: 202
VWidth: 1000
GlyphClass: 3
Flags: W
HStem: -124 106<-112.883 -38.4263>
VStem: -133 2<-55.8587 -47.0952> -46 90<-153.977 -102.425> 94 65<163.701 445.33> 104 63<-116.417 311.641>
AnchorPoint: "VocL B" 202 -237 basechar 0
AnchorPoint: "VocR" 146 -172 basechar 0
LayerCount: 2
Fore
SplineSet
167 18 m 0xe8
 167 -220 118 -239 55 -239 c 0
 9 -239 -46 -180 -46 -134 c 0
 -46 -124 -42 -111 -37 -102 c 1
 -50 -106 -70 -124 -80 -124 c 0
 -101 -124 -133 -76 -133 -56 c 0
 -133 -53 -133 -49 -131 -47 c 0
 -131 -46 -103 -18 -61 -18 c 0
 -14 -18 44 -70 44 -118 c 0
 44 -132 39 -144 33 -156 c 1
 112 -148 104 42 104 99 c 0xe8
 104 205 94 312 94 418 c 0
 94 464 96 464 106 464 c 0
 127 464 159 416 159 396 c 0xf0
 159 384 158 373 158 361 c 0
 158 247 167 132 167 18 c 0xe8
EndSplineSet
Ligature2: "Orig CCMP-1" Uml.Conj Tutg.Y
LCarets2: 1 54
EndChar

StartChar: Tutg.H
Encoding: 66 70578 49
Width: 780
VWidth: 1000
GlyphClass: 2
Flags: W
HStem: -5 80<340.095 426.075> 414 80<157.363 264.331 529.017 633.88>
VStem: 30 64<75.7639 342.368> 274 63<79.3691 410.517> 449 63<98.9746 396.496> 686 64<91.8222 357.713>
AnchorPoint: "VocR" 724 20 basechar 0
LayerCount: 2
Fore
SplineSet
94 218 m 0
 94 100 124 32 124 7 c 0
 124 -1 121 -5 113 -5 c 0
 108 -5 98 1 94 4 c 0
 41 44 30 215 30 275 c 0
 30 385 63 494 193 494 c 0
 242 494 337 453 337 293 c 0
 337 242 331 190 331 139 c 0
 331 123 332 95 337 81 c 1
 347 77 358 75 369 75 c 0
 440 75 449 140 449 196 c 0
 449 247 443 299 443 350 c 0
 443 422 457 494 545 494 c 0
 647 494 750 401 750 218 c 0
 750 108 719 0 718 -2 c 0
 716 -5 712 -5 709 -5 c 0
 688 -5 656 43 656 63 c 0
 656 87 686 156 686 275 c 0
 686 302 681 374 661 392 c 0
 642 409 611 414 587 414 c 0
 516 414 506 350 506 293 c 0
 506 242 512 190 512 139 c 0
 512 67 499 -5 411 -5 c 0
 361 -5 268 38 268 196 c 0
 268 247 274 299 274 350 c 0
 274 366 272 394 267 408 c 1
 257 412 246 414 235 414 c 0
 123 414 94 311 94 218 c 0
EndSplineSet
Substitution2: "Link cons+-Ee-1" Wa.HEe
Substitution2: "Link cons+-Ai-1" Wa.HAi
EndChar

StartChar: Uml.I
Encoding: 72 70585 50
Width: 125
VWidth: 1000
GlyphClass: 2
Flags: W
HStem: 622 81<-377.039 -157.772>
VStem: -480 63<544.465 588.25> 20 65<245.67 470.201>
LayerCount: 2
Fore
SplineSet
-425 524 m 0
 -440 524 -480 561 -480 610 c 0
 -480 688 -350 703 -293 703 c 0
 -140 703 -6 617 58 478 c 0
 68 456 85 415 85 391 c 2
 85 252 l 2
 85 242 85 227 73 227 c 0
 52 227 20 275 20 295 c 0
 20 345 22 395 22 445 c 0
 22 452 19 459 17 465 c 0
 -17 577 -144 622 -252 622 c 0
 -300 622 -403 610 -417 554 c 1
 -417 553 l 2
 -417 547 -414 542 -414 536 c 0
 -414 528 -417 524 -425 524 c 0
EndSplineSet
EndChar

StartChar: Tutg.J
Encoding: 41 70553 51
Width: 1390
VWidth: 1000
GlyphClass: 2
Flags: W
HStem: 3 81<127.033 216.933 696.645 835.065 1128.55 1260.9> 185 81<1154.93 1245.71> 209 81<121.495 210.871> 409 81<224.658 345.378> 418 81<565.01 641.06 1064.38 1186.62>
VStem: 257 64<79.5 179.624> 429 62<66.9272 318.386> 632 64<83.1461 180.576> 685 64<249.885 381.24> 1050 64<91.8338 144.871> 1296 64<138.58 279.893>
AnchorPoint: "VocR" 1308 24 basechar 0
LayerCount: 2
Fore
SplineSet
1237 2 m 0x8f60
 1084 2 1050 112 1050 147 c 0
 1050 213 1116 266 1179 266 c 0
 1226 266 1267 229 1295 188 c 1
 1296 196 1296 204 1296 212 c 0
 1296 293 1249 418 1152 418 c 0
 1121 418 1081 404 1055 388 c 0
 871 274 1024 0 795 0 c 0
 735 0 689 15 655 68 c 0
 640 91 632 114 632 142 c 0xcf60
 632 214 685 279 685 350 c 0
 685 391 659 414 619 414 c 0
 545 414 489 317 485 178 c 1
 490 138 491 99 491 63 c 0
 491 55 488 51 480 51 c 0
 471 51 440 72 429 108 c 0
 421 131 422 193 422 221 c 0
 417 277 405 335 382 372 c 0
 365 400 336 409 305 409 c 0
 241 409 156 348 121 290 c 1
 128 290 l 2
 214 290 321 196 321 108 c 0
 321 51 249 3 197 3 c 0
 114 3 55 100 36 183 c 0
 33 190 31 197 31 202 c 0
 31 205 31 207 32 210 c 0
 31 219 30 227 30 235 c 0
 30 275 37 315 54 351 c 0
 87 419 185 490 262 490 c 0
 345 490 406 422 439 353 c 1
 459 427 500 495 576 495 c 0
 665 495 749 376 749 293 c 0xb6e0
 749 221 701 159 696 87 c 1
 715 82 735 81 754 81 c 0
 929 81 847 295 942 417 c 0
 978 465 1052 499 1111 499 c 0
 1225 499 1360 317 1360 155 c 0
 1360 76 1327 2 1237 2 c 0x8f60
96 148 m 1
 103 112 110 84 154 84 c 0
 189 84 257 125 257 164 c 0
 257 166 257 172 256 174 c 0
 242 194 193 209 169 209 c 0xa660
 108 209 100 167 96 148 c 1
1114 97 m 1
 1135 87 1170 83 1194 83 c 0
 1237 83 1265 105 1280 136 c 1
 1266 161 1260 185 1220 185 c 0xc660
 1169 185 1127 146 1114 98 c 1
 1114 97 l 1
EndSplineSet
Substitution2: "Link cons+-Ee-1" Wa.JEe
Substitution2: "Link cons+-Ai-1" Wa.JAi
EndChar

StartChar: Tutg.K
Encoding: 34 70546 52
Width: 794
VWidth: 1000
GlyphClass: 2
Flags: W
HStem: 1 81<204.872 261.847 467.726 549.613> 425 81<183.247 317.75 512.085 634.837>
VStem: 30 62<259.67 338.512> 140 63<84.3586 181.301> 577 63<151.205 291.103>
AnchorPoint: "Big subj" 397 0 basechar 0
LayerCount: 2
Fore
SplineSet
251 2 m 0
 205 2 140 76 140 158 c 0
 140 260 244 368 319 424 c 1
 309 425 300 425 291 425 c 0
 197 425 107 377 95 278 c 0
 94 270 95 251 92 244 c 0
 90 241 86 241 83 241 c 0
 62 241 30 289 30 309 c 0
 30 440 126 506 249 506 c 0
 303 506 357 496 406 476 c 1
 449 496 494 508 536 508 c 0
 710 508 764 305 764 294 c 0
 764 286 761 282 753 282 c 0
 748 282 740 287 736 290 c 0
 695 323 707 356 680 389 c 0
 656 419 616 427 579 427 c 0
 557 427 534 423 511 417 c 1
 577 365 640 279 640 192 c 0
 640 91 578 1 523 1 c 0
 476 1 422 69 400 107 c 1
 365 67 309 2 251 2 c 0
479 82 m 0
 523 82 577 172 577 248 c 0
 577 318 519 365 451 393 c 1
 361 347 203 213 203 98 c 0
 203 93 204 88 205 83 c 1
 209 83 l 2
 248 83 304 140 329 168 c 0
 339 179 349 194 360 203 c 0
 362 205 365 204 367 204 c 0
 407 204 441 82 479 82 c 0
EndSplineSet
Substitution2: "Link cons+-Ee-1" Wa.KEe
Substitution2: "Link cons+-Ai-1" Wa.KAi
EndChar

StartChar: Tutg.L
Encoding: 61 70573 53
Width: 614
VWidth: 1000
GlyphClass: 2
Flags: W
HStem: -1 81<232.586 409.64> 219 81<128.056 228.793> 419 81<143.779 222.535>
VStem: 30 64<204.117 271> 223 64<325.014 418.944> 521 63<191.82 335.862>
AnchorPoint: "VocR" 520 69 basechar 0
AnchorPoint: "U" 395 49 basechar 0
LayerCount: 2
Fore
SplineSet
434 499 m 0
 454 499 584 366 584 228 c 0
 584 98 481 -1 352 -1 c 0
 270 -1 182 36 124 94 c 0
 65 154 30 246 30 330 c 0
 30 397 46 456 111 486 c 0
 132 496 149 500 172 500 c 0
 236 500 287 407 287 348 c 0
 287 294 260 219 196 219 c 0
 159 219 120 247 94 271 c 1
 94 231 105 170 135 141 c 0
 174 102 257 80 310 80 c 0
 423 80 521 171 521 285 c 0
 521 398 423 438 423 487 c 0
 423 495 426 499 434 499 c 0
223 404 m 0
 223 419 223 419 214 419 c 0
 195 419 176 412 160 404 c 0
 122 383 111 368 99 324 c 1
 113 312 131 300 153 300 c 0
 201 300 223 364 223 404 c 0
EndSplineSet
Substitution2: "Link cons+-Ee-1" Wa.LEe
Substitution2: "Link cons+-Ai-1" Wa.LAi
EndChar

StartChar: Tutg.M
Encoding: 58 70570 54
Width: 596
VWidth: 1000
GlyphClass: 2
Flags: W
HStem: -7 81<235.804 481.803> 3 73<234 338.314> 417 81<185.022 299.317>
VStem: 88 64<308.878 384.373> 336 64<281.275 396.557> 502 64<78.5 181.208>
AnchorPoint: "VocR" 547 31 basechar 0
AnchorPoint: "U" 446 39 basechar 0
LayerCount: 2
Fore
SplineSet
423 307 m 0xbc
 444 307 566 199 566 92 c 0
 566 65 552 28 529 13 c 0
 501 -5 417 -7 382 -7 c 0xbc
 290 -7 199 -1 107 3 c 0
 98 3 70 4 63 6 c 0
 42 13 15 51 15 73 c 0
 15 77 17 82 20 85 c 0
 34 95 244 142 317 290 c 0
 328 312 336 341 336 365 c 0
 336 378 337 390 325 398 c 0
 307 411 277 417 255 417 c 0
 196 417 152 377 152 317 c 0
 152 311 153 307 153 301 c 0
 153 293 150 289 142 289 c 0
 123 289 96 329 91 346 c 0
 88 355 88 365 88 374 c 0
 88 449 137 498 212 498 c 0
 310 498 400 406 400 308 c 0
 400 204 318 125 234 76 c 1x7c
 270 75 304 74 340 74 c 0
 368 74 452 76 473 91 c 0
 489 102 502 128 502 148 c 0
 502 194 474 211 444 238 c 0
 430 250 412 276 412 295 c 0
 412 303 415 307 423 307 c 0xbc
EndSplineSet
Substitution2: "Link cons+-Ee-1" Wa.MEe
Substitution2: "Link cons+-Ai-1" Wa.MAi
EndChar

StartChar: Tutg.N
Encoding: 53 70565 55
Width: 832
VWidth: 1000
GlyphClass: 2
Flags: W
HStem: 1 21G<150 167 386.5 398 703.5 715> 416 81<144.487 260.198 554.037 716.512>
VStem: 30 63<152.408 358.401> 739 63<203.866 400.04>
AnchorPoint: "VocR" 736 27 basechar 0
LayerCount: 2
Fore
SplineSet
163 1 m 0
 137 1 30 119 30 293 c 0
 30 352 43 442 97 477 c 0
 118 491 153 497 178 497 c 0
 281 497 343 398 372 311 c 1
 413 434 497 501 628 501 c 0
 735 501 802 394 802 296 c 0
 802 143 723 4 721 2 c 0
 720 1 716 1 714 1 c 0
 693 1 661 49 661 69 c 0
 661 79 739 210 739 350 c 0
 739 359 736 398 730 405 c 0
 720 416 683 420 669 420 c 0
 640 420 610 414 582 405 c 0
 372 333 417 28 405 4 c 0
 403 1 400 1 396 1 c 0
 377 1 350 41 345 58 c 0
 339 79 351 285 296 381 c 0
 280 409 251 416 221 416 c 0
 116 416 93 323 93 237 c 0
 93 186 104 123 133 80 c 0
 148 58 174 45 174 13 c 0
 174 5 171 1 163 1 c 0
EndSplineSet
Substitution2: "Link cons+-Ee-1" Wa.NEe
Substitution2: "Link cons+-Ai-1" Wa.NAi
EndChar

StartChar: Tutg.P
Encoding: 54 70566 56
Width: 963
VWidth: 1000
GlyphClass: 2
Flags: W
HStem: -4 81<467 794.062> 326 81<219.439 379.706> 418 81<677.789 774.404>
VStem: 30 64<104.78 213.582> 454 63<182.165 277.813> 869 64<145.734 302.728>
AnchorPoint: "VocR" 857 26 basechar 0
AnchorPoint: "U" 740 47 basechar 0
LayerCount: 2
Fore
SplineSet
157 0 m 0
 142 0 30 83 30 198 c 0
 30 299 144 407 283 407 c 0
 391 407 517 303 517 191 c 0
 517 152 495 112 467 79 c 1
 495 78 523 77 551 77 c 0
 613 77 760 77 810 109 c 0
 849 134 869 189 869 233 c 0
 869 308 834 418 743 418 c 0
 733 418 724 414 714 414 c 0
 693 414 661 462 661 482 c 0
 661 498 686 499 697 499 c 0
 818 499 933 327 933 176 c 0
 933 124 911 60 865 31 c 0
 811 -3 671 -4 605 -4 c 0
 533 -4 462 1 390 1 c 2
 374 1 l 1
 372 0 370 0 368 0 c 0
 345 0 314 48 314 69 c 0
 314 77 319 80 325 81 c 1
 324 82 l 1
 374 108 454 189 454 248 c 0
 454 264 454 274 438 286 c 0
 407 313 365 326 324 326 c 0
 196 326 94 219 94 142 c 0
 94 75 136 86 161 35 c 0
 164 28 168 20 168 12 c 0
 168 4 165 0 157 0 c 0
EndSplineSet
Substitution2: "Link cons+-Ee-1" Wa.PEe
Substitution2: "Link cons+-Ai-1" Wa.PAi
EndChar

StartChar: Tutg.Tt
Encoding: 44 70556 57
Width: 536
VWidth: 1000
GlyphClass: 2
Flags: W
HStem: 1 81<146.678 299.987> 263 81<287.392 441.069> 419 81<264.695 393.829>
VStem: 30 65<137.555 288.715> 443 63<193.1 262.571>
AnchorPoint: "VocR" 432 73 basechar 0
AnchorPoint: "U" 307 62 basechar 0
LayerCount: 2
Fore
SplineSet
506 195 m 0
 506 99 361 1 237 1 c 0
 102 1 30 142 30 261 c 0
 30 273 32 304 46 304 c 0
 67 304 95 256 95 236 c 0
 95 224 94 212 94 200 c 0
 94 176 99 127 114 108 c 0
 128 90 173 82 195 82 c 0
 286 82 443 161 443 257 c 1
 439 261 426 263 405 263 c 0
 347 263 294 231 237 231 c 0
 184 231 140 314 140 361 c 0
 140 470 254 500 342 500 c 0
 350 500 358 500 366 498 c 0
 386 492 414 452 414 431 c 0
 414 423 411 419 403 419 c 0
 338 419 260 415 220 356 c 0
 211 343 205 329 204 313 c 1
 232 315 303 344 362 344 c 0
 380 344 398 342 414 335 c 0
 464 314 506 249 506 195 c 0
EndSplineSet
Substitution2: "Link cons+-Ee-1" Wa.TtEe
Substitution2: "Link cons+-Ai-1" Wa.TtAi
EndChar

StartChar: Tutg.R
Encoding: 60 70572 58
Width: 620
VWidth: 1000
GlyphClass: 2
Flags: W
HStem: -6 81<335.013 455.915> 219 81<346.074 447.051> 419 81<237.191 417.39>
VStem: 30 64<130.568 272.529> 245 64<91.3442 220> 527 63<145.946 307.683>
AnchorPoint: "VocR" 564 73 basechar 0
LayerCount: 2
Fore
SplineSet
179 5 m 0
 159 5 30 91 30 232 c 0
 30 377 153 500 298 500 c 0
 349 500 415 483 457 454 c 0
 537 399 590 282 590 186 c 0
 590 2 441 -6 415 -6 c 0
 318 -6 245 94 245 185 c 0
 245 255 312 300 377 300 c 0
 440 300 501 235 501 201 c 0
 501 193 498 189 490 189 c 0
 478 189 459 219 418 219 c 0
 370 219 309 182 309 129 c 0
 309 121 311 96 316 90 c 0
 326 78 359 75 374 75 c 0
 377 75 527 76 527 242 c 0
 527 287 512 351 476 381 c 0
 446 406 378 419 339 419 c 0
 211 419 94 304 94 175 c 0
 94 77 146 107 181 44 c 0
 185 36 190 26 190 17 c 0
 190 9 187 5 179 5 c 0
EndSplineSet
Substitution2: "Link cons+-Ee-1" Wa.REe
Substitution2: "Link cons+-Ai-1" Wa.RAi
EndChar

StartChar: Tutg.S
Encoding: 65 70577 59
Width: 774
VWidth: 1000
GlyphClass: 2
Flags: W
HStem: -1 81<438.741 579.015> 417 81<125.987 210.003 379.147 466.191>
VStem: 25 63<302.954 409.575> 502 64<290.459 391.827> 681 63<191.861 381.079>
AnchorPoint: "VocR" 693 77 basechar 0
AnchorPoint: "U" 550 49 basechar 0
LayerCount: 2
Fore
SplineSet
116 234 m 0
 98 234 25 299 25 378 c 0
 25 440 80 498 143 498 c 0
 198 498 246 446 271 402 c 1
 294 451 341 498 398 498 c 0
 477 498 566 387 566 311 c 0
 566 223 485 152 438 84 c 1
 452 81 467 80 481 80 c 0
 639 80 681 225 681 296 c 0
 681 328 677 388 657 414 c 0
 652 420 647 421 641 425 c 0
 625 436 603 467 603 487 c 0
 603 495 606 499 614 499 c 0
 617 499 744 448 744 240 c 0
 744 108 665 -1 523 -1 c 0
 464 -1 412 10 378 63 c 0
 370 76 362 93 362 109 c 0
 362 178 502 268 502 367 c 0
 502 399 469 417 441 417 c 0
 390 417 343 365 327 320 c 0
 312 276 324 254 306 254 c 0
 300 254 291 260 287 263 c 0
 227 313 266 417 185 417 c 0
 139 417 88 367 88 321 c 0
 88 317 88 312 89 308 c 0
 105 294 127 269 127 246 c 0
 127 238 124 234 116 234 c 0
EndSplineSet
Substitution2: "Link cons+-Ee-1" Wa.SEe
Substitution2: "Link cons+-Ai-1" Wa.SAi
EndChar

StartChar: Tutg.T
Encoding: 49 70561 60
Width: 837
VWidth: 1000
GlyphClass: 2
Flags: W
HStem: 1 81<353.396 442.727> 423 81<208.867 356.964 539.831 673.907>
VStem: 30 64<142.715 313.269> 284 63<87.6532 208.133> 472 63<110.287 273.473> 743 64<162.743 364.984>
AnchorPoint: "VocR" 751 32 basechar 0
LayerCount: 2
Fore
SplineSet
175 -2 m 0
 160 -2 30 89 30 271 c 0
 30 407 134 504 271 504 c 0
 326 504 376 474 418 430 c 1
 464 472 521 500 583 500 c 0
 716 500 807 378 807 252 c 0
 807 107 740 -7 710 -7 c 0
 689 -7 657 41 657 61 c 0
 657 74 667 75 675 83 c 0
 682 90 743 165 743 308 c 0
 743 338 738 382 711 399 c 0
 687 414 653 420 625 420 c 0
 572 420 519 393 474 352 c 1
 512 285 535 208 535 149 c 0
 535 75 514 1 426 1 c 0
 364 1 284 60 284 171 c 0
 284 248 337 343 386 399 c 1
 365 414 341 423 312 423 c 0
 192 423 94 336 94 215 c 0
 94 179 99 124 123 95 c 0
 132 84 144 76 154 67 c 0
 168 55 186 29 186 10 c 0
 186 2 183 -2 175 -2 c 0
472 205 m 0
 472 242 463 285 445 323 c 1
 387 259 347 173 347 103 c 0
 347 98 348 94 349 89 c 1
 359 85 374 82 385 82 c 0
 456 82 472 147 472 205 c 0
EndSplineSet
Substitution2: "Link cons+-Ee-1" Wa.TEe
Substitution2: "Link cons+-Ai-1" Wa.TAi
EndChar

StartChar: Uml.U
Encoding: 74 70587 61
Width: 0
VWidth: 1000
GlyphClass: 4
Flags: W
HStem: -198 81<-196.175 -119.197> -36 81<-162.038 -100.039>
VStem: -261 64<-114.778 -69.7511> -99 64<-98.0109 -38.754>
AnchorPoint: "U mark" -138 45 mark 0
AnchorPoint: "U" -138 45 mark 0
LayerCount: 2
Fore
SplineSet
-261 -66 m 4
 -261 0 -198 45 -136 45 c 4
 -71 45 -35 -33 -35 -89 c 4
 -35 -156 -69 -198 -135 -198 c 4
 -200 -198 -261 -126 -261 -66 c 4
-197 -114 m 5
 -190 -116 -183 -117 -176 -117 c 4
 -128 -117 -99 -83 -99 -36 c 5
 -137 -36 -194 -73 -197 -114 c 5
EndSplineSet
Substitution2: "Link U spacing-1" Uml.U.Spa
EndChar

StartChar: Tutg.V
Encoding: 62 70574 62
Width: 737
VWidth: 1000
GlyphClass: 2
Flags: W
HStem: 0 21G<129.5 151> 2 81<394.069 516.865> 418 81<208.128 335.219>
VStem: 30 64<137.207 299.535> 373 63<198.102 387.642> 644 63<199.305 353.652>
AnchorPoint: "VocR" 645 76 basechar 0
AnchorPoint: "U" 546 70 basechar 0
LayerCount: 2
Fore
SplineSet
147 0 m 0xbc
 112 0 30 150 30 256 c 0
 30 407 152 499 251 499 c 0
 362 499 436 385 436 283 c 0
 436 213 419 148 394 83 c 1
 461 87 550 105 595 159 c 0
 626 197 644 263 644 311 c 0
 644 336 638 363 621 382 c 0
 588 420 545 407 516 458 c 0
 511 467 506 478 506 488 c 0
 506 496 509 500 517 500 c 0
 524 500 553 487 560 483 c 0
 640 441 707 346 707 254 c 0
 707 200 690 128 655 86 c 0
 606 28 509 2 436 2 c 0x7c
 415 2 362 3 345 13 c 0
 327 24 302 56 302 78 c 0
 302 92 373 212 373 340 c 0
 373 400 354 418 294 418 c 0
 214 418 94 338 94 200 c 0
 94 97 158 44 158 12 c 0
 158 4 155 0 147 0 c 0xbc
EndSplineSet
Substitution2: "Link cons+-Ee-1" Wa.VEe
Substitution2: "Link cons+-Ai-1" Wa.VAi
EndChar

StartChar: Tutg.Dd
Encoding: 46 70558 63
Width: 735
VWidth: 1000
GlyphClass: 2
Flags: W
HStem: 0 80<157.161 292.498 467.215 572.594> 420 81<104.379 176.746>
VStem: 30 80<340.523 417.74> 30 63<340.523 410.011> 190 63<315.227 408> 358 62<316.907 460.373> 380 63<181.758 422.112> 641 64<155.451 357.517>
AnchorPoint: "VocR" 623 20 basechar 0
AnchorPoint: "U" 552 44 basechar 0
LayerCount: 2
Fore
SplineSet
99 307 m 0xe9
 80 307 30 345 30 430 c 0xd9
 30 473 70 501 110 501 c 0
 179 501 253 410 253 344 c 0
 253 256 174 171 156 85 c 1
 172 82 189 80 205 80 c 0
 336 80 380 203 380 314 c 0xeb
 380 376 358 439 358 465 c 0
 358 473 361 477 369 477 c 0
 388 477 415 437 420 420 c 0xcd
 420 418 443 308 443 258 c 0
 443 249 443 240 442 230 c 0
 444 223 443 215 443 208 c 0
 443 184 446 106 459 90 c 0
 463 85 485 81 492 81 c 0
 608 81 641 184 641 281 c 0
 641 319 634 374 612 406 c 0
 602 422 554 452 554 489 c 0
 554 497 557 501 565 501 c 0
 583 501 705 406 705 224 c 0
 705 157 685 61 625 22 c 0
 600 5 564 0 534 0 c 0
 478 0 432 51 410 98 c 1
 380 40 329 0 247 0 c 0
 188 0 145 13 112 64 c 0
 99 85 91 106 91 131 c 0
 91 211 190 319 190 401 c 0
 190 403 189 406 189 408 c 1
 181 415 l 1
 177 415 165 420 152 420 c 0
 123 420 100 401 93 374 c 1
 93 373 l 2xdb
 93 336 110 344 110 319 c 0
 110 311 107 307 99 307 c 0xe9
EndSplineSet
Substitution2: "Link cons+-Ee-1" Wa.DdEe
Substitution2: "Link cons+-Ai-1" Wa.DdAi
EndChar

StartChar: Tutg.Ss
Encoding: 64 70576 64
Width: 938
VWidth: 1000
GlyphClass: 2
Flags: W
HStem: 0 21G<149.5 161 356.5 369> 326 81<219.606 379.672> 408 81<676.375 773.434>
VStem: 30 64<104.78 213.645> 454 63<182.165 277.813> 603 64<326.426 443.5>
AnchorPoint: "VocR" 884 48 basechar 0
AnchorPoint: "U" 758 49 basechar 0
LayerCount: 2
Fore
SplineSet
157 0 m 0
 142 0 30 83 30 198 c 0
 30 300 145 407 283 407 c 0
 391 407 517 303 517 191 c 0
 517 152 495 112 467 79 c 1
 486 78 505 77 524 77 c 1
 577 137 628 198 677 260 c 1
 637 301 603 358 603 416 c 0
 603 471 657 489 703 489 c 0
 808 489 842 404 842 376 c 0
 842 321 819 280 784 240 c 1
 834 211 908 161 908 94 c 0
 908 66 880 38 857 26 c 0
 800 -4 667 -4 601 -4 c 2
 576 -4 l 1
 554 -29 385 -212 357 -212 c 0
 336 -212 304 -164 304 -144 c 0
 304 -142 305 -137 306 -135 c 0
 312 -127 324 -121 332 -114 c 0
 375 -80 414 -40 452 0 c 1
 432 1 411 1 390 1 c 2
 374 1 l 1
 372 0 370 0 368 0 c 0
 345 0 314 48 314 69 c 0
 314 77 319 80 325 81 c 1
 324 82 l 1
 374 108 454 189 454 248 c 0
 454 264 454 274 438 286 c 0
 408 313 364 326 324 326 c 0
 196 326 94 219 94 142 c 0
 94 75 136 86 161 35 c 0
 164 28 168 20 168 12 c 0
 168 4 165 0 157 0 c 0
750 202 m 1
 749 201 687 126 647 78 c 1
 715 82 821 90 842 143 c 1
 810 164 779 182 750 202 c 1
744 408 m 0
 716 408 667 396 667 360 c 0
 667 327 681 312 704 293 c 1
 757 352 766 362 775 405 c 1
 765 407 754 408 744 408 c 0
EndSplineSet
Substitution2: "Link cons+-Ee-1" Wa.SsEe
Substitution2: "Link cons+-Ai-1" Wa.SsAi
EndChar

StartChar: Tutg.Y
Encoding: 59 70571 65
Width: 864
VWidth: 1000
GlyphClass: 2
Flags: W
HStem: -4 81<137.536 345.039 523.106 677.345> 211 81<119.571 206.356> 421 81<262.849 416.501>
VStem: 25 63<108 176.01> 164 63<314.703 388.655> 509 64<220.349 352.486> 771 63<167.905 329.641>
AnchorPoint: "VocR" 782 61 basechar 0
AnchorPoint: "U" 666 50 basechar 0
LayerCount: 2
Fore
SplineSet
252 -4 m 0
 103 -4 25 100 25 171 c 0
 25 224 67 292 125 292 c 0
 206 292 300 199 411 136 c 1
 463 174 509 242 509 309 c 0
 509 333 507 351 492 370 c 0
 467 401 394 421 355 421 c 0
 303 421 227 399 227 335 c 0
 227 325 230 317 230 307 c 0
 230 299 227 295 219 295 c 0
 218 295 164 308 164 392 c 0
 164 475 243 502 313 502 c 0
 443 502 573 385 573 252 c 0
 573 197 544 135 507 94 c 1
 534 87 561 82 590 82 c 0
 701 82 771 159 771 268 c 0
 771 298 764 351 741 372 c 0
 734 378 725 381 718 387 c 0
 702 399 680 428 680 449 c 0
 680 457 683 461 691 461 c 0
 698 461 718 447 724 443 c 0
 794 393 834 296 834 212 c 0
 834 87 760 1 632 1 c 0
 569 1 510 22 455 51 c 1
 396 13 324 -4 252 -4 c 0
168 211 m 0
 126 211 88 153 88 114 c 1
 89 108 l 1
 120 85 172 77 210 77 c 0
 261 77 314 87 360 108 c 1
 283 160 217 211 168 211 c 0
EndSplineSet
Substitution2: "Link cons+-Ee-1" Wa.YEe
Substitution2: "Link cons+-Ai-1" Wa.YAi
EndChar

StartChar: Tutg.Ny
Encoding: 43 70555 66
Width: 1277
VWidth: 1000
GlyphClass: 2
Flags: W
HStem: -179 81<342.703 880.005> -162 81<-32.4061 374.297> 8 81<108.325 199.476 559.881 642> 417 81<178.561 296.153 453.53 589.133 718.023 821.234 1001.98 1110.63>
VStem: 209 64<58 172.58> 484 63<98.9412 233.381> 651 63<154.909 336.359> 836 62<185.67 289.437> 1184 63<96.9231 312.09>
AnchorPoint: "VocR" 1103 -110 basechar 0
AnchorPoint: "U" 1102 -24 basechar 0
LayerCount: 2
Fore
SplineSet
1034 498 m 0xbf80
 1147 498 1247 340 1247 160 c 0
 1247 107 1238 49 1209 3 c 0
 1101 -171 815 -179 632 -179 c 0xbf80
 463 -179 295 -162 126 -162 c 0
 88 -162 -18 -164 -46 -198 c 0
 -51 -205 -52 -217 -63 -217 c 0
 -84 -217 -116 -169 -116 -149 c 0
 -116 -142 -112 -134 -108 -128 c 0
 -76 -82 34 -81 85 -81 c 0x7f80
 254 -81 422 -98 591 -98 c 0
 922 -98 1184 -43 1184 216 c 0
 1184 259 1172 346 1148 381 c 0
 1131 407 1106 417 1076 417 c 0
 986 417 920 314 905 236 c 0
 904 210 901 176 898 170 c 0
 896 167 893 167 889 167 c 0
 868 167 836 215 836 235 c 0
 836 285 843 291 843 324 c 0
 843 338 839 402 830 409 c 0
 822 415 805 417 796 417 c 0
 757 417 717 394 686 371 c 1
 705 326 714 276 714 231 c 0
 714 122 671 8 613 8 c 0
 562 8 484 98 484 194 c 0
 484 278 533 357 590 414 c 1
 572 418 553 418 538 418 c 0
 362 418 387 176 378 164 c 0
 376 161 373 161 369 161 c 0
 348 161 316 209 316 229 c 0
 316 256 318 285 322 314 c 0
 322 337 322 360 317 383 c 0
 315 391 311 398 309 406 c 1
 292 420 267 421 246 421 c 0
 180 421 136 350 115 296 c 1
 193 285 273 158 273 86 c 0
 273 30 232 6 180 6 c 0
 105 6 28 92 28 221 c 0
 28 320 79 502 203 502 c 0
 270 502 321 465 351 412 c 1
 377 463 422 499 494 499 c 0
 550 499 591 490 632 451 c 1
 670 479 712 498 754 498 c 0
 810 498 855 450 880 399 c 1
 914 454 968 498 1034 498 c 0xbf80
568 89 m 0
 612 89 651 198 651 288 c 0
 651 303 650 321 647 337 c 1
 592 283 547 208 547 138 c 0
 547 123 548 89 568 89 c 0
101 170 m 0
 99 163 96 148 92 139 c 1
 95 119 99 96 108 91 c 0
 115 88 128 86 136 86 c 0
 171 86 209 103 209 143 c 0
 209 175 185 215 149 215 c 0
 125 215 108 190 101 170 c 0
EndSplineSet
Substitution2: "Link cons+-Ee-1" Wa.NyEe
Substitution2: "Link cons+-Ai-1" Wa.NyAi
EndChar

StartChar: Tutg.A
Encoding: 20 70528 67
Width: 1141
VWidth: 1000
GlyphClass: 3
Flags: W
HStem: 0 81<426.79 499.937 832.356 965.465> 110 93<96.6286 168.934> 185 81<853.073 938.278> 318 81<101.364 206.934> 421 81<497.176 611.867 795.311 943.782>
VStem: 215 64<242.942 309.718> 510 63<51 151.666> 641 68<216.96 287.375> 762 64<81.9238 157.806> 1048 63<170.353 326.559>
LayerCount: 2
Fore
SplineSet
354 158 m 1xbfc0
 274 145 207 110 130 110 c 0
 109 110 77 158 77 178 c 0
 77 187 77 189 118 203 c 0xdfc0
 154 217 215 244 215 290 c 0
 215 297 214 304 213 310 c 1
 200 316 187 318 173 318 c 0
 149 318 119 310 101 293 c 0
 87 280 100 266 83 266 c 0
 59 266 30 317 30 339 c 0
 30 383 97 399 131 399 c 0
 218 399 276 315 279 234 c 1
 301 239 324 243 346 245 c 1
 350 361 397 502 532 502 c 0
 601 502 659 450 682 387 c 1
 712 467 749 500 837 500 c 0
 1021 500 1111 330 1111 213 c 0
 1111 101 1042 -1 922 -1 c 0
 796 -1 762 116 762 155 c 0
 762 215 806 266 868 266 c 0
 926 266 986 207 1020 163 c 1
 1038 195 1048 232 1048 270 c 0
 1048 378 979 419 878 419 c 0
 746 419 749 310 709 216 c 0
 706 208 705 199 694 199 c 0
 671 199 641 248 641 271 c 0
 641 306 642 379 627 409 c 1
 608 418 595 421 574 421 c 0
 478 421 432 331 416 244 c 1
 434 242 453 239 464 234 c 0
 515 213 573 132 573 76 c 0
 573 26 534 0 487 0 c 0
 415 0 367 100 354 158 c 1xbfc0
909 185 m 0xbfc0
 861 185 826 141 826 96 c 0
 826 94 827 91 827 89 c 0
 842 81 863 80 880 80 c 0
 928 80 968 100 996 131 c 1
 975 156 947 185 909 185 c 0xbfc0
510 133 m 0
 510 157 486 165 410 165 c 1
 411 138 413 109 425 85 c 1
 431 82 438 81 445 81 c 0
 474 81 510 100 510 133 c 0
EndSplineSet
LCarets2: 1 0
EndChar

StartChar: Tutg.Aa
Encoding: 21 70529 68
Width: 1141
VWidth: 1000
GlyphClass: 3
Flags: W
HStem: -160 81<172.236 934.091> 0 81<426.53 499.937 838.326 966.992> 110 93<96.6286 168.428> 195 81<866.582 943.597> 318 81<101.364 206.934> 421 81<497.061 612.085 795.311 943.782>
VStem: 215 64<242.942 309.718> 510 63<51 151.666> 641 68<216.96 287.375> 771 63<84.4402 161.882> 1048 63<167.467 326.559>
LayerCount: 2
Fore
SplineSet
353 158 m 1xdfe0
 272 144 206 110 130 110 c 0
 109 110 77 158 77 178 c 0
 77 187 77 189 118 203 c 0xefe0
 154 217 215 244 215 290 c 0
 215 297 214 304 213 310 c 1
 200 316 187 318 173 318 c 0
 149 318 119 310 101 293 c 0
 87 280 100 266 83 266 c 0
 58 266 30 317 30 339 c 0
 30 383 97 399 131 399 c 0
 218 399 276 314 279 234 c 1
 301 239 324 243 346 245 c 1
 350 361 396 502 532 502 c 0
 601 502 659 450 682 387 c 1
 712 467 749 500 837 500 c 0
 1021 500 1111 330 1111 213 c 0
 1111 161 1096 111 1069 73 c 1
 1080 41 1087 12 1087 -12 c 0
 1087 -174 810 -166 700 -166 c 0
 598 -166 497 -160 395 -160 c 0
 331 -160 156 -160 117 -220 c 0
 112 -228 111 -243 99 -243 c 0
 78 -243 46 -195 46 -175 c 0
 46 -165 54 -151 60 -143 c 0
 108 -80 268 -79 342 -79 c 0
 455 -79 569 -85 682 -85 c 0
 766 -85 1002 -85 1023 28 c 1
 995 10 962 -1 923 -1 c 0
 813 -1 771 100 771 154 c 0
 771 210 814 276 875 276 c 0
 928 276 982 227 1022 166 c 1
 1039 197 1048 233 1048 270 c 0
 1048 378 979 419 878 419 c 0
 746 419 749 310 709 216 c 0
 706 208 705 199 694 199 c 0
 671 199 641 248 641 271 c 0
 641 306 642 378 627 409 c 1
 609 418 595 421 574 421 c 0
 478 421 432 331 416 244 c 1
 434 242 453 239 464 234 c 0
 515 213 573 132 573 76 c 0
 573 26 534 0 487 0 c 0
 415 0 366 100 353 158 c 1xdfe0
834 92 m 0
 834 90 835 89 835 87 c 0
 849 82 865 80 880 80 c 0
 928 80 968 100 996 131 c 1
 980 163 958 195 918 195 c 0xdfe0
 869 195 834 136 834 92 c 0
510 133 m 0
 510 157 486 165 410 165 c 1
 411 138 413 109 425 85 c 1
 431 82 438 81 445 81 c 0
 474 81 510 100 510 133 c 0
EndSplineSet
Ligature2: "Orig CCMP-1" Uml.Conj Uml.Aa
LCarets2: 1 0
EndChar

StartChar: Tutg.I
Encoding: 22 70530 69
Width: 819
VWidth: 1000
GlyphClass: 3
Flags: W
HStem: -14 82<532.582 793.378> -1 80<413.922 782.156> 157 81<121.026 245.918> 415 81<202.692 319.344 449.431 575.34>
VStem: 30 64<247.942 294.438> 250 63<247.666 290.472> 606 63<274.774 391.746>
LayerCount: 2
Fore
SplineSet
223 157 m 0x7e
 85 157 30 268 30 315 c 0
 30 406 156 496 241 496 c 0
 294 496 334 468 365 426 c 1
 388 478 429 500 484 500 c 0
 591 500 669 394 669 293 c 0
 669 261 660 229 643 202 c 0
 575 91 479 142 412 83 c 1
 453 80 494 79 535 79 c 0x7e
 583 79 721 84 760 68 c 0
 785 58 814 26 814 -2 c 0
 814 -10 811 -14 803 -14 c 0xbe
 794 -14 784 -1 672 -1 c 0
 608 -1 432 -9 381 19 c 0
 353 34 323 73 323 106 c 0
 323 118 331 128 337 137 c 0
 400 231 514 164 583 276 c 0
 597 298 606 324 606 350 c 0
 606 363 603 385 597 397 c 0
 591 409 538 419 525 419 c 0
 442 419 413 352 413 281 c 0
 413 271 413 266 402 266 c 0
 395 266 383 275 378 280 c 0
 341 316 354 344 341 387 c 0
 340 390 338 399 336 401 c 0
 327 412 297 415 283 415 c 0
 254 415 215 400 181 378 c 1
 240 356 313 287 313 219 c 0
 313 171 262 157 223 157 c 0x7e
103 295 m 1
 97 283 94 271 94 259 c 1
 120 244 150 238 180 238 c 0
 201 238 250 248 250 276 c 2
 250 278 l 1
 227 298 187 309 157 309 c 0
 146 309 133 308 123 304 c 0
 116 301 109 297 103 295 c 1
EndSplineSet
Ligature2: "Orig CCMP-1" Uml.Conj Uml.I
LCarets2: 1 0
EndChar

StartChar: Tutg.Ii
Encoding: 23 70531 70
Width: 1094
VWidth: 1000
GlyphClass: 3
Flags: W
HStem: -1 80<437.282 793.081> 157 81<121.026 245.918> 415 81<202.692 319.344 450.062 575.34> 448 81<739.5 810.281 906.5 984.888>
VStem: 30 64<247.942 294.438> 250 63<247.666 290.472> 606 63<274.774 391.746> 702 64<390.251 494> 1000 64<306.701 434.036>
LayerCount: 2
Fore
SplineSet
223 157 m 0xef80
 85 157 30 268 30 315 c 0
 30 406 156 496 241 496 c 0
 294 496 334 468 365 426 c 1
 388 478 429 500 484 500 c 0
 591 500 669 394 669 293 c 0
 669 261 660 229 643 202 c 0
 575 91 471 139 414 84 c 1
 450 79 486 79 522 79 c 0
 585 79 799 86 843 68 c 0
 868 58 898 26 898 -2 c 0
 898 -10 895 -14 887 -14 c 0
 886 -14 881 -12 880 -12 c 0
 852 -2 792 -1 706 -1 c 0
 637 -1 445 -7 388 17 c 0
 356 30 323 70 323 106 c 0
 323 118 331 128 337 137 c 0
 400 230 514 164 583 276 c 0
 597 298 606 324 606 350 c 0
 606 363 603 385 597 397 c 0
 591 409 538 419 525 419 c 0
 473 419 434 389 420 339 c 0
 416 325 412 270 411 269 c 0
 409 266 406 266 402 266 c 0
 395 266 383 275 378 280 c 0
 341 316 354 344 341 387 c 0
 340 390 338 399 336 401 c 0
 327 412 297 415 283 415 c 0
 254 415 215 400 181 378 c 1
 240 356 313 287 313 219 c 0
 313 171 262 157 223 157 c 0xef80
781 331 m 0
 752 331 702 420 702 476 c 0
 702 512 722 529 757 529 c 0
 794 529 830 506 849 474 c 1
 865 503 889 529 924 529 c 0
 1000 529 1064 414 1064 343 c 0
 1064 198 980 179 860 148 c 0
 834 142 782 130 771 113 c 0
 766 105 769 93 756 93 c 0
 735 93 703 141 703 161 c 0
 703 249 939 207 989 329 c 0
 998 350 1000 376 1000 399 c 0
 1000 423 998 448 968 448 c 0
 908 448 889 332 862 332 c 0
 841 332 809 380 809 400 c 0
 809 414 811 428 811 442 c 2
 811 447 l 1
 807 448 802 448 798 448 c 0xdf80
 780 448 766 438 766 419 c 0
 766 387 792 367 792 343 c 0
 792 335 789 331 781 331 c 0
103 295 m 1
 97 283 94 271 94 259 c 1
 120 244 150 238 180 238 c 0
 201 238 250 248 250 276 c 2
 250 278 l 1
 227 298 187 309 157 309 c 0
 146 309 134 307 123 304 c 0
 116 301 109 297 103 295 c 1
EndSplineSet
Ligature2: "Orig CCMP-1" Uml.Conj Uml.Ii
LCarets2: 1 0
EndChar

StartChar: Tutg.U
Encoding: 24 70532 71
Width: 535
VWidth: 1000
GlyphClass: 3
Flags: W
HStem: -2 81<249.029 511.375> 237 81<93.743 162.761> 421 81<151.754 263.817>
VStem: 30 63<318.967 385.952> 167 63<276.5 387.662> 307 63<263.295 381.795>
LayerCount: 2
Fore
SplineSet
172 502 m 0
 326 502 370 336 370 286 c 0
 370 213 338 179 288 132 c 0
 273 118 258 105 247 88 c 1
 287 81 327 79 368 79 c 0
 405 79 440 81 477 81 c 0
 498 81 530 33 530 13 c 0
 530 9 529 5 526 2 c 0
 523 -1 422 -2 409 -2 c 0
 361 -2 287 -2 245 21 c 0
 212 39 178 88 178 127 c 0
 178 202 307 227 307 342 c 0
 307 362 300 381 292 399 c 1
 271 414 239 421 213 421 c 0
 204 421 195 420 187 419 c 1
 212 381 230 335 230 301 c 0
 230 252 193 237 150 237 c 0
 87 237 30 315 30 374 c 0
 30 462 89 502 172 502 c 0
148 406 m 2
 139 406 137 396 128 395 c 1
 107 379 93 354 93 320 c 1
 98 319 103 318 108 318 c 0
 132 318 167 328 167 358 c 0
 167 373 159 394 150 406 c 1
 148 406 l 2
EndSplineSet
Ligature2: "Orig CCMP-1" Uml.Conj Uml.U
LCarets2: 1 0
EndChar

StartChar: Tutg.Uu
Encoding: 25 70533 72
Width: 547
VWidth: 1000
GlyphClass: 3
Flags: W
HStem: -273 81<353.76 450.746> -173 81<331.438 410> -1 82<484 509.355> 237 81<93.743 162.761> 421 81<151.754 263.817>
VStem: 30 63<318.967 385.952> 167 63<276.5 387.662> 251 80<-92 -41.0029> 307 63<263.295 381.795> 390 63<-82.4994 -22.6563> 478 64<-165.407 -55.9534>
LayerCount: 2
Fore
SplineSet
276 9 m 1xff60
 185 34 178 124 178 127 c 0
 178 202 307 227 307 342 c 0
 307 362 300 381 292 399 c 1
 271 414 239 421 213 421 c 0
 204 421 195 420 187 419 c 1
 212 381 230 335 230 301 c 0
 230 252 193 237 150 237 c 0
 87 237 30 315 30 374 c 0
 30 462 89 502 172 502 c 0
 326 502 370 336 370 286 c 0xfee0
 370 213 338 179 288 132 c 0
 273 118 258 105 247 88 c 1
 287 81 327 79 368 79 c 0
 405 79 440 81 477 81 c 0
 498 81 530 33 530 13 c 0
 530 1 530 1 484 -1 c 1
 519 -46 542 -106 542 -159 c 0
 542 -227 496 -273 428 -273 c 0
 339 -273 251 -161 251 -76 c 0
 251 -42 259 -16 276 9 c 1xff60
382 -173 m 0
 358 -173 334 -158 314 -137 c 1
 315 -146 319 -157 322 -165 c 1
 343 -183 358 -192 387 -192 c 0
 439 -192 478 -155 478 -103 c 0
 478 -75 471 -41 450 -22 c 1
 453 -36 453 -50 453 -67 c 0
 453 -113 438 -173 382 -173 c 0
148 406 m 2
 139 406 137 396 128 395 c 1
 107 379 93 354 93 320 c 1
 98 319 103 318 108 318 c 0
 132 318 167 328 167 358 c 0
 167 373 159 394 150 406 c 1
 148 406 l 2
331 -91 m 1xff60
 334 -92 337 -92 340 -92 c 0
 377 -92 389 -47 390 -17 c 1
 360 -30 331 -63 331 -90 c 2
 331 -91 l 1xff60
EndSplineSet
Ligature2: "Orig CCMP-1" Uml.Conj Uml.Uu
LCarets2: 1 0
EndChar

StartChar: Tutg.VocR
Encoding: 26 70534 73
Width: 591
VWidth: 1000
GlyphClass: 3
Flags: W
HStem: -3 81<200.427 334.294> 422 80<103.637 206.545 435.061 500.143>
VStem: 25 64<336.797 407.489> 213 64<366.125 418.333> 324 63<297.797 376.451> 368 63<108.442 157.217> 503 63<310.066 416.898>
LayerCount: 2
Fore
SplineSet
158 252 m 1xf6
 153 252 25 300 25 405 c 0
 25 468 58 502 121 502 c 0
 224 502 277 412 277 358 c 0
 277 334 267 313 252 296 c 1
 288 286 321 273 351 249 c 1
 361 252 370 255 380 258 c 1
 348 290 324 332 324 376 c 0xfa
 324 439 384 499 447 499 c 0
 483 499 566 453 566 322 c 0
 566 258 552 218 411 171 c 1
 422 147 431 120 431 95 c 0
 431 18 338 -3 277 -3 c 0
 255 -3 230 0 210 10 c 0
 176 27 135 94 135 132 c 0
 135 180 193 203 263 224 c 1
 228 233 192 240 158 252 c 1xf6
434 280 m 1
 488 308 503 330 503 389 c 0
 503 398 502 408 500 417 c 0
 496 418 493 418 489 418 c 0
 444 418 387 365 387 319 c 0
 387 315 388 311 388 307 c 0
 401 291 417 288 434 280 c 1
163 422 m 0
 117 422 89 396 89 349 c 2
 89 347 l 1
 99 341 110 336 120 332 c 1
 128 334 139 337 143 338 c 0
 173 348 212 378 213 413 c 1
 197 419 180 422 163 422 c 0
200 81 m 1
 212 79 224 78 236 78 c 0
 279 78 368 96 368 152 c 2
 368 158 l 1xf6
 286 134 209 115 200 81 c 1
EndSplineSet
Ligature2: "Orig CCMP-1" Uml.Conj Uml.VocR
LCarets2: 1 0
EndChar

StartChar: Tutg.E
Encoding: 115 -1 74
Width: 788
VWidth: 1000
GlyphClass: 3
Flags: W
HStem: 0 81<418.156 487.063> 110 93<83.8574 157.454> 318 81<88.341 193.934> 417 81<504.978 644.421>
VStem: 202 64<242.942 309.718> 350 59<84.0363 160> 497 63<51 151.677> 716 64<124.819 345.722>
LayerCount: 2
Fore
SplineSet
70 266 m 0
 46 266 17 317 17 339 c 0
 17 383 84 399 118 399 c 0
 205 399 263 315 266 234 c 1
 293 240 320 244 347 245 c 1
 355 338 398 457 486 490 c 0
 505 497 525 498 545 498 c 0
 693 498 780 357 780 221 c 0
 780 156 767 95 746 34 c 0
 743 25 739 5 727 5 c 0
 706 5 674 53 674 73 c 0
 674 79 694 131 697 142 c 0
 710 186 716 232 716 278 c 0
 716 306 711 351 696 375 c 0
 676 407 621 417 586 417 c 0
 567 417 547 415 529 407 c 0
 471 380 436 310 419 242 c 1
 432 240 443 237 451 234 c 0
 502 213 560 132 560 76 c 0
 560 26 521 0 474 0 c 0
 455 0 436 10 421 22 c 0
 379 56 358 107 350 160 c 1
 328 157 307 152 286 146 c 0
 231 131 175 110 117 110 c 0
 96 110 64 158 64 178 c 0
 64 182 65 187 68 189 c 0
 71 191 99 201 105 203 c 0
 141 217 202 244 202 290 c 0
 202 297 201 304 200 310 c 1
 187 316 174 318 160 318 c 0
 136 318 105 310 88 293 c 0
 74 280 87 266 70 266 c 0
409 165 m 1
 409 162 409 160 409 157 c 0
 409 134 410 105 419 83 c 0
 423 81 428 81 433 81 c 0
 462 81 497 100 497 133 c 0
 497 157 473 159 455 162 c 0
 440 164 426 165 409 165 c 1
EndSplineSet
LCarets2: 1 414
Ligature2: "Orig CCMP-1" Uml.Ee Uml.Conj
EndChar

StartChar: Tutg.Ee
Encoding: 30 70539 75
Width: 822
VWidth: 1000
GlyphClass: 3
Flags: W
HStem: -131 81<-164.065 586.348> 0 81<431.546 500.063> 110 93<96.6286 167.164> 318 81<101.364 206.934> 417 81<518.161 658.497>
VStem: 215 64<242.942 309.718> 363 59<84.0363 160> 510 63<51 151.714> 729 63<103.009 342.503>
LayerCount: 2
Fore
SplineSet
363 160 m 1
 285 149 210 110 130 110 c 0
 109 110 77 158 77 178 c 0
 77 187 77 189 118 203 c 0
 154 217 215 244 215 290 c 0
 215 297 214 304 213 310 c 1
 200 316 187 318 173 318 c 0
 149 318 119 310 101 293 c 0
 87 280 100 266 83 266 c 0
 58 266 30 317 30 339 c 0
 30 383 97 399 131 399 c 0
 218 399 276 315 279 234 c 1
 306 240 333 244 360 245 c 1
 368 338 411 458 499 490 c 0
 518 497 539 498 559 498 c 0
 709 498 792 351 792 216 c 0
 792 149 771 -5 725 -57 c 0
 657 -136 462 -136 364 -136 c 0
 266 -136 168 -131 70 -131 c 0
 -25 -131 -182 -131 -219 -194 c 0
 -224 -203 -222 -214 -235 -214 c 0
 -256 -214 -288 -166 -288 -146 c 0
 -288 -138 -281 -124 -276 -117 c 0
 -230 -50 -63 -50 11 -50 c 0
 114 -50 217 -55 319 -55 c 0
 410 -55 602 -55 665 17 c 0
 707 63 729 212 729 272 c 0
 729 302 722 360 702 383 c 0
 679 408 633 417 601 417 c 0
 572 417 476 417 432 242 c 1
 445 240 456 237 464 234 c 0
 515 213 573 132 573 76 c 0
 573 26 534 0 487 0 c 0
 449 0 380 47 363 160 c 1
422 165 m 1
 422 157 l 2
 422 134 423 105 432 83 c 0
 436 81 441 81 446 81 c 0
 475 81 510 100 510 133 c 0
 510 144 510 165 422 165 c 1
EndSplineSet
Ligature2: "Orig CCMP-1" E Uml.Conj
Ligature2: "Orig CCMP-1" F Uml.Conj
LCarets2: 1 0
EndChar

StartChar: Tutg.Ai
Encoding: 31 70542 76
Width: 1200
VWidth: 1000
GlyphClass: 3
Flags: W
HStem: -131 81<213.935 963.72> 0 81<809.546 878.063> 110 93<474.629 545.164> 252 81<99.2728 224.326> 318 81<479.364 584.934> 417 81<127.004 238.637 896.161 1036.09>
VStem: 30 64<335.322 385.262> 281 64<200.147 372.041> 593 64<242.942 309.718> 741 59<84.0363 160> 888 63<51 151.714> 1106 64<103.065 342.384>
LayerCount: 2
Fore
SplineSet
741 160 m 1xeff0
 663 149 588 110 508 110 c 0
 487 110 455 158 455 178 c 0
 455 187 455 189 496 203 c 0
 532 217 593 244 593 290 c 0
 593 297 592 304 591 310 c 1
 578 316 565 318 551 318 c 0
 527 318 497 310 479 293 c 0
 465 280 478 266 461 266 c 0
 436 266 408 317 408 339 c 0
 408 383 475 399 509 399 c 0
 596 399 654 314 657 234 c 1
 684 240 711 244 738 245 c 1
 746 338 789 458 877 490 c 0
 896 497 917 498 937 498 c 0
 1087 498 1170 351 1170 216 c 0
 1170 147 1148 -2 1102 -57 c 0
 1034 -136 839 -136 741 -136 c 0
 643 -136 546 -131 448 -131 c 0
 353 -131 196 -131 159 -194 c 0
 154 -203 156 -214 143 -214 c 0
 122 -214 90 -166 90 -146 c 0
 90 -138 97 -124 102 -117 c 0
 148 -50 315 -50 389 -50 c 0
 491 -50 594 -55 696 -55 c 0
 787 -55 979 -55 1043 17 c 0
 1084 62 1106 214 1106 272 c 0
 1106 300 1100 358 1083 380 c 0
 1060 408 1014 417 979 417 c 0
 950 417 854 417 810 242 c 1
 823 240 834 237 842 234 c 0
 893 213 951 132 951 76 c 0
 951 26 912 0 865 0 c 0
 827 0 758 47 741 160 c 1xeff0
182 252 m 0xf7f0
 82 252 30 346 30 389 c 0
 30 458 96 498 159 498 c 0
 244 498 308 418 331 343 c 0
 342 308 345 271 345 234 c 0
 345 152 302 99 254 38 c 0
 247 29 236 9 225 9 c 0
 204 9 172 57 172 77 c 0
 172 99 281 186 281 291 c 0
 281 317 278 363 267 387 c 0
 256 411 225 417 201 417 c 0
 160 417 97 387 94 341 c 1
 108 335 124 333 139 333 c 0
 167 333 195 352 202 352 c 0
 223 352 255 304 255 284 c 0
 255 261 199 252 182 252 c 0xf7f0
800 165 m 1
 800 157 l 2
 800 134 801 105 810 83 c 0
 814 81 819 81 824 81 c 0
 853 81 888 100 888 133 c 0
 888 144 888 165 800 165 c 1
EndSplineSet
Ligature2: "Orig CCMP-1" Uml.Ee Uml.Ee Uml.Conj
LCarets2: 2 0 0
EndChar

StartChar: e_A_a
Encoding: 116 -1 77
Width: 407
VWidth: 1000
GlyphClass: 3
Flags: W
HStem: 0 81<124.221 269.103> 256 81<79.6739 144.641> 433 81<161.994 289.126>
VStem: 14 64<340.56 445> 330 63<135.922 173 325.236 408.708>
LayerCount: 2
Fore
SplineSet
36 100 m 0
 25 114 10 135 10 153 c 0
 10 161 13 165 21 165 c 0
 52 165 63 81 180 81 c 0
 227 81 286 105 312 145 c 0
 317 153 323 163 323 173 c 2
 322 176 l 1
 310 183 296 189 285 197 c 0
 269 209 247 238 247 259 c 0
 247 261 248 266 249 268 c 0
 254 275 265 282 272 288 c 0
 300 314 330 351 330 390 c 0
 330 395 329 400 328 405 c 0
 305 426 263 433 233 433 c 0
 228 433 223 433 216 432 c 1
 225 415 230 396 230 379 c 0
 230 348 213 283 184 266 c 0
 170 258 153 256 137 256 c 0
 73 256 14 349 14 407 c 0
 14 483 131 514 190 514 c 0
 269 514 337 473 374 403 c 0
 385 382 393 358 393 334 c 0
 393 291 369 248 338 220 c 1
 363 198 386 149 386 116 c 0
 386 42 287 0 224 0 c 0
 145 0 83 39 36 100 c 0
78 350 m 0
 78 347 78 344 79 341 c 0
 84 339 90 337 96 337 c 0
 105 337 122 339 129 344 c 0
 149 357 161 397 166 419 c 1
 164 419 163 419 161 419 c 0
 119 406 78 382 78 350 c 0
EndSplineSet
Ligature2: "Orig CCMP-1" Uml.Ee Uml.Conj Uml.Aa
LCarets2: 2 0 204
EndChar

StartChar: E_A_a
Encoding: 117 -1 78
Width: 412
VWidth: 1000
GlyphClass: 3
Flags: W
HStem: 157 81<98.7602 164.945> 256 81<84.6739 149.641> 430 81<222 282.114>
VStem: 19 64<81.877 141.149 340.56 406.654> 172 62<78.5703 153.524> 329 64<72.1995 196.511 319.222 402.692>
LayerCount: 2
Fore
SplineSet
142 256 m 0
 78 256 19 349 19 407 c 0
 19 422 24 437 32 449 c 0
 49 475 108 500 138 506 c 0
 156 510 174 511 192 511 c 0
 268 511 336 461 372 396 c 0
 384 374 393 349 393 323 c 0
 393 285 374 252 347 227 c 1
 372 195 393 155 393 114 c 0
 393 32 307 -17 233 -17 c 0
 156 -17 66 23 32 95 c 0
 25 110 19 127 19 144 c 0
 19 190 51 238 101 238 c 0
 118 238 135 234 150 226 c 0
 194 201 229 124 234 71 c 1
 282 85 329 121 329 171 c 0
 329 187 326 193 314 204 c 0
 309 209 302 213 296 218 c 0
 282 230 264 256 264 275 c 0
 264 277 265 282 266 284 c 0
 269 288 279 294 283 298 c 0
 307 317 329 348 329 380 c 0
 329 385 328 393 326 398 c 0
 314 422 247 430 222 430 c 1
 230 413 235 396 235 379 c 0
 235 348 218 283 189 266 c 0
 175 258 158 256 142 256 c 0
83 93 m 1
 97 85 111 79 125 74 c 1
 141 79 172 74 172 119 c 0
 172 125 168 150 164 154 c 0
 161 157 149 157 145 157 c 0
 116 157 83 124 83 95 c 2
 83 93 l 1
83 350 m 0
 83 347 83 344 84 341 c 0
 89 339 95 337 101 337 c 0
 109 337 127 339 134 344 c 0
 154 358 166 396 171 419 c 1
 169 419 168 419 166 419 c 0
 130 408 83 385 83 350 c 0
EndSplineSet
LCarets2: 2 0 225
Ligature2: "Orig CCMP-1" E Uml.Conj Uml.Aa
Ligature2: "Orig CCMP-1" F Uml.Conj Uml.Aa
EndChar

StartChar: A_Y
Encoding: 118 -1 79
Width: 861
VWidth: 1000
GlyphClass: 3
Flags: W
HStem: 157 81<93.7602 159.945> 256 81<79.6739 144.641> 421 81<472.102 555.88 684.919 753.633> 430 81<217 277.114>
VStem: 14 64<81.877 141.149 340.56 406.654> 167 62<78.5703 153.524> 324 64<72.1995 196.511 319.222 402.692> 428 64<21.9225 38.5611 349.193 461.5> 780 64<245.503 392.28>
LayerCount: 2
Fore
SplineSet
27 95 m 0xdf80
 20 110 14 127 14 144 c 0
 14 190 46 238 96 238 c 0
 113 238 130 234 145 226 c 0
 189 201 224 124 229 71 c 1
 277 85 324 121 324 171 c 0
 324 187 321 193 309 204 c 0
 304 209 297 213 291 218 c 0
 277 230 259 256 259 275 c 0
 259 277 260 282 261 284 c 0
 264 288 274 294 278 298 c 0
 302 317 324 348 324 380 c 0
 324 385 323 393 321 398 c 0
 309 422 242 430 217 430 c 1
 225 413 230 396 230 379 c 0
 230 348 213 283 184 266 c 0
 170 258 153 256 137 256 c 0
 73 256 14 349 14 407 c 0
 14 422 19 437 27 449 c 0
 44 475 103 500 133 506 c 0
 151 510 169 511 187 511 c 0
 263 511 331 461 367 396 c 0
 379 374 388 349 388 323 c 0
 388 285 369 252 342 227 c 1
 367 195 388 155 388 114 c 0
 388 32 302 -17 228 -17 c 0
 151 -17 61 23 27 95 c 0xdf80
428 441 m 0
 428 482 451 502 491 502 c 0
 536 502 579 473 599 433 c 1
 618 467 646 502 689 502 c 0
 775 502 844 375 844 295 c 0
 844 252 836 200 810 165 c 0
 734 63 514 75 493 15 c 0
 490 7 494 2 482 2 c 0
 461 2 429 50 429 70 c 0
 429 156 668 142 744 230 c 0
 773 263 780 309 780 351 c 0
 780 384 773 421 732 421 c 0
 662 421 637 284 608 284 c 0
 587 284 555 332 555 352 c 0
 555 368 557 385 557 401 c 0
 557 407 556 412 556 418 c 1
 548 420 540 421 532 421 c 0xef80
 509 421 492 410 492 385 c 0
 492 345 523 320 523 295 c 0
 523 287 520 283 512 283 c 0
 506 283 497 289 493 292 c 0
 459 319 428 398 428 441 c 0
140 157 m 0
 111 157 78 124 78 95 c 2
 78 93 l 1
 92 85 106 79 120 74 c 1
 136 79 167 74 167 119 c 0
 167 125 163 150 159 154 c 0
 156 157 144 157 140 157 c 0
78 350 m 0
 78 347 78 344 79 341 c 0
 84 339 90 337 96 337 c 0
 104 337 122 339 129 344 c 0
 149 358 161 396 166 419 c 1
 164 419 163 419 161 419 c 0
 125 408 78 385 78 350 c 0
EndSplineSet
Ligature2: "Orig CCMP-1" Uml.Conj Uml.Length
Ligature2: "Orig CCMP-1" Uml.Ee Uml.Conj Uml.Length
LCarets2: 2 0 405
EndChar

StartChar: Syl.K_Ss
Encoding: 119 -1 80
Width: 1362
VWidth: 1000
GlyphClass: 3
Flags: W
HStem: 0 81<204 261.847 468.189 521.985 772 833 1025 1248.29> 407 81<1056.54 1154.61> 423 81<183.247 319.536 512.067 638.145>
VStem: 30 62<258.67 337.495> 140 64<85.169 181.665> 577 63<150.883 289.812> 716 64<81.0963 325.044> 983 64<329.796 442.5>
AnchorPoint: "Rakar" 941 44 basechar 0
AnchorPoint: "VocR" 1342 85 basechar 0
AnchorPoint: "U" 1187 47 basechar 0
LayerCount: 2
Fore
SplineSet
251 1 m 0xdf
 208 1 140 69 140 157 c 0
 140 253 232 357 320 422 c 1
 310 423 300 423 291 423 c 0
 197 423 107 376 95 277 c 0
 94 269 95 250 92 243 c 0
 90 240 86 240 83 240 c 0
 62 240 30 288 30 308 c 0
 30 439 126 504 249 504 c 0xbf
 303 504 357 494 407 474 c 1
 448 494 494 507 540 507 c 0
 681 507 780 355 780 177 c 0
 780 144 777 112 772 80 c 1
 904 77 l 1
 958 137 1010 200 1060 263 c 1
 1021 299 983 360 983 415 c 0
 983 470 1037 488 1083 488 c 0
 1186 488 1222 405 1222 375 c 0
 1222 325 1203 286 1172 249 c 1
 1232 219 1299 190 1330 129 c 0
 1337 116 1342 100 1342 85 c 0
 1342 57 1317 33 1294 22 c 0
 1240 -5 1103 -6 1040 -6 c 0
 1012 -6 984 -5 957 -5 c 1
 935 -30 764 -213 737 -213 c 0
 716 -213 684 -165 684 -145 c 0
 684 -143 685 -138 686 -136 c 0
 692 -128 704 -122 712 -115 c 0
 743 -90 781 -53 833 -1 c 1
 812 0 791 0 770 0 c 0
 763 0 748 -1 742 1 c 0
 716 11 693 54 693 70 c 0
 693 104 716 121 716 233 c 0
 716 272 708 340 689 374 c 0
 667 414 624 426 581 426 c 0
 558 426 535 422 511 415 c 1
 577 364 640 278 640 191 c 0
 640 90 579 18 551 6 c 0
 540 1 532 0 520 0 c 0
 476 0 420 71 400 106 c 1
 365 66 309 1 251 1 c 0xdf
450 391 m 1
 315 324 203 184 203 101 c 0
 203 95 204 90 204 84 c 2
 204 82 l 1
 209 82 l 2
 248 82 304 139 329 167 c 0
 339 178 349 193 360 202 c 0
 362 204 365 203 367 203 c 0
 407 203 441 81 479 81 c 0
 523 81 577 172 577 247 c 0
 577 316 519 363 450 391 c 1
1136 208 m 1
 1125 197 1070 128 1025 75 c 1
 1195 78 1252 91 1275 132 c 1
 1229 161 1180 182 1136 208 c 1
1124 407 m 0xdf
 1092 407 1047 395 1047 355 c 0
 1047 327 1069 312 1089 297 c 1
 1134 348 1145 360 1155 404 c 1
 1145 406 1134 407 1124 407 c 0xdf
EndSplineSet
Ligature2: "Subj ligs-1" Tutg.K Uml.Conj Tutg.Ss
Substitution2: "Link cons+-Ee-1" Wa.K_SsEe
Substitution2: "Link cons+-Ai-1" Wa.K_SsAi
LCarets2: 2 0 745
Colour: ccffcf
EndChar

StartChar: Syl.BU
Encoding: 120 -1 81
Width: 1186
VWidth: 1000
GlyphClass: 3
Flags: W
HStem: -1 82<438 683 1029 1161.07> 420 80<208.892 394.047 705.298 885.001>
VStem: 30 64<143.045 315.211> 437 63<217.031 383.766> 587 63<205.026 364.829> 993 64<150.18 330.092>
LayerCount: 2
Fore
SplineSet
152 0 m 0
 121 0 30 144 30 264 c 0
 30 434 143 500 300 500 c 0
 446 500 500 355 500 283 c 0
 500 218 479 133 438 81 c 1
 683 81 l 1
 623 152 587 246 587 339 c 0
 587 437 646 499 745 499 c 0
 788 499 832 495 873 480 c 0
 991 438 1057 327 1057 206 c 0
 1057 163 1045 120 1029 80 c 1
 1062 80 1095 81 1128 81 c 0
 1149 81 1181 33 1181 13 c 0
 1181 -4 1161 -1 1149 -1 c 2
 977 -1 l 2
 956 -1 924 47 924 67 c 0
 924 70 925 74 926 76 c 0
 930 83 935 88 939 94 c 0
 969 139 993 210 993 263 c 0
 993 294 991 327 974 355 c 0
 944 406 841 419 787 419 c 0
 705 419 650 364 650 282 c 0
 650 221 669 147 715 104 c 0
 731 89 752 83 768 69 c 0
 782 57 800 31 800 12 c 0
 800 4 797 0 789 0 c 2
 670 -1 l 2
 641 -1 341 -1 335 2 c 0
 314 11 287 46 287 69 c 0
 287 73 288 78 291 80 c 0
 300 86 311 90 320 96 c 0
 395 145 437 253 437 340 c 0
 437 353 433 381 426 392 c 0
 412 414 366 420 342 420 c 0
 203 420 94 359 94 207 c 0
 94 166 108 121 126 84 c 0
 137 63 163 36 163 12 c 0
 163 4 160 0 152 0 c 0
EndSplineSet
Ligature2: "Base vowel-1" Tutg.Bh Uml.U
LCarets2: 1 798
Colour: ffff00
EndChar

StartChar: Syl.BUu
Encoding: 121 -1 82
Width: 1097
VWidth: 1000
GlyphClass: 3
Flags: W
HStem: -242 81<467.62 1051.29> -129 81<473.35 895.157> 2 79<438 682> 420 80<208.892 394.104 712.832 912.93>
VStem: 30 64<142.823 315.211> 437 63<217.031 383.766> 587 64<200.023 356.923> 1002 63<48.1129 148.988 276 357.869>
LayerCount: 2
Fore
SplineSet
152 0 m 0
 121 0 30 143 30 264 c 0
 30 434 143 500 300 500 c 0
 446 500 500 355 500 283 c 0
 500 218 479 133 438 81 c 1
 682 81 l 1
 623 149 587 241 587 331 c 0
 587 410 632 477 711 495 c 0
 737 501 763 501 790 501 c 0
 957 501 1057 374 1057 297 c 0
 1057 255 1033 223 998 202 c 1
 1038 167 1065 111 1065 58 c 0
 1065 -36 972 -105 888 -123 c 0
 860 -129 832 -130 804 -130 c 2
 608 -129 l 2
 567 -129 494 -123 466 -161 c 1
 649 -159 831 -155 1014 -155 c 0
 1035 -155 1067 -203 1067 -223 c 0
 1067 -239 1052 -236 1040 -236 c 0
 854 -236 668 -242 482 -242 c 0
 438 -242 394 -167 394 -128 c 0
 394 -59 470 -48 523 -48 c 0
 588 -48 655 -49 720 -49 c 0
 812 -49 896 -48 962 27 c 0
 982 49 1002 84 1002 115 c 0
 1002 142 1000 148 974 160 c 0
 934 178 914 168 889 213 c 0
 884 222 879 233 879 243 c 0
 879 247 880 252 883 254 c 0
 887 257 912 264 920 268 c 0
 955 284 994 312 994 354 c 0
 994 387 904 420 832 420 c 0
 762 420 697 410 665 339 c 0
 656 320 651 295 651 274 c 0
 651 210 670 140 721 98 c 0
 732 89 745 84 757 77 c 0
 776 66 800 34 800 12 c 0
 800 4 797 0 789 0 c 2
 670 -1 l 2
 641 -1 341 -1 335 2 c 0
 314 11 287 46 287 69 c 0
 287 73 288 78 291 80 c 0
 300 86 311 90 320 96 c 0
 395 145 437 253 437 340 c 0
 437 353 433 381 426 392 c 0
 413 414 365 420 342 420 c 0
 203 420 94 359 94 207 c 0
 94 166 108 121 126 84 c 0
 137 63 163 36 163 12 c 0
 163 4 160 0 152 0 c 0
EndSplineSet
Ligature2: "Base vowel-1" Tutg.Bh Uml.Uu
LCarets2: 1 794
Colour: ffff00
EndChar

StartChar: Syl.ChU
Encoding: 122 -1 83
Width: 992
VWidth: 1000
GlyphClass: 3
Flags: W
HStem: -241 80<378.708 906.244> -124 81<392.837 880.825> -4 81<141.123 216.156 446.788 484.649 716.118 789.243> 169 81<141.052 248.903 698.155 810.667> 414 81<200.864 345.119 602.191 750.157>
VStem: 249 64<112.635 166.778> 382 63<78.0176 390.819> 495 64<83.5134 367.864> 629 63<94.3255 199> 848 64<187.5 312.299> 913 64<-10.1935 102.114>
LayerCount: 2
Fore
SplineSet
205 -4 m 0
 129 -4 30 117 30 248 c 0
 30 374 113 495 248 495 c 0
 345 495 414 434 439 343 c 0
 448 310 450 275 450 240 c 0
 450 196 445 152 445 108 c 0
 445 97 446 88 447 77 c 1
 448 77 l 2
 492 77 495 133 495 165 c 0
 495 209 491 253 491 297 c 0
 491 413 520 496 652 496 c 0
 802 496 912 331 912 193 c 0
 912 182 911 171 910 160 c 1
 950 119 977 63 977 8 c 0
 977 -49 949 -105 891 -122 c 0
 879 -126 860 -125 847 -125 c 0
 737 -125 626 -124 516 -124 c 0
 470 -124 413 -126 378 -159 c 1
 377 -161 l 1
 426 -161 870 -159 878 -162 c 0
 899 -171 926 -206 926 -229 c 0
 926 -237 923 -241 915 -241 c 2
 389 -241 l 2
 345 -241 301 -169 301 -130 c 0
 301 -47 420 -43 478 -43 c 0
 587 -43 696 -44 805 -44 c 0
 821 -44 836 -44 851 -38 c 0
 892 -22 913 22 913 64 c 0
 913 82 911 99 900 112 c 1
 883 60 839 -3 778 -3 c 0
 704 -3 629 106 629 175 c 0
 629 223 657 251 705 251 c 0
 749 251 806 230 845 208 c 1
 847 222 848 236 848 249 c 0
 848 348 797 416 694 416 c 0
 579 416 555 339 555 240 c 0
 555 196 559 153 559 109 c 0
 559 62 552 -4 491 -4 c 0
 443 -4 402 53 390 94 c 0
 383 117 382 141 382 165 c 0
 382 209 386 252 386 296 c 0
 386 330 386 361 373 393 c 1
 369 397 349 414 291 414 c 0
 185 414 111 325 97 227 c 1
 131 241 159 250 196 250 c 0
 260 250 313 178 313 118 c 0
 313 61 266 -4 205 -4 c 0
748 170 m 0
 716 170 692 152 692 119 c 0
 692 91 710 78 736 78 c 0
 776 78 808 118 826 152 c 1
 801 163 775 170 748 170 c 0
237 169 m 0
 176 169 123 131 108 131 c 0
 106 131 104 131 102 132 c 1
 111 102 129 77 163 77 c 0
 210 77 240 126 249 167 c 1
 249 168 l 1
 245 169 241 169 237 169 c 0
EndSplineSet
Ligature2: "Base vowel-1" Tutg.Ch Uml.U
LCarets2: 1 782
Colour: ffff00
EndChar

StartChar: Syl.ChUu
Encoding: 123 -1 84
Width: 1081
VWidth: 1000
GlyphClass: 3
Flags: W
HStem: -244 80<437.035 1027.17> -127 81<445.55 982.263> -4 81<141.123 216.156 446.788 484.649 734.421 817.129> 169 81<141.052 248.903> 212 81<751.315 844.656> 414 81<200.864 345.119 602.191 750.605>
VStem: 249 64<112.635 166.778> 382 63<78.0176 390.819> 495 64<83.5134 367.864> 659 64<83.6937 182.355> 1001 65<-26.2552 14.3086>
LayerCount: 2
Fore
SplineSet
205 -4 m 0xf7e0
 129 -4 30 117 30 248 c 0
 30 374 113 495 248 495 c 0
 345 495 414 434 439 343 c 0
 448 310 450 275 450 240 c 0
 450 196 445 152 445 108 c 0
 445 97 446 88 447 77 c 1
 448 77 l 2
 492 77 495 133 495 165 c 0
 495 209 491 253 491 297 c 0
 491 413 520 496 652 496 c 0
 777 496 874 381 904 263 c 1
 1050 223 1053 120 1053 118 c 0
 1053 90 1040 65 1021 45 c 1
 1043 21 1066 -13 1066 -47 c 0
 1066 -117 971 -128 919 -128 c 0
 806 -128 692 -127 579 -127 c 0
 537 -127 465 -130 434 -161 c 1
 450 -163 467 -164 483 -164 c 2
 918 -164 l 2
 931 -164 990 -162 998 -165 c 0
 1019 -172 1046 -210 1046 -232 c 0
 1046 -240 1043 -244 1035 -244 c 2
 509 -244 l 2
 385 -244 359 -145 359 -123 c 0
 359 -53 483 -46 532 -46 c 0
 646 -46 761 -47 875 -47 c 0
 916 -47 984 -42 1001 3 c 1
 1001 4 l 1
 990 9 978 13 968 20 c 0
 952 32 930 62 930 82 c 0
 930 85 931 89 932 91 c 0
 935 95 979 126 989 164 c 1
 970 177 935 185 912 190 c 1
 912 82 845 0 788 0 c 0
 718 0 659 106 659 168 c 0
 659 242 698 293 775 293 c 0xefe0
 792 293 819 289 846 283 c 1
 835 363 785 416 694 416 c 0
 579 416 555 339 555 240 c 0
 555 196 559 153 559 109 c 0
 559 62 552 -4 491 -4 c 0
 443 -4 402 53 390 94 c 0
 383 117 382 141 382 165 c 0
 382 209 386 252 386 296 c 0
 386 330 386 361 373 393 c 1
 369 397 349 414 291 414 c 0
 185 414 111 325 97 227 c 1
 131 241 159 250 196 250 c 0
 260 250 313 178 313 118 c 0
 313 61 266 -4 205 -4 c 0xf7e0
723 114 m 0
 723 107 725 88 729 83 c 0
 730 81 741 81 744 81 c 0
 796 81 839 162 845 210 c 1
 836 211 827 212 818 212 c 0
 759 212 723 172 723 114 c 0
237 169 m 0xf7e0
 176 169 123 131 108 131 c 0
 106 131 104 131 102 132 c 1
 111 102 129 77 163 77 c 0
 210 77 240 126 249 167 c 1
 249 168 l 1
 245 169 241 169 237 169 c 0xf7e0
EndSplineSet
Ligature2: "Base vowel-1" Tutg.Ch Uml.Uu
LCarets2: 1 790
Colour: ffff00
EndChar

StartChar: Syl.NnU
Encoding: 124 -1 85
Width: 1255
VWidth: 1000
GlyphClass: 3
Flags: W
HStem: 2 81<138.516 246.533 1115 1226.86> 181 81<153.438 235.988> 422 80<192.508 356.368 559.207 687.073 894.973 999.585>
VStem: 261 64<55 166.992> 420 66<22.9069 331.194> 765 63<16.8181 315.984> 1073 64<135.393 348.449>
LayerCount: 2
Fore
SplineSet
817 0 m 0
 816 0 772 12 764 73 c 1
 764 79 l 2
 764 115 764 151 765 187 c 0
 763 259 752 378 710 404 c 0
 688 417 662 422 637 422 c 0
 521 422 492 306 486 206 c 1
 486 166 l 2
 486 127 485 89 486 50 c 0
 487 37 488 25 488 12 c 0
 488 4 485 0 477 0 c 0
 466 0 437 23 426 57 c 0
 420 79 420 176 420 203 c 0
 420 222 421 244 422 268 c 0
 420 322 413 376 394 393 c 0
 367 416 309 422 274 422 c 0
 170 422 112 326 97 233 c 1
 117 250 140 262 167 262 c 0
 245 262 325 160 325 86 c 0
 325 24 273 2 219 2 c 0
 101 2 30 140 30 244 c 0
 30 365 94 502 232 502 c 0
 326 502 396 475 445 389 c 1
 471 463 515 502 595 502 c 0
 687 502 748 441 785 362 c 1
 799 424 827 500 902 500 c 0
 1057 500 1137 361 1137 220 c 0
 1137 172 1128 124 1115 78 c 1
 1131 78 1147 79 1163 79 c 0
 1201 79 1212 82 1235 47 c 0
 1242 37 1250 22 1250 10 c 0
 1250 2 1247 -2 1239 -2 c 2
 1072 -2 l 2
 1051 -2 1019 46 1019 66 c 0
 1019 77 1073 153 1073 276 c 0
 1073 374 1052 419 946 419 c 0
 853 419 833 251 828 141 c 0
 829 124 829 107 829 91 c 0
 829 82 829 45 828 21 c 1
 828 17 l 1
 826 0 826 0 817 0 c 0
112 105 m 1
 129 88 155 83 177 83 c 0
 214 83 261 99 261 143 c 0
 261 172 235 181 210 181 c 0
 176 181 145 152 127 126 c 0
 122 119 119 111 112 105 c 1
EndSplineSet
Ligature2: "Base vowel-1" Tutg.Nn Uml.U
LCarets2: 1 853
Colour: ffff00
EndChar

StartChar: Syl.NnUu
Encoding: 125 -1 86
Width: 1211
VWidth: 1000
GlyphClass: 3
Flags: W
HStem: -234 81<574.62 1158.29> -121 81<580.35 1002.16> 2 81<138.315 246.533> 181 81<153.438 235.988> 422 80<192.508 355.193 559.207 687.073 894.479 1036.91>
VStem: 261 64<55 166.992> 420 66<22.9069 331.194> 765 63<16.8181 320.553> 1109 63<56.1907 157.86> 1118 63<279 380.238>
LayerCount: 2
Fore
SplineSet
817 0 m 0xff40
 816 0 772 12 764 73 c 1
 764 79 l 2
 764 115 764 151 765 187 c 0
 763 259 752 378 710 404 c 0
 688 417 662 422 637 422 c 0
 521 422 492 306 486 206 c 1
 486 166 l 2
 486 127 485 89 486 50 c 0
 487 37 488 25 488 12 c 0
 488 4 485 0 477 0 c 0
 466 0 437 23 426 57 c 0
 420 79 420 176 420 203 c 0
 420 222 421 244 422 268 c 0
 420 322 413 376 394 393 c 0
 367 416 309 422 274 422 c 0
 170 422 112 326 97 233 c 1
 117 250 140 262 167 262 c 0
 245 262 325 160 325 86 c 0
 325 24 273 2 219 2 c 0
 101 2 30 140 30 244 c 0
 30 365 94 502 232 502 c 0
 326 502 395 475 445 389 c 1
 471 463 515 502 595 502 c 0
 687 502 748 441 785 363 c 1
 799 424 827 500 902 500 c 0
 1117 500 1181 365 1181 299 c 0xff40
 1181 259 1146 220 1110 205 c 1
 1147 172 1172 116 1172 66 c 0
 1172 -28 1079 -97 995 -115 c 0
 967 -121 939 -122 911 -122 c 2
 715 -121 l 2
 674 -121 601 -115 573 -153 c 1
 756 -151 938 -147 1121 -147 c 0
 1142 -147 1174 -195 1174 -215 c 0
 1174 -231 1159 -228 1147 -228 c 0
 961 -228 775 -234 589 -234 c 0
 545 -234 501 -159 501 -120 c 0
 501 -51 577 -40 630 -40 c 0
 695 -40 762 -41 827 -41 c 0
 919 -41 1003 -40 1069 35 c 0
 1089 57 1109 93 1109 123 c 0xff80
 1109 150 1107 156 1081 168 c 0
 1041 186 1021 176 996 221 c 0
 991 230 986 241 986 251 c 0
 986 255 987 260 990 262 c 0
 993 264 1024 271 1031 273 c 0
 1069 285 1118 316 1118 360 c 0
 1118 366 1117 371 1112 375 c 0
 1063 411 1004 419 945 419 c 0
 852 419 832 253 828 143 c 0
 829 125 829 108 829 91 c 0
 829 82 829 45 828 21 c 1
 828 17 l 1
 826 0 826 0 817 0 c 0xff40
127 126 m 0
 122 119 119 111 113 104 c 1
 130 88 155 83 177 83 c 0
 214 83 261 99 261 143 c 0
 261 172 235 181 210 181 c 0
 176 181 145 152 127 126 c 0
EndSplineSet
Ligature2: "Base vowel-1" Tutg.Nn Uml.Uu
LCarets2: 1 874
Colour: ffff00
EndChar

StartChar: Syl.ShU
Encoding: 126 -1 87
Width: 1115
VWidth: 1000
GlyphClass: 3
Flags: W
HStem: -1 81<159.862 279.114 605.937 731.223 962.899 1090.37> 252 81<663.557 771.578> 413 81<158.86 278.1 505.827 695.828>
VStem: 30 64<171.72 343.363> 513 63<101.075 226> 790 63<146.904 246> 910 63<112.362 224.451>
LayerCount: 2
Fore
SplineSet
513 189 m 0
 513 263 600 333 744 333 c 0
 754 333 763 333 772 332 c 1
 749 386 701 420 626 420 c 0
 279 420 538 -1 237 -1 c 0
 109 -1 30 187 30 295 c 0
 30 412 83 494 208 494 c 0
 247 494 266 490 288 456 c 0
 294 447 301 433 301 422 c 0
 301 414 298 410 290 410 c 0
 276 410 263 413 249 413 c 0
 140 413 94 339 94 238 c 0
 94 200 109 124 139 98 c 0
 157 82 172 80 195 80 c 0
 469 80 215 500 584 500 c 0
 692 500 778 420 822 322 c 1
 907 297 973 224 973 134 c 0
 973 114 969 95 962 77 c 1
 964 77 l 2
 1021 77 1056 80 1057 80 c 0
 1078 80 1110 32 1110 12 c 0
 1110 9 1109 3 1106 1 c 0
 1098 -3 1019 -4 1005 -4 c 0
 957 -4 919 -1 890 43 c 0
 883 54 875 70 875 83 c 0
 875 102 910 149 910 191 c 0
 910 220 910 220 884 233 c 0
 873 239 860 243 846 246 c 1
 851 224 853 203 853 182 c 0
 853 87 803 0 699 0 c 0
 677 0 651 3 631 11 c 0
 564 37 513 118 513 189 c 0
790 252 m 1
 672 252 576 196 576 133 c 0
 576 123 579 113 580 103 c 1
 579 103 l 1
 594 84 633 81 656 81 c 0
 743 81 790 158 790 238 c 2
 790 252 l 1
EndSplineSet
Ligature2: "Base vowel-1" Tutg.Sh Uml.U
LCarets2: 1 797
Colour: ffff00
EndChar

StartChar: Syl.ShUu
Encoding: 127 -1 88
Width: 1034
VWidth: 1000
GlyphClass: 3
Flags: W
HStem: -229 80<409.035 998.766> -112 81<419.851 940.331> -1 81<159.723 279.114 606.896 731.223> 255 81<660.782 770.577> 413 81<158.86 278.1 505.827 694.041>
VStem: 30 64<171.551 343.363> 511 63<104.342 245.648> 790 63<146.904 251> 920 64<152.805 237.256>
LayerCount: 2
Fore
SplineSet
481 -229 m 2
 357 -229 331 -130 331 -108 c 0
 331 -38 454 -31 503 -31 c 0
 617 -31 731 -32 845 -32 c 0
 885 -32 950 -28 956 24 c 1
 924 50 904 40 880 82 c 0
 875 91 870 102 870 112 c 0
 870 127 920 169 920 221 c 2
 920 226 l 1
 896 240 871 247 845 251 c 1
 850 228 853 205 853 182 c 0
 853 87 803 0 699 0 c 0
 677 0 651 3 631 11 c 0
 568 36 511 124 511 191 c 0
 511 300 657 336 743 336 c 0
 752 336 762 336 771 335 c 1
 747 387 699 420 626 420 c 0
 279 420 538 -1 237 -1 c 0
 109 -1 30 187 30 295 c 0
 30 412 83 494 208 494 c 0
 247 494 266 490 288 456 c 0
 294 447 301 433 301 422 c 0
 301 414 298 410 290 410 c 0
 276 410 263 413 249 413 c 0
 140 413 94 339 94 238 c 0
 94 200 109 123 139 98 c 0
 157 82 171 80 195 80 c 0
 469 80 215 500 584 500 c 0
 690 500 774 423 818 329 c 1
 947 305 984 205 984 164 c 0
 984 134 973 105 956 81 c 1
 986 59 1019 3 1019 -35 c 0
 1019 -101 945 -113 894 -113 c 0
 779 -113 665 -112 550 -112 c 0
 508 -112 437 -115 406 -146 c 1
 422 -148 439 -149 455 -149 c 2
 890 -149 l 2
 905 -149 960 -147 970 -150 c 0
 990 -156 1018 -196 1018 -217 c 0
 1018 -225 1015 -229 1007 -229 c 2
 481 -229 l 2
574 135 m 0
 574 85 616 81 656 81 c 0
 743 81 790 158 790 238 c 2
 790 255 l 1
 721 255 574 224 574 135 c 0
EndSplineSet
Ligature2: "Base vowel-1" Tutg.Sh Uml.Uu
LCarets2: 1 780
Colour: ffff00
EndChar

StartChar: Syl.GU
Encoding: 128 -1 89
Width: 942
VWidth: 1000
GlyphClass: 3
Flags: W
HStem: -5 80<154.537 278.71 529.205 626.853 742 920.875> 411 81<179.073 291.618> 417 80<508.202 635.35>
VStem: 30 64<145.033 317.957> 704 63<148.41 321.148>
LayerCount: 2
Fore
SplineSet
237 -5 m 0xb8
 130 -5 30 121 30 268 c 0
 30 386 95 492 223 492 c 0
 263 492 283 486 303 450 c 0
 308 441 313 430 313 420 c 0
 313 412 310 408 302 408 c 0
 289 408 277 411 264 411 c 0xd8
 153 411 94 313 94 211 c 0
 94 139 110 75 195 75 c 0
 437 75 282 420 489 488 c 0
 513 496 541 497 567 497 c 0
 656 497 767 354 767 186 c 0
 767 146 758 110 742 81 c 1
 811 80 886 80 889 78 c 0
 910 69 937 34 937 11 c 0
 937 3 934 -1 926 -1 c 2
 815 -2 l 2
 792 -2 559 -2 553 1 c 0
 532 10 502 49 502 73 c 0
 502 81 505 85 513 85 c 0
 526 85 540 83 553 83 c 0
 648 83 704 151 704 243 c 0
 704 300 685 417 609 417 c 0
 307 417 532 -5 237 -5 c 0xb8
EndSplineSet
Ligature2: "Base vowel-1" Tutg.G Uml.U
LCarets2: 1 718
Colour: ffff00
EndChar

StartChar: Syl.GUu
Encoding: 129 -1 90
Width: 816
VWidth: 1000
GlyphClass: 3
Flags: W
HStem: -226 81<178.248 766.29> -106 81<189.904 614.05> -5 80<154.537 283.587> 411 81<179.073 291.532 502.517 613.906>
VStem: 30 64<145.033 317.957> 710 63<54.8592 141.979> 723 63<281 387.017>
LayerCount: 2
Fore
SplineSet
237 -5 m 0xfa
 130 -5 30 121 30 268 c 0
 30 386 95 492 223 492 c 0
 262 492 283 486 303 450 c 0
 308 441 313 430 313 420 c 0
 313 412 310 408 302 408 c 0
 289 408 277 411 264 411 c 0
 153 411 94 313 94 211 c 0
 94 139 110 75 195 75 c 0
 465 75 241 498 570 498 c 0
 710 498 786 383 786 308 c 0xfa
 786 254 746 219 701 197 c 1
 740 164 773 112 773 60 c 0
 773 -29 681 -86 603 -101 c 0
 575 -106 547 -107 519 -107 c 2
 330 -106 l 2
 286 -106 203 -98 178 -145 c 1
 362 -143 545 -139 729 -139 c 0
 750 -139 782 -187 782 -207 c 0
 782 -220 772 -220 762 -220 c 0
 574 -220 386 -226 197 -226 c 0
 152 -226 109 -149 109 -109 c 0
 109 -38 182 -25 238 -25 c 0
 303 -25 370 -26 435 -26 c 0
 522 -26 601 -27 669 36 c 0
 690 56 710 86 710 116 c 0xfc
 710 121 709 129 707 134 c 0
 697 155 605 174 600 177 c 0
 582 186 557 221 557 242 c 0
 557 246 558 251 561 253 c 0
 563 254 603 261 610 263 c 0
 656 275 723 310 723 365 c 0
 723 371 722 380 718 385 c 0
 717 386 685 417 614 417 c 0
 612 416 610 416 608 416 c 2
 593 416 l 1
 587 415 581 414 574 414 c 0
 323 383 520 -5 237 -5 c 0xfa
EndSplineSet
Ligature2: "Base vowel-1" Tutg.G Uml.Uu
LCarets2: 1 649
Colour: ffff00
EndChar

StartChar: Syl.HU
Encoding: 130 -1 91
Width: 940
VWidth: 1000
GlyphClass: 3
Flags: W
HStem: -5 80<340.095 426.075 735 914.304> 414 80<157.363 264.331 529.017 633.934>
VStem: 30 64<75.7639 342.368> 274 63<79.3691 410.517> 449 63<98.9746 396.496> 686 64<91.1002 357.196>
LayerCount: 2
Fore
SplineSet
94 218 m 0
 94 100 124 32 124 7 c 0
 124 -1 121 -5 113 -5 c 0
 108 -5 98 1 94 4 c 0
 41 44 30 215 30 275 c 0
 30 385 63 494 193 494 c 0
 242 494 337 453 337 293 c 0
 337 242 331 190 331 139 c 0
 331 123 332 95 337 81 c 1
 347 77 358 75 369 75 c 0
 440 75 449 140 449 196 c 0
 449 247 443 299 443 350 c 0
 443 422 457 494 545 494 c 0
 647 494 750 401 750 218 c 0
 750 170 744 122 735 75 c 1
 754 75 880 75 887 72 c 0
 908 64 935 28 935 5 c 0
 935 -3 932 -7 924 -7 c 0
 899 -7 711 -7 704 -4 c 0
 683 5 656 40 656 63 c 0
 656 87 686 156 686 275 c 0
 686 306 682 363 664 389 c 0
 652 407 608 414 587 414 c 0
 516 414 506 350 506 293 c 0
 506 242 512 190 512 139 c 0
 512 67 499 -5 411 -5 c 0
 361 -5 268 38 268 196 c 0
 268 247 274 299 274 350 c 0
 274 366 272 394 267 408 c 1
 257 412 246 414 235 414 c 0
 123 414 94 311 94 218 c 0
EndSplineSet
Ligature2: "Base vowel-1" Tutg.H Uml.U
LCarets2: 1 640
Colour: ffff00
EndChar

StartChar: Syl.HUu
Encoding: 131 -1 92
Width: 815
VWidth: 1000
GlyphClass: 3
Flags: W
HStem: -230 81<192.62 776.29> -117 81<198.116 617.902> -5 80<340.095 426.075> 414 80<157.363 264.331 528.375 678.698>
VStem: 30 64<77.9323 342.368> 274 63<79.3691 410.517> 449 63<98.9746 395.555> 717 63<49.3758 141.474 288.133 395.664>
LayerCount: 2
Fore
SplineSet
94 218 m 0
 94 100 124 32 124 7 c 0
 124 -1 121 -5 113 -5 c 0
 94 -5 71 30 65 45 c 0
 43 100 30 217 30 275 c 0
 30 385 63 494 193 494 c 0
 242 494 337 453 337 293 c 0
 337 242 331 190 331 139 c 0
 331 123 332 95 337 81 c 1
 347 77 358 75 369 75 c 0
 440 75 449 140 449 196 c 0
 449 247 443 299 443 350 c 0
 443 458 479 495 551 495 c 0
 640 495 708 472 758 394 c 0
 773 371 785 339 785 311 c 0
 785 260 763 218 723 187 c 1
 739 171 780 124 780 56 c 0
 780 21 761 -16 738 -41 c 0
 680 -104 606 -118 524 -118 c 0
 460 -118 395 -117 331 -117 c 0
 290 -117 218 -111 191 -149 c 1
 374 -147 556 -143 739 -143 c 0
 760 -143 792 -191 792 -211 c 0
 792 -224 782 -224 772 -224 c 0
 584 -224 396 -230 207 -230 c 0
 163 -230 119 -155 119 -116 c 0
 119 -47 195 -36 248 -36 c 0
 313 -36 380 -37 445 -37 c 0
 533 -37 615 -37 680 34 c 0
 702 58 717 88 717 120 c 0
 717 124 716 135 714 138 c 0
 704 153 663 157 647 166 c 0
 629 176 604 209 604 231 c 0
 604 234 605 240 608 242 c 0
 611 244 631 246 636 248 c 0
 686 263 721 317 721 368 c 0
 721 373 721 388 703 394 c 0
 667 412 626 414 587 414 c 0
 574 411 553 413 532 393 c 0
 510 372 506 322 506 293 c 0
 506 242 512 190 512 139 c 0
 512 67 499 -5 411 -5 c 0
 361 -5 268 38 268 196 c 0
 268 247 274 299 274 350 c 0
 274 366 272 394 267 408 c 1
 257 412 246 414 235 414 c 0
 123 414 94 311 94 218 c 0
EndSplineSet
Ligature2: "Base vowel-1" Tutg.H Uml.Uu
LCarets2: 1 619
Colour: ffff00
EndChar

StartChar: Syl.JU
Encoding: 132 -1 93
Width: 1390
VWidth: 1000
GlyphClass: 3
Flags: W
HStem: -243 80<750.708 1278.24> -126 80<761.973 1222.59> 3 81<127.033 216.933 696.521 835.065 1127.71 1261.11> 184 81<1152.09 1243.78> 209 81<121.495 210.871> 409 81<224.658 345.378> 418 81<565.01 641.06 1064.38 1186.62>
VStem: 257 64<79.5 179.624> 429 62<66.9272 318.386> 632 64<83.1461 180.576> 685 64<249.885 381.24> 1296 64<137.74 279.893>
LayerCount: 2
Fore
SplineSet
1237 2 m 0xe3b0
 1071 2 1048 131 1048 147 c 0
 1048 213 1112 265 1176 265 c 0
 1223 265 1264 231 1294 186 c 1
 1296 195 1296 203 1296 212 c 0
 1296 293 1249 418 1152 418 c 0
 1121 418 1081 404 1055 388 c 0
 871 274 1024 0 795 0 c 0
 734 0 689 15 655 68 c 0
 640 91 632 114 632 142 c 0xf3d0
 632 214 685 279 685 350 c 0
 685 391 659 414 619 414 c 0
 545 414 489 317 485 178 c 1
 490 138 491 99 491 63 c 0
 491 55 488 51 480 51 c 0
 471 51 440 72 429 108 c 0
 421 131 422 193 422 221 c 0
 417 277 405 335 382 372 c 0
 365 400 336 409 305 409 c 0
 241 409 156 348 121 290 c 1
 128 290 l 2
 214 290 321 196 321 108 c 0
 321 51 249 3 197 3 c 0
 114 3 55 100 36 183 c 0
 33 190 31 197 31 202 c 0
 31 205 31 207 32 210 c 0
 31 219 30 227 30 235 c 0
 30 275 37 315 54 351 c 0
 87 419 185 490 262 490 c 0
 345 490 406 422 439 353 c 1
 459 427 500 495 576 495 c 0
 665 495 749 376 749 293 c 0xedb0
 749 221 701 159 696 87 c 1xedd0
 715 82 735 81 754 81 c 0
 929 81 847 295 942 417 c 0
 978 465 1052 499 1111 499 c 0
 1225 499 1360 317 1360 155 c 0
 1360 125 1355 96 1344 71 c 1
 1349 52 1351 34 1351 18 c 0
 1351 -38 1332 -103 1273 -122 c 0
 1245 -131 1132 -133 1100 -133 c 0
 1060 -133 993 -126 871 -126 c 0
 838 -126 770 -134 749 -163 c 1
 807 -163 1243 -161 1250 -164 c 0
 1271 -174 1298 -207 1298 -231 c 0
 1298 -239 1295 -243 1287 -243 c 2
 761 -243 l 2
 717 -243 673 -171 673 -132 c 0
 673 -57 773 -46 829 -46 c 0
 959 -46 1057 -52 1059 -52 c 0
 1091 -52 1195 -50 1224 -41 c 0
 1248 -33 1264 -15 1274 7 c 1
 1263 4 1250 2 1237 2 c 0xe3b0
96 148 m 1
 103 112 110 84 154 84 c 0
 189 84 257 125 257 164 c 0
 257 166 257 172 256 174 c 0
 243 193 192 209 169 209 c 0xe990
 108 209 100 167 96 148 c 1
1112 98 m 1
 1135 87 1169 83 1194 83 c 0
 1235 83 1262 103 1278 131 c 1
 1267 164 1257 184 1217 184 c 0xf190
 1169 184 1122 145 1112 98 c 1
EndSplineSet
Ligature2: "Base vowel-1" Tutg.J Uml.U
LCarets2: 1 1040
Colour: ffff00
EndChar

StartChar: Syl.JUu
Encoding: 133 -1 94
Width: 1530
VWidth: 1000
GlyphClass: 3
Flags: W
HStem: -244 80<874.751 1467.17> -127 81<885.55 1425.77> 0 81<118.967 199.292 683.645 818.203 1136.8 1245.43> 209 81<108.612 197.871 1175.06 1272.25> 409 81<211.658 332.724 539.847 642.181> 418 81<1053.52 1175.73>
VStem: 244 64<79.5 179.624> 416 62<66.8838 322.419> 619 64<83.1461 180.576> 672 64<249.691 381.24> 1057 64<88.0063 157.254> 1283 63<120.959 196.251> 1358 106<52.6628 108.398>
LayerCount: 2
Fore
SplineSet
17 235 m 0xfb78
 17 275 24 315 41 351 c 0
 74 419 172 490 249 490 c 0
 332 490 393 422 426 353 c 1
 446 427 487 495 563 495 c 0
 652 495 736 376 736 293 c 0xfb78
 736 221 688 159 683 87 c 1
 702 82 722 81 741 81 c 0
 869 81 861 196 879 290 c 0
 888 335 901 380 930 417 c 0
 967 463 1034 499 1093 499 c 0
 1205 499 1293 367 1326 271 c 1
 1397 247 1464 184 1464 105 c 0
 1464 89 1459 66 1451 52 c 1
 1480 33 1513 -8 1513 -45 c 0
 1513 -93 1452 -119 1412 -125 c 0
 1394 -128 1376 -128 1358 -128 c 0
 1245 -128 1132 -127 1019 -127 c 0
 977 -127 905 -130 874 -161 c 1
 890 -163 907 -164 923 -164 c 2
 1358 -164 l 2
 1372 -164 1430 -162 1438 -165 c 0
 1459 -172 1486 -210 1486 -232 c 0
 1486 -240 1483 -244 1475 -244 c 2
 949 -244 l 2
 892 -244 845 -223 815 -173 c 0
 806 -158 799 -141 799 -123 c 0
 799 -54 918 -46 966 -46 c 0
 1080 -46 1193 -48 1307 -48 c 0
 1347 -48 1413 -42 1440 -8 c 1
 1429 -4 1417 -5 1406 -1 c 0
 1385 7 1358 44 1358 66 c 0
 1358 75 1366 83 1371 90 c 0
 1385 109 1396 130 1400 153 c 0
 1401 160 1400 167 1401 174 c 1
 1400 173 l 1
 1383 184 1363 192 1343 197 c 1
 1345 181 1346 166 1346 150 c 0
 1346 71 1310 2 1223 2 c 0
 1159 2 1108 32 1077 88 c 0
 1065 109 1057 132 1057 156 c 0
 1057 209 1099 260 1148 276 c 0
 1173 284 1201 286 1227 286 c 0
 1242 286 1257 285 1273 283 c 1
 1254 352 1211 418 1136 418 c 0
 1086 418 1016 380 986 339 c 0
 894 217 981 0 782 0 c 0
 722 0 676 15 642 68 c 0
 627 91 619 114 619 142 c 0xf7b8
 619 214 672 278 672 350 c 0
 672 391 646 414 606 414 c 0
 588 414 572 408 557 398 c 0
 494 357 474 251 472 178 c 1
 477 138 478 99 478 63 c 0
 478 55 475 51 467 51 c 0
 460 51 449 60 444 64 c 0
 432 76 421 92 416 108 c 0
 409 130 409 186 409 216 c 0
 402 287 387 371 351 393 c 0
 333 404 313 409 292 409 c 0
 228 409 143 348 108 290 c 1
 110 290 113 290 115 290 c 0
 201 290 308 196 308 108 c 0
 308 51 236 3 184 3 c 0
 101 3 42 100 23 183 c 0
 20 190 18 197 18 202 c 0
 18 205 18 207 19 210 c 0
 18 219 17 227 17 235 c 0xfb78
86 164 m 0
 85 159 85 152 83 146 c 0
 87 127 93 108 103 96 c 0
 114 88 127 84 141 84 c 0
 176 84 244 125 244 164 c 0
 244 166 244 172 243 174 c 0
 231 193 178 209 156 209 c 0
 125 209 96 195 86 164 c 0
1121 95 m 1
 1138 86 1163 83 1182 83 c 0
 1252 83 1283 142 1283 205 c 1
 1252 205 1218 205 1189 192 c 0
 1156 178 1121 136 1121 99 c 2
 1121 95 l 1
EndSplineSet
Ligature2: "Base vowel-1" Tutg.J Uml.Uu
LCarets2: 1 1162
Colour: ffff00
EndChar

StartChar: Syl.KU
Encoding: 134 -1 95
Width: 925
VWidth: 1000
GlyphClass: 3
Flags: W
HStem: 1 81<203.009 261.847 467.726 549.613 766 901.172> 425 81<183.247 319.536 513.23 637.705>
VStem: 30 62<259.67 338.512> 140 63<84.2748 184.1> 577 63<151.205 290.672> 714 63<111.664 320.412>
LayerCount: 2
Fore
SplineSet
640 192 m 0
 640 91 578 1 523 1 c 0
 476 1 422 69 400 107 c 1
 365 67 309 2 251 2 c 0
 190 2 140 99 140 156 c 0
 140 255 230 358 320 424 c 1
 310 425 300 425 291 425 c 0
 197 425 107 377 95 278 c 0
 94 270 95 251 92 244 c 0
 90 241 86 241 83 241 c 0
 62 241 30 289 30 309 c 0
 30 440 126 506 249 506 c 0
 303 506 357 496 407 476 c 1
 449 495 493 508 539 508 c 0
 709 508 777 312 777 170 c 0
 777 141 773 111 766 83 c 1
 782 83 865 85 872 82 c 0
 893 75 920 37 920 15 c 0
 920 7 917 3 909 3 c 2
 718 3 l 2
 697 3 665 51 665 71 c 0
 665 80 681 98 686 106 c 0
 705 138 714 190 714 227 c 0
 714 272 703 370 669 401 c 0
 647 421 610 427 581 427 c 0
 560 427 536 423 512 416 c 1
 578 364 640 279 640 192 c 0
479 82 m 0
 523 82 577 172 577 248 c 0
 577 317 520 364 453 392 c 1
 329 332 203 205 203 94 c 0
 203 91 204 86 205 83 c 1
 209 83 l 2
 248 83 304 140 329 168 c 0
 339 179 349 194 360 203 c 0
 362 205 365 204 367 204 c 0
 407 204 441 82 479 82 c 0
EndSplineSet
Ligature2: "Base vowel-1" Tutg.K Uml.U
LCarets2: 1 653
Colour: ffff00
EndChar

StartChar: Syl.KUu
Encoding: 135 -1 96
Width: 894
VWidth: 1000
GlyphClass: 3
Flags: W
HStem: -229 81<288.62 872.29> -116 81<294.116 704.271> 1 81<203.445 261.847 467.726 550.37> 425 81<183.247 318.187 527.465 738.236>
VStem: 30 62<259.67 338.512> 140 63<83.6152 182.013> 577 63<151 291.445> 800 64<46.9564 153.064 299.613 393.758>
LayerCount: 2
Fore
SplineSet
640 192 m 0
 640 91 578 1 523 1 c 0
 476 1 422 69 400 107 c 1
 365 67 309 2 251 2 c 0
 191 2 140 97 140 154 c 0
 140 254 237 368 319 424 c 1
 309 425 300 425 291 425 c 0
 197 425 107 377 95 278 c 0
 94 270 95 251 92 244 c 0
 90 241 86 241 83 241 c 0
 62 241 30 289 30 309 c 0
 30 440 126 506 249 506 c 0
 308 506 367 494 421 470 c 1
 483 489 554 498 610 498 c 0
 670 498 753 490 800 448 c 0
 837 416 863 357 863 309 c 0
 863 260 845 225 804 199 c 1
 841 163 864 112 864 60 c 0
 864 57 863 -117 626 -117 c 1
 427 -116 l 2
 386 -116 314 -110 287 -148 c 1
 470 -146 652 -142 835 -142 c 0
 856 -142 888 -190 888 -210 c 0
 888 -224 876 -224 865 -224 c 0
 677 -224 491 -229 303 -229 c 0
 259 -229 215 -154 215 -115 c 0
 215 -46 291 -35 344 -35 c 0
 410 -35 475 -36 541 -36 c 0
 580 -36 620 -38 659 -29 c 0
 733 -12 800 46 800 127 c 0
 800 176 745 161 719 176 c 0
 701 186 676 219 676 241 c 0
 676 244 677 250 680 252 c 0
 684 254 708 259 714 261 c 0
 763 277 800 312 800 366 c 0
 800 375 798 383 795 392 c 1
 764 412 689 417 651 417 c 0
 614 417 570 413 526 404 c 1
 586 353 640 273 640 192 c 0
367 204 m 0
 407 204 441 82 479 82 c 0
 536 82 577 195 577 248 c 0
 577 314 525 359 462 388 c 1
 437 380 414 370 394 359 c 0
 318 316 203 192 203 97 c 0
 203 92 204 88 205 83 c 1
 209 83 l 2
 248 83 304 140 329 168 c 0
 339 179 349 194 360 203 c 0
 362 204 365 204 367 204 c 0
EndSplineSet
Ligature2: "Base vowel-1" Tutg.K Uml.Uu
LCarets2: 1 692
Colour: ffff00
EndChar

StartChar: Syl.NU
Encoding: 136 -1 97
Width: 938
VWidth: 1000
GlyphClass: 3
Flags: W
HStem: 1 80<758 913.766> 416 81<144.487 260.198 551.366 716.726>
VStem: 30 63<151.968 358.401> 739 63<200.982 400.066>
LayerCount: 2
Fore
SplineSet
163 1 m 0
 137 1 30 117 30 293 c 0
 30 352 43 442 97 477 c 0
 118 491 153 497 178 497 c 0
 281 497 343 398 372 311 c 1
 413 434 497 501 628 501 c 0
 735 501 802 394 802 296 c 0
 802 223 785 149 758 81 c 1
 776 81 878 83 885 80 c 0
 905 73 933 35 933 13 c 0
 933 5 930 1 922 1 c 2
 714 1 l 2
 693 1 661 49 661 69 c 0
 661 79 739 209 739 350 c 0
 739 360 736 398 730 405 c 0
 721 416 683 420 669 420 c 0
 640 420 610 414 582 405 c 0
 371 333 418 30 405 4 c 0
 403 1 400 1 396 1 c 0
 377 1 350 41 345 58 c 0
 339 79 351 285 296 381 c 0
 280 409 251 416 221 416 c 0
 116 416 93 323 93 237 c 0
 93 186 105 123 133 80 c 0
 148 58 174 44 174 13 c 0
 174 5 171 1 163 1 c 0
EndSplineSet
Ligature2: "Base vowel-1" Tutg.N Uml.U
LCarets2: 1 672
Colour: ffff00
EndChar

StartChar: Syl.NUu
Encoding: 137 -1 98
Width: 849
VWidth: 1000
GlyphClass: 3
Flags: W
HStem: -231 81<219.62 803.29> -118 81<225.368 646.548> 1 21G<150 167 386.5 401.5> 416 81<144.487 261.248 534.023 690.393>
VStem: 30 63<151.968 358.401> 345 62<17.6812 240.367> 737 64<40.4612 132.791 276.5 383.059>
LayerCount: 2
Fore
SplineSet
163 1 m 0
 137 1 30 117 30 293 c 0
 30 352 43 442 97 477 c 0
 118 491 153 497 178 497 c 0
 278 497 342 400 370 315 c 1
 407 431 472 498 599 498 c 0
 701 498 798 401 798 299 c 0
 798 254 769 215 731 192 c 1
 766 159 801 107 801 58 c 0
 801 -3 761 -119 557 -119 c 1
 362 -118 l 2
 320 -118 246 -112 218 -150 c 1
 401 -148 583 -144 766 -144 c 0
 787 -144 819 -192 819 -212 c 0
 819 -226 807 -226 796 -226 c 0
 608 -226 422 -231 234 -231 c 0
 190 -231 146 -156 146 -117 c 0
 146 -48 222 -37 275 -37 c 0
 341 -37 407 -38 473 -38 c 0
 512 -38 552 -40 590 -32 c 0
 662 -18 737 33 737 114 c 0
 737 119 736 127 734 131 c 0
 723 152 653 168 648 171 c 0
 630 181 605 215 605 236 c 0
 605 243 607 247 614 249 c 0
 625 253 638 254 649 258 c 0
 693 273 734 310 734 360 c 0
 734 368 733 379 729 386 c 0
 718 406 662 417 641 417 c 0
 488 417 435 301 416 168 c 0
 411 131 407 93 407 56 c 0
 407 1 407 1 396 1 c 0
 377 1 350 41 345 58 c 0
 339 79 352 283 296 381 c 0
 280 409 251 416 221 416 c 0
 116 416 93 323 93 237 c 0
 93 186 105 123 133 80 c 0
 148 58 174 44 174 13 c 0
 174 5 171 1 163 1 c 0
EndSplineSet
Ligature2: "Base vowel-1" Tutg.N Uml.Uu
LCarets2: 1 602
Colour: ffff00
EndChar

StartChar: Syl.RU
Encoding: 138 -1 99
Width: 646
VWidth: 1000
GlyphClass: 3
Flags: W
HStem: -241 80<220.708 564.244> -124 81<234.406 543.556> -6 81<335.047 457.025> 205 80<342.954 482.04> 419 81<237.191 417.425>
VStem: 30 64<130.568 272.529> 246 63<88.692 214> 527 63<226 307.833> 562 64<-23.9561 69.8871>
LayerCount: 2
Fore
SplineSet
179 5 m 0xff
 159 5 30 91 30 232 c 0
 30 377 153 500 298 500 c 0
 349 500 415 483 457 454 c 0
 537 399 590 282 590 186 c 0xff
 590 171 589 157 587 143 c 1
 611 97 626 47 626 2 c 0
 626 -47 614 -107 560 -122 c 0
 548 -125 535 -125 523 -125 c 0
 478 -125 434 -124 389 -124 c 0
 333 -124 265 -118 220 -159 c 1
 219 -161 l 1
 257 -161 529 -159 536 -162 c 0
 557 -171 584 -206 584 -229 c 0
 584 -237 581 -241 573 -241 c 2
 231 -241 l 2
 187 -241 143 -169 143 -130 c 0
 143 -49 256 -43 314 -43 c 2
 454 -44 l 2
 477 -44 504 -47 525 -35 c 0
 560 -15 562 34 562 70 c 1xfe80
 531 22 471 -6 415 -6 c 0
 324 -6 246 88 246 176 c 0
 246 252 313 285 380 285 c 0
 440 285 484 267 527 226 c 1
 527 278 518 345 476 381 c 0
 447 406 377 419 339 419 c 0
 211 419 94 304 94 175 c 0
 94 77 147 107 181 44 c 0
 185 36 190 26 190 17 c 0
 190 9 187 5 179 5 c 0xff
423 205 m 0
 373 205 309 177 309 119 c 0
 309 114 313 94 316 90 c 0
 325 79 360 75 374 75 c 0
 435 75 499 117 518 175 c 1
 493 197 460 205 423 205 c 0
EndSplineSet
Ligature2: "Base vowel-1" Tutg.R Uml.U
LCarets2: 1 444
Colour: ffff00
EndChar

StartChar: Syl.RUu
Encoding: 139 -1 100
Width: 784
VWidth: 1000
GlyphClass: 3
Flags: W
HStem: -228 80<283.035 730.172> -111 81<292.364 675.207> -6 81<335.489 456.96> 222 81<380.455 520.365> 419 81<237.191 417.729>
VStem: 30 64<130.568 272.529> 246 64<88.9137 224.5> 526 64<146.018 205.718>
LayerCount: 2
Fore
SplineSet
179 5 m 0
 159 5 30 91 30 232 c 0
 30 377 153 500 298 500 c 0
 440 500 536 411 576 278 c 1
 638 256 692 227 722 165 c 0
 728 153 732 139 732 126 c 0
 732 105 726 90 714 73 c 1
 741 53 769 15 769 -20 c 0
 769 -58 727 -112 630 -112 c 2
 482 -111 l 2
 428 -111 321 -104 280 -145 c 1
 300 -148 320 -148 340 -148 c 0
 450 -148 561 -147 671 -147 c 0
 677 -147 696 -147 701 -149 c 0
 722 -156 749 -194 749 -216 c 0
 749 -224 746 -228 738 -228 c 2
 355 -228 l 2
 231 -228 205 -129 205 -107 c 0
 205 -38 326 -30 374 -30 c 2
 541 -31 l 2
 598 -31 656 -36 696 14 c 1
 685 16 675 16 664 16 c 0
 658 16 649 15 643 17 c 0
 622 25 595 61 595 84 c 0
 595 86 596 91 597 93 c 0
 603 100 655 131 668 172 c 1
 646 185 618 197 589 206 c 1
 590 200 590 193 590 186 c 0
 590 2 441 -6 415 -6 c 0
 325 -6 246 89 246 176 c 0
 246 273 385 303 461 303 c 0
 478 303 499 300 521 295 c 1
 514 328 499 362 476 381 c 0
 447 406 377 419 339 419 c 0
 211 419 94 304 94 175 c 0
 94 77 146 107 181 44 c 0
 185 36 190 26 190 17 c 0
 190 9 187 5 179 5 c 0
503 222 m 0
 402 222 310 177 310 119 c 0
 310 113 312 94 316 90 c 0
 326 78 360 75 374 75 c 0
 376 75 516 77 526 221 c 1
 518 222 510 222 503 222 c 0
EndSplineSet
Ligature2: "Base vowel-1" Tutg.R Uml.Uu
LCarets2: 1 604
Colour: ffff00
EndChar

StartChar: Syl.TU
Encoding: 140 -1 101
Width: 977
VWidth: 1000
GlyphClass: 3
Flags: W
HStem: 1 81<353.796 442.727 772 950.352> 423 81<208.867 356.964 539.831 673.986>
VStem: 30 64<139.632 313.269> 284 63<87.2126 208.133> 472 63<110.287 273.473> 743 64<167.318 363.802>
LayerCount: 2
Fore
SplineSet
137 23 m 0
 66 86 30 177 30 271 c 0
 30 407 134 504 271 504 c 0
 326 504 376 474 418 430 c 1
 464 472 521 500 583 500 c 0
 715 500 807 380 807 254 c 0
 807 194 795 134 772 79 c 1
 793 79 917 81 924 78 c 0
 945 70 972 34 972 11 c 0
 972 3 969 -1 961 -1 c 2
 710 -1 l 2
 689 -1 657 47 657 67 c 0
 657 69 658 74 659 76 c 0
 663 82 670 84 675 89 c 0
 718 132 743 244 743 301 c 0
 743 323 740 369 726 386 c 0
 706 412 656 420 625 420 c 0
 572 420 519 393 474 352 c 1
 512 285 535 208 535 149 c 0
 535 75 514 1 426 1 c 0
 361 1 309 56 291 115 c 0
 286 133 284 152 284 171 c 0
 284 248 337 343 386 399 c 1
 365 414 341 423 312 423 c 0
 192 423 94 336 94 215 c 0
 94 178 99 124 123 95 c 0
 132 84 144 76 154 67 c 0
 168 55 186 29 186 10 c 0
 186 2 183 -2 175 -2 c 0
 166 -2 144 17 137 23 c 0
472 205 m 0
 472 242 463 285 445 323 c 1
 387 259 347 173 347 103 c 0
 347 98 348 94 349 89 c 1
 359 85 374 82 385 82 c 0
 456 82 472 147 472 205 c 0
EndSplineSet
Ligature2: "Base vowel-1" Tutg.T Uml.U
LCarets2: 1 659
Colour: ffff00
EndChar

StartChar: Syl.TUu
Encoding: 141 -1 102
Width: 868
VWidth: 1000
GlyphClass: 3
Flags: W
HStem: -232 81<238.62 822.29> -119 81<243.306 671.861> 1 81<353.796 442.727> 423 81<208.867 356.964 539.831 699.833>
VStem: 30 64<139.779 313.269> 284 63<87.2126 208.131> 472 63<110.287 273.473> 768 63<44.7657 134.373 299.64 385.046>
LayerCount: 2
Fore
SplineSet
137 23 m 0
 66 86 30 177 30 271 c 0
 30 407 134 504 271 504 c 0
 326 504 376 474 418 430 c 1
 464 472 521 500 583 500 c 0
 670 500 750 473 800 398 c 0
 819 369 831 337 831 302 c 0
 831 260 800 210 764 189 c 1
 765 189 l 1
 802 153 831 106 831 53 c 0
 831 -38 738 -97 658 -113 c 0
 631 -118 603 -120 575 -120 c 2
 382 -119 l 2
 340 -119 265 -112 237 -151 c 1
 420 -149 602 -145 785 -145 c 0
 806 -145 838 -193 838 -213 c 0
 838 -229 823 -226 811 -226 c 0
 625 -226 439 -232 253 -232 c 0
 209 -232 165 -157 165 -118 c 0
 165 -49 241 -38 294 -38 c 0
 360 -38 426 -39 492 -39 c 0
 579 -39 667 -39 731 30 c 0
 750 51 768 81 768 110 c 0
 768 115 767 127 765 131 c 0
 760 141 721 155 709 158 c 0
 701 160 692 161 685 165 c 0
 667 174 642 209 642 230 c 0
 642 234 643 239 646 241 c 0
 650 244 669 248 675 250 c 0
 718 264 767 311 767 359 c 0
 767 366 767 376 764 382 c 0
 763 384 755 390 753 391 c 0
 717 413 666 420 625 420 c 0
 572 420 519 393 474 352 c 1
 512 285 535 208 535 149 c 0
 535 75 514 1 426 1 c 0
 361 1 309 56 291 115 c 0
 286 133 284 152 284 171 c 0
 284 248 337 343 386 398 c 1
 365 414 341 423 312 423 c 0
 192 423 94 336 94 215 c 0
 94 179 99 124 123 95 c 0
 132 84 144 76 154 67 c 0
 168 55 186 29 186 10 c 0
 186 2 183 -2 175 -2 c 0
 166 -2 144 17 137 23 c 0
472 205 m 0
 472 242 463 285 445 323 c 1
 387 259 347 173 347 103 c 0
 347 98 348 94 349 89 c 1
 359 85 374 82 385 82 c 0
 456 82 472 147 472 205 c 0
EndSplineSet
Ligature2: "Base vowel-1" Tutg.T Uml.Uu
LCarets2: 1 0
Colour: ffff00
EndChar

StartChar: Subj.L
Encoding: 142 -1 103
Width: 0
VWidth: 1000
GlyphClass: 4
Flags: W
HStem: -256 81<-547.922 -462.457 -218.922 -94.1997> -96 82<-519.246 -437.176> -79 79<-178.766 -84.3776>
VStem: -615 65<-172.891 -125.966> -433 64<-146.433 -112.702> -63 63<-145.625 -88.5503>
AnchorPoint: "VocL mark" 0 -256 basemark 0
AnchorPoint: "VocR mark" -7 -186 basemark 0
AnchorPoint: "U mark" -131 -202 basemark 0
LayerCount: 2
Fore
SplineSet
-493 -256 m 0xbc
 -578 -256 -615 -177 -615 -138 c 0
 -615 -50 -553 -14 -485 -14 c 0xdc
 -345 -14 -314 -171 -170 -171 c 0
 -94 -171 -63 -128 -63 -97 c 1
 -79 -87 -110 -82 -129 -81 c 0
 -136 -81 -143 -81 -150 -79 c 0
 -170 -73 -198 -33 -198 -12 c 0
 -198 -4 -195 0 -187 0 c 0
 -44 0 0 -111 0 -150 c 0
 0 -223 -62 -252 -126 -252 c 0
 -246 -252 -330 -154 -378 -112 c 1
 -372 -127 -369 -141 -369 -154 c 0
 -369 -220 -433 -256 -493 -256 c 0xbc
-550 -175 m 1
 -536 -175 l 2
 -492 -175 -433 -147 -433 -96 c 1
 -486 -98 -541 -113 -550 -175 c 1
EndSplineSet
Ligature2: "Subjoin-1" Uml.Conj Tutg.L
LCarets2: 1 0
Colour: ff9c05
EndChar

StartChar: Subj.R
Encoding: 143 -1 104
Width: 0
VWidth: 1000
GlyphClass: 4
Flags: W
HStem: -223 81<-507.582 -274.655>
VStem: -97 67<46.7467 163.33>
AnchorPoint: "VocL mark" 0 -223 basemark 0
AnchorPoint: "VocR mark" -94 -92 basemark 0
AnchorPoint: "U mark" -148 -102 basemark 0
AnchorPoint: "Rakar" -60 144 mark 0
LayerCount: 2
Fore
SplineSet
-30 114 m 0
 -30 48 -74 -223 -359 -223 c 0
 -513 -223 -654 -131 -656 -129 c 0
 -672 -117 -694 -88 -694 -67 c 0
 -694 -59 -691 -55 -683 -55 c 0
 -668 -55 -554 -142 -400 -142 c 0
 -225 -142 -119 -23 -97 140 c 0
 -95 152 -99 182 -83 182 c 0
 -62 182 -30 134 -30 114 c 0
EndSplineSet
Ligature2: "Subjoin-1" Uml.Conj Tutg.R
LCarets2: 1 0
Colour: ff9c05
EndChar

StartChar: Subj.V
Encoding: 144 -1 105
Width: 122
VWidth: 1000
GlyphClass: 3
Flags: W
HStem: -143 81<-364.626 41>
VStem: 41 64<-65 404.33>
AnchorPoint: "VocL B" 122 -149 basechar 0
AnchorPoint: "VocR" 103 -135 basechar 0
AnchorPoint: "U" -57 -105 basechar 0
LayerCount: 2
Fore
SplineSet
-365 -158 m 0
 -386 -158 -418 -110 -418 -90 c 0
 -418 -86 -417 -82 -414 -79 c 0
 -394 -62 -186 -62 -147 -62 c 0
 -87 -62 -28 -65 32 -65 c 2
 41 -65 l 1
 41 310 l 2
 41 324 40 415 43 420 c 0
 46 423 48 423 52 423 c 0
 73 423 105 375 105 355 c 2
 105 -133 l 2
 105 -144 99 -146 89 -146 c 0
 17 -146 -54 -143 -126 -143 c 0
 -180 -143 -235 -143 -289 -147 c 0
 -307 -148 -325 -150 -343 -154 c 0
 -350 -156 -357 -158 -365 -158 c 0
EndSplineSet
Ligature2: "Subjoin-1" Uml.Conj Tutg.V
LCarets2: 1 66
Colour: ff9c05
EndChar

StartChar: Subj.S
Encoding: 145 -1 106
Width: 172
VWidth: 1000
GlyphClass: 3
Flags: W
HStem: -247 81<-8.70212 46.8163> -87 81<-337.812 -251.25 -147.922 -69.1486>
VStem: -411 93<-167 -76> -89 90<-165.436 -89.9822> 91 64<-118.003 110.204>
AnchorPoint: "VocL B" 172 -247 basechar 0
AnchorPoint: "VocR" 132 -182 basechar 0
AnchorPoint: "U" 26 -176 basechar 0
LayerCount: 2
Fore
SplineSet
-329 -179 m 0
 -349 -179 -411 -123 -411 -76 c 0
 -411 -29 -359 -6 -318 -6 c 0
 -281 -6 -248 -29 -224 -56 c 1
 -203 -22 -158 -7 -121 -7 c 0
 -62 -7 1 -68 1 -127 c 0
 1 -140 -4 -154 -9 -166 c 1
 77 -166 91 -55 91 10 c 0
 91 56 83 113 65 156 c 1
 50 169 31 194 31 215 c 0
 31 223 34 227 42 227 c 0
 50 227 68 213 74 207 c 0
 133 149 155 35 155 -46 c 0
 155 -141 135 -247 22 -247 c 0
 7 -247 -10 -246 -24 -241 c 0
 -57 -229 -89 -186 -89 -150 c 0
 -89 -128 -73 -110 -68 -89 c 1
 -72 -89 -76 -88 -80 -88 c 0
 -109 -88 -145 -102 -162 -126 c 0
 -180 -151 -167 -169 -185 -169 c 0
 -200 -169 -224 -139 -230 -126 c 0
 -233 -120 -239 -98 -241 -96 c 0
 -247 -90 -268 -87 -276 -87 c 0
 -296 -87 -332 -99 -342 -118 c 1
 -332 -129 -318 -152 -318 -167 c 0
 -318 -175 -321 -179 -329 -179 c 0
EndSplineSet
Ligature2: "Subjoin-1" Uml.Conj Tutg.S
LCarets2: 1 70
Colour: ff9c05
EndChar

StartChar: Syl.J_J
Encoding: 146 -1 107
Width: 2408
VWidth: 1000
GlyphClass: 3
Flags: W
HStem: 0 81<119.835 199.292 683.521 820.052 1159.51 1244.39 1727.64 1865.43 2160.15 2289.45> 183 81<2185.93 2276.71> 209 81<108.495 197.871> 409 81<211.658 332.378 1265.75 1373.37> 416 81<548.874 631.523 1048.8 1137.76 1593.25 1672.06 2095.01 2218.02>
VStem: 244 64<79.5 179.624> 416 62<66.9272 318.386> 619 64<83.1461 180.576> 672 64<249.885 381.24> 1061 63<125.186 280.571> 1283 64<120.165 281.94> 1460 62<64.9272 317.832> 1663 64<81.1461 178.576> 1716 64<247.691 379.24> 2081 64<89.8338 142.871> 2327 64<136.58 277.05>
AnchorPoint: "VocR" 2376 71 basechar 0
AnchorPoint: "U" 2255 64 basechar 0
LayerCount: 2
Fore
SplineSet
2268 0 m 0x8e7b
 2115 0 2081 110 2081 145 c 0
 2081 211 2147 264 2210 264 c 0
 2257 264 2298 227 2326 186 c 1
 2327 194 2327 202 2327 210 c 0
 2327 291 2280 416 2183 416 c 0
 2152 416 2112 402 2086 386 c 0
 1902 272 2055 -2 1826 -2 c 0
 1766 -2 1720 13 1686 66 c 0
 1671 89 1663 112 1663 140 c 0xce7b
 1663 212 1716 276 1716 348 c 0
 1716 389 1690 412 1650 412 c 0
 1549 412 1518 252 1516 176 c 1
 1521 136 1522 97 1522 61 c 0
 1522 53 1519 49 1511 49 c 0
 1502 49 1471 70 1460 106 c 0
 1453 128 1453 184 1453 214 c 0
 1446 285 1431 369 1395 391 c 0
 1377 402 1357 407 1336 407 c 0
 1314 407 1289 400 1265 388 c 1
 1315 320 1347 232 1347 155 c 0
 1347 99 1329 54 1295 24 c 0
 1280 11 1241 1 1228 1 c 0
 1127 1 1061 146 1061 233 c 0
 1061 310 1083 367 1139 418 c 1
 1108 418 1068 404 1042 388 c 0
 858 274 1011 0 782 0 c 0
 721 0 676 15 642 68 c 0
 627 91 619 114 619 142 c 0xcf77
 619 214 672 279 672 350 c 0
 672 391 646 414 606 414 c 0
 532 414 476 317 472 178 c 1
 477 138 478 99 478 63 c 0
 478 55 475 51 467 51 c 0
 458 51 427 72 416 108 c 0
 408 131 409 193 409 221 c 0
 404 277 392 335 369 372 c 0
 352 400 323 409 292 409 c 0
 228 409 143 348 108 290 c 1
 115 290 l 2
 201 290 308 196 308 108 c 0
 308 51 236 3 184 3 c 0
 88 3 17 138 17 235 c 0
 17 275 24 315 41 351 c 0
 74 419 172 490 249 490 c 0
 332 490 393 422 426 353 c 1
 446 427 487 495 563 495 c 0
 652 495 736 376 736 293 c 0xb6f3
 736 221 688 159 683 87 c 1
 702 82 722 81 741 81 c 0
 916 81 834 295 929 417 c 0
 965 465 1039 499 1098 499 c 0
 1134 499 1169 481 1197 459 c 1
 1229 477 1263 488 1293 488 c 0
 1376 488 1437 420 1470 351 c 1
 1490 425 1531 493 1607 493 c 0
 1696 493 1780 374 1780 291 c 0xb777
 1780 219 1732 157 1727 85 c 1
 1746 80 1766 79 1785 79 c 0
 1986 79 1843 348 2031 464 c 0
 2063 484 2104 497 2142 497 c 0
 2258 497 2391 311 2391 153 c 0
 2391 74 2358 0 2268 0 c 0x8e7b
1172 83 m 1
 1218 83 1283 102 1283 212 c 0
 1283 260 1266 325 1232 368 c 1
 1161 320 1124 262 1124 176 c 0
 1124 142 1131 89 1172 83 c 1
83 148 m 1
 90 112 97 84 141 84 c 0
 176 84 244 125 244 164 c 0
 244 166 244 172 243 174 c 0
 229 194 180 209 156 209 c 0xa673
 95 209 87 167 83 148 c 1
2251 183 m 0xc673
 2200 183 2158 144 2145 96 c 1
 2145 95 l 1
 2166 85 2201 81 2225 81 c 0
 2268 81 2296 103 2311 134 c 1
 2297 159 2291 183 2251 183 c 0xc673
EndSplineSet
Substitution2: "Link cons+-Ai-1" Wa.J_JAi
Substitution2: "Link cons+-Ee-1" Wa.J_JEe
Ligature2: "Subj ligs-1" Tutg.J Uml.Conj Tutg.J
LCarets2: 2 0 0
Colour: ccffcf
EndChar

StartChar: Syl.K_K
Encoding: 147 -1 108
Width: 1355
VWidth: 1000
GlyphClass: 3
Flags: W
HStem: 2 81<203.782 264.255 466.483 551.399 764.085 825.255 1027.66 1085.51> 427 81<187.703 330.436 526.411 873.851 1072.33 1193.96>
VStem: 30 62<259.67 338.512> 140 63<83.329 176.355> 577 63<151.984 289.137> 701 63<83.4646 180.928> 1138 64<151.865 289.524> 1241 84<333.728 363.005>
AnchorPoint: "VocR" 1154 45 basechar 0
LayerCount: 2
Fore
SplineSet
30 309 m 0
 30 440 126 506 249 506 c 0
 309 506 368 493 422 470 c 1
 429 472 435 475 442 477 c 0
 493 494 586 504 641 504 c 2
 646 504 l 2
 658 504 668 504 677 502 c 0
 718 502 760 502 801 502 c 0
 858 502 911 495 964 475 c 1
 1008 495 1054 508 1097 508 c 0
 1197 508 1265 441 1304 355 c 0
 1310 342 1325 307 1325 294 c 0
 1325 286 1322 282 1314 282 c 0
 1309 282 1301 287 1297 290 c 0
 1256 324 1268 356 1241 389 c 0
 1217 419 1177 427 1140 427 c 0
 1118 427 1095 423 1071 416 c 1
 1141 364 1202 278 1202 188 c 0
 1202 126 1159 1 1082 1 c 0
 1038 1 982 72 961 107 c 1
 926 67 870 2 812 2 c 0
 765 2 722 66 709 106 c 0
 704 123 701 140 701 158 c 0
 701 258 801 364 875 420 c 1
 865 421 854 421 842 421 c 0
 770 421 698 420 625 420 c 0
 592 417 555 412 525 405 c 1
 585 354 640 274 640 192 c 0
 640 171 638 151 633 131 c 0
 620 83 580 1 523 1 c 0
 476 1 422 69 400 107 c 1
 365 67 309 2 251 2 c 0
 203 2 158 70 146 111 c 0
 141 126 140 141 140 157 c 0
 140 259 248 366 327 419 c 0
 329 420 330 421 332 423 c 1
 317 424 304 425 291 425 c 0
 197 425 107 377 95 278 c 0
 94 270 95 251 92 244 c 0
 90 241 86 241 83 241 c 0
 62 241 30 289 30 309 c 0
204 111 m 0
 203 106 203 102 203 97 c 0
 203 92 203 87 204 83 c 1
 209 83 l 2
 249 83 304 140 329 168 c 0
 339 179 349 194 360 203 c 0
 362 204 365 204 367 204 c 0
 381 204 401 180 408 170 c 0
 423 149 451 82 479 82 c 0
 523 82 560 161 570 197 c 0
 575 214 577 231 577 248 c 0
 577 313 527 358 466 386 c 1
 353 339 227 230 204 111 c 0
1009 391 m 1
 919 345 764 213 764 98 c 0
 764 93 765 88 766 83 c 1
 770 83 l 2
 810 83 865 140 890 168 c 0
 900 179 910 194 921 203 c 0
 923 205 926 204 928 204 c 0
 965 204 1002 82 1040 82 c 0
 1096 82 1138 198 1138 244 c 0
 1138 318 1075 369 1009 391 c 1
EndSplineSet
Ligature2: "Subj ligs-1" Tutg.K Uml.Conj Tutg.K
Substitution2: "Link cons+-Ee-1" Wa.K_KEe
Substitution2: "Link cons+-Ai-1" Wa.K_KAi
LCarets2: 2 0 0
Colour: ccffcf
EndChar

StartChar: Syl.G_G
Encoding: 148 -1 109
Width: 1378
VWidth: 1000
GlyphClass: 3
Flags: W
HStem: 0 81<151.805 278.599 726.508 835.852 1123.83 1233.17> 417 81<169.957 283.532 560.037 642.146 1108.39 1209.53>
VStem: 22 64<152.005 325.928> 642 65<101.944 417.555> 1295 64<143.008 302.786>
AnchorPoint: "VocR" 1310 46 basechar 0
LayerCount: 2
Fore
SplineSet
22 276 m 0
 22 394 87 498 215 498 c 0
 254 498 275 491 295 456 c 0
 300 447 305 436 305 426 c 0
 305 418 302 414 294 414 c 0
 281 414 269 417 256 417 c 0
 145 417 86 322 86 220 c 0
 86 139 107 81 198 81 c 0
 403 81 348 398 522 482 c 0
 532 487 551 495 561 495 c 0
 564 496 566 497 568 497 c 0
 578 499 587 500 597 500 c 0
 614 500 631 492 644 481 c 0
 695 440 707 373 707 311 c 0
 707 274 705 236 705 199 c 0
 705 182 708 99 718 90 c 0
 725 84 747 81 756 81 c 0
 988 81 882 495 1142 495 c 0
 1237 495 1317 362 1342 283 c 0
 1353 247 1359 209 1359 172 c 0
 1359 146 1354 120 1344 96 c 0
 1314 20 1248 -1 1172 -1 c 0
 1166 -1 1158 -1 1153 1 c 0
 1132 8 1105 46 1105 68 c 0
 1105 76 1108 80 1116 80 c 0
 1140 80 1164 80 1188 86 c 0
 1256 103 1295 161 1295 229 c 0
 1295 299 1267 415 1179 415 c 0
 1157 415 1128 407 1109 396 c 0
 958 306 1022 0 797 0 c 0
 724 0 671 73 654 138 c 0
 644 176 642 217 642 256 c 0
 642 293 643 331 643 368 c 0
 643 385 642 402 640 419 c 1
 638 419 l 2
 604 419 564 392 547 386 c 1
 531 374 517 359 506 344 c 0
 424 228 426 0 240 0 c 0
 102 0 22 154 22 276 c 0
EndSplineSet
Ligature2: "Subj ligs-1" Tutg.G Uml.Conj Tutg.G
Substitution2: "Link cons+-Ee-1" Wa.G_GEe
Substitution2: "Link cons+-Ai-1" Wa.G_GAi
LCarets2: 2 0 0
Colour: ccffcf
EndChar

StartChar: Syl.C_C
Encoding: 149 -1 110
Width: 792
VWidth: 1000
GlyphClass: 3
Flags: W
HStem: -247 80<39.6286 82.3067 279 670> 0 81<326 444> 416 81<209.721 350.181>
VStem: 88 62<299.67 355.671> 404 63<256.859 380.879> 670 64<-167 -11> 698 64<110.214 314.585>
AnchorPoint: "U" 648 -178 basechar 0
AnchorPoint: "VocR" 734 -235 basechar 0
AnchorPoint: "VocL B" 792 -247 basechar 0
LayerCount: 2
Fore
SplineSet
596 486 m 0xfa
 644 486 762 369 762 158 c 0xfa
 762 122 755 68 732 35 c 0
 733 31 734 27 734 24 c 2
 734 -235 l 2xfc
 734 -243 731 -247 723 -247 c 2
 73 -247 l 2
 52 -247 20 -199 20 -179 c 0
 20 -175 21 -171 24 -168 c 0
 25 -167 440 -2 444 0 c 1
 409 0 l 2
 368 0 88 0 74 6 c 0
 53 15 26 50 26 73 c 0
 26 76 27 82 30 84 c 0
 34 86 47 86 52 87 c 0
 182 101 404 191 404 339 c 0
 404 374 401 386 369 402 c 0
 346 413 320 416 295 416 c 0
 227 416 164 373 153 304 c 0
 152 298 153 289 150 284 c 0
 148 281 144 281 141 281 c 0
 120 281 88 329 88 349 c 0
 88 438 168 497 252 497 c 0
 369 497 467 400 467 283 c 0
 467 190 401 125 326 81 c 1
 368 81 l 2
 429 81 491 82 552 83 c 0
 580 84 610 80 638 86 c 0
 691 99 698 169 698 215 c 0
 698 266 687 356 655 396 c 0
 649 404 636 405 628 409 c 0
 610 419 585 453 585 474 c 0
 585 482 588 486 596 486 c 0xfa
670 -11 m 1xfc
 279 -167 l 1
 670 -167 l 1
 670 -11 l 1xfc
EndSplineSet
Substitution2: "Link cons+-Ai-1" Wa.C_CAi
Substitution2: "Link cons+-Ee-1" Wa.C_CEe
Ligature2: "Orig CCMP-1" Tutg.C Uml.Conj Tutg.C
LCarets2: 2 0 0
Colour: ccffcf
EndChar

StartChar: Syl.Tt_Tt
Encoding: 150 -1 111
Width: 550
VWidth: 1000
GlyphClass: 3
Flags: W
HStem: -83 81<182.215 373.053> 60 81<184.379 327.362> 286 81<291.598 438.55> 421 81<286.32 402.829>
VStem: 17 65<95.4213 234.33> 83 65<179.568 314.33> 439 63<229.897 284.03> 469 64<71.3924 148.419>
AnchorPoint: "VocR" 498 -9 basechar 0
AnchorPoint: "U" 420 23 basechar 0
AnchorPoint: "VocL B" 550 -82 basechar 0
LayerCount: 2
Fore
SplineSet
372 367 m 0xfe
 467 367 502 268 502 229 c 0xfe
 502 215 499 202 494 190 c 1
 516 154 533 120 533 77 c 0
 533 -31 396 -83 305 -83 c 0
 122 -83 17 58 17 232 c 0
 17 240 18 253 29 253 c 0
 50 253 82 205 82 185 c 0
 82 109 81 49 162 16 c 0
 194 3 227 -2 262 -2 c 0
 334 -2 469 43 469 133 c 0xfd
 469 139 468 144 467 149 c 1
 420 96 341 60 269 60 c 0
 148 60 83 190 83 296 c 0
 83 307 79 333 95 333 c 0
 116 333 148 285 148 265 c 0
 148 234 145 192 160 163 c 0
 168 148 211 141 227 141 c 0
 333 141 439 230 439 284 c 1
 431 286 423 286 415 286 c 0
 365 286 318 259 269 259 c 0
 220 259 178 338 178 381 c 0
 178 476 276 502 353 502 c 0
 360 502 368 502 375 500 c 0
 395 494 423 454 423 433 c 0
 423 425 420 421 412 421 c 0
 351 421 262 412 244 342 c 1
 286 351 328 367 372 367 c 0xfe
EndSplineSet
Ligature2: "Subj ligs-1" Tutg.Tt Uml.Conj Tutg.Tt
LCarets2: 2 0 0
Colour: ccffcf
EndChar

StartChar: Syl.T_T
Encoding: 151 -1 112
Width: 1137
VWidth: 1000
GlyphClass: 3
Flags: W
HStem: 1 81<340.796 429.727 666.796 756.791> 423 81<195.867 343.964 527.096 654.593 854.911 986.907>
VStem: 17 64<139.632 313.269> 271 63<87.2126 209.452> 459 63<110.287 274.538> 597 63<87.2126 207.884> 782 63<107.79 269.541> 1056 64<161.939 364.823>
AnchorPoint: "VocR" 1058 22 basechar 0
LayerCount: 2
Fore
SplineSet
124 23 m 0
 53 86 17 177 17 271 c 0
 17 407 121 504 258 504 c 0
 313 504 363 474 405 430 c 1
 451 471 507 499 570 500 c 0
 631 500 683 469 725 425 c 1
 773 469 832 500 896 500 c 0
 1029 500 1120 378 1120 252 c 0
 1120 177 1099 71 1050 13 c 0
 1044 6 1034 -7 1023 -7 c 0
 1002 -7 970 41 970 61 c 0
 970 74 980 75 988 83 c 0
 996 91 1002 102 1008 112 c 0
 1042 171 1056 241 1056 308 c 0
 1056 337 1051 382 1024 399 c 0
 1000 414 966 420 938 420 c 0
 884 420 829 391 783 348 c 1
 823 279 845 208 845 128 c 0
 845 80 827 21 776 5 c 0
 764 1 751 1 739 1 c 0
 674 1 622 56 604 115 c 0
 599 133 597 152 597 171 c 0
 597 246 648 339 695 394 c 1
 666 414 642 419 607 419 c 0
 599 418 591 418 583 417 c 0
 535 410 498 382 461 353 c 1
 499 285 522 208 522 149 c 0
 522 75 501 1 413 1 c 0
 348 1 296 56 278 115 c 0
 273 133 271 152 271 171 c 0
 271 248 324 343 373 399 c 1
 352 414 328 423 299 423 c 0
 179 423 81 336 81 215 c 0
 81 178 86 124 110 95 c 0
 119 84 131 76 141 67 c 0
 155 55 173 29 173 10 c 0
 173 2 170 -2 162 -2 c 0
 153 -2 131 17 124 23 c 0
459 205 m 0
 459 242 450 285 432 323 c 1
 377 262 334 177 334 103 c 0
 334 98 335 94 336 89 c 1
 346 85 361 82 372 82 c 0
 443 82 459 147 459 205 c 0
782 184 m 0
 782 226 773 275 753 318 c 1
 698 254 660 171 660 103 c 0
 660 98 661 94 662 89 c 1
 672 85 687 82 698 82 c 0
 757 82 782 132 782 184 c 0
EndSplineSet
LCarets2: 2 0 0
Ligature2: "Subj ligs-1" Tutg.T Uml.Conj Tutg.T
Colour: ccffcf
EndChar

StartChar: Syl.N_N
Encoding: 152 -1 113
Width: 1229
VWidth: 1000
GlyphClass: 3
Flags: W
HStem: 1 21G<145 154 373.5 385> 416 81<131.487 247.198 536.56 669.903 956.573 1129.66>
VStem: 17 63<151.534 358.401> 332 60<17.6271 227.858> 754 61<20.4529 230.227> 1149 63<202.845 402.275>
AnchorPoint: "VocR" 1143 26 basechar 0
LayerCount: 2
Fore
SplineSet
118 23 m 0
 51 90 17 200 17 293 c 0
 17 352 30 442 84 477 c 0
 105 491 140 497 165 497 c 0
 268 497 330 398 359 311 c 1
 388 398 434 459 523 488 c 0
 531 492 560 497 569 497 c 0
 576 498 581 498 584 498 c 0
 689 498 750 398 781 310 c 1
 790 336 800 362 814 385 c 0
 864 466 945 503 1038 503 c 0
 1145 503 1212 396 1212 298 c 0
 1212 208 1186 120 1149 39 c 0
 1146 32 1135 8 1131 4 c 0
 1129 2 1126 3 1124 3 c 0
 1103 3 1071 51 1071 71 c 0
 1071 79 1086 105 1090 114 c 0
 1123 185 1149 274 1149 352 c 0
 1149 363 1146 399 1140 407 c 0
 1132 418 1092 422 1079 422 c 0
 1050 422 1020 416 992 407 c 0
 863 363 832 240 820 118 c 0
 819 104 817 9 815 6 c 0
 813 3 810 3 806 3 c 0
 785 3 757 48 754 66 c 0
 753 73 752 80 752 87 c 0
 752 130 751 173 747 216 c 0
 743 259 724 373 689 399 c 0
 670 413 650 417 627 417 c 0
 610 417 593 410 576 408 c 0
 446 373 408 235 397 116 c 0
 396 102 394 8 392 4 c 0
 390 1 387 1 383 1 c 0
 364 1 337 41 332 58 c 0
 327 75 330 122 329 142 c 0
 327 210 317 322 283 381 c 0
 267 409 238 416 208 416 c 0
 103 416 80 323 80 237 c 0
 80 186 92 123 120 80 c 0
 135 58 161 44 161 13 c 0
 161 5 158 1 150 1 c 0
 140 1 125 16 118 23 c 0
EndSplineSet
LCarets2: 2 0 0
Substitution2: "Link cons+-Ai-1" Wa.N_NAi
Substitution2: "Link cons+-Ee-1" Wa.N_NEe
Ligature2: "Subj ligs-1" Tutg.N Uml.Conj Tutg.N
Colour: ccffcf
EndChar

StartChar: f_A
Encoding: 153 -1 114
Width: 0
VWidth: 1000
GlyphClass: 3
Flags: W
HStem: 499 81<-309.188 -261.135 -166.594 -96.6625>
VStem: -375 64<580.504 697.16> -365 62<638.543 689.33> -116 63<561 667.925>
LayerCount: 2
Fore
SplineSet
-265 499 m 0xd0
 -329 499 -375 581 -375 638 c 0xd0
 -375 649 -370 698 -365 705 c 0
 -362 709 -360 708 -356 708 c 0
 -335 708 -303 660 -303 640 c 0xb0
 -303 633 -306 626 -307 619 c 0
 -309 607 -311 594 -311 582 c 2
 -311 580 l 1
 -309 580 l 2
 -286 580 -257 601 -250 623 c 0
 -248 629 -248 643 -245 647 c 0
 -243 650 -240 650 -236 650 c 0
 -208 650 -186 580 -156 580 c 0
 -130 580 -116 614 -116 636 c 0
 -116 669 -134 673 -134 696 c 0
 -134 704 -131 708 -123 708 c 0
 -116 708 -105 700 -100 695 c 0
 -70 667 -53 621 -53 580 c 0
 -53 542 -70 499 -114 499 c 0
 -141 499 -174 528 -191 547 c 1
 -200 521 -238 499 -265 499 c 0xd0
EndSplineSet
Ligature2: "Orig CCMP-1" Tutg.Reph Uml.Conj
EndChar

StartChar: Syl.P_P
Encoding: 154 -1 115
Width: 945
VWidth: 1000
GlyphClass: 3
Flags: W
HStem: -514 81<459 786.062> -184 81<210.622 371.706> -92 81<669.789 770.127> -4 81<454 781.062> 326 81<205.622 366.706> 418 81<664.789 765.127>
VStem: 22 64<-405.45 -297.759 95.6585 219.906> 446 63<-327.835 -240.59 188.882 268.473> 861 64<-364.266 -204.879 153.531 290.332>
AnchorPoint: "U" 664 -444 basechar 0
AnchorPoint: "VocR" 878 -460 basechar 0
AnchorPoint: "VocL B" 944 -511 basechar 0
LayerCount: 2
Fore
SplineSet
111 20 m 0
 59 65 17 127 17 198 c 0
 17 293 109 371 193 396 c 0
 218 404 244 407 270 407 c 0
 378 407 504 303 504 191 c 0
 504 152 482 112 454 79 c 1
 482 78 510 77 538 77 c 0
 600 77 747 77 797 109 c 0
 836 134 856 189 856 233 c 0
 856 308 821 418 730 418 c 0
 720 418 711 414 701 414 c 0
 680 414 648 462 648 482 c 0
 648 498 673 499 684 499 c 0
 794 499 878 367 906 273 c 0
 915 242 920 209 920 176 c 0
 920 124 898 60 852 31 c 0
 798 -3 658 -4 592 -4 c 0
 520 -4 449 1 377 1 c 2
 361 1 l 2
 359 0 357 0 355 0 c 0
 332 0 301 48 301 69 c 0
 301 77 306 80 312 81 c 1
 311 82 l 1
 361 108 441 189 441 248 c 0
 441 256 441 264 438 272 c 0
 436 276 429 283 425 286 c 0
 394 313 352 326 311 326 c 0
 227 326 139 277 99 203 c 0
 89 184 81 164 81 142 c 0
 81 75 123 86 148 35 c 0
 151 28 155 20 155 12 c 0
 155 4 152 0 144 0 c 0
 136 0 117 15 111 20 c 0
22 -312 m 0
 22 -217 114 -139 198 -114 c 0
 223 -106 249 -103 275 -103 c 0
 383 -103 509 -207 509 -319 c 0
 509 -358 487 -398 459 -431 c 1
 487 -432 515 -433 543 -433 c 0
 605 -433 752 -433 802 -401 c 0
 841 -376 861 -321 861 -277 c 0
 861 -202 826 -92 735 -92 c 0
 725 -92 716 -96 706 -96 c 0
 685 -96 653 -48 653 -28 c 0
 653 -12 678 -11 689 -11 c 0
 799 -11 883 -143 911 -237 c 0
 920 -268 925 -301 925 -334 c 0
 925 -386 903 -450 857 -479 c 0
 803 -513 663 -514 597 -514 c 0
 525 -514 454 -509 382 -509 c 2
 366 -509 l 2
 364 -510 362 -510 360 -510 c 0
 337 -510 306 -462 306 -441 c 0
 306 -433 311 -430 317 -429 c 1
 316 -428 l 1
 366 -402 446 -321 446 -262 c 0
 446 -254 446 -246 443 -238 c 0
 441 -234 434 -227 430 -224 c 0
 399 -197 357 -184 316 -184 c 0
 232 -184 144 -233 104 -307 c 0
 94 -326 86 -346 86 -368 c 0
 86 -435 128 -424 153 -475 c 0
 156 -482 160 -490 160 -498 c 0
 160 -506 157 -510 149 -510 c 0
 141 -510 122 -495 116 -490 c 0
 64 -445 22 -383 22 -312 c 0
EndSplineSet
Substitution2: "Link cons+-Ai-1" Wa.P_PAi
Substitution2: "Link cons+-Ee-1" Wa.P_PEe
Ligature2: "Subj ligs-1" Tutg.P Uml.Conj Tutg.P
LCarets2: 2 0 0
Colour: ccffcf
EndChar

StartChar: Syl.B_B
Encoding: 155 -1 116
Width: 861
VWidth: 1000
GlyphClass: 3
Flags: W
HStem: -247 80<423 754> 8 81<119.142 179.627 577 578> 147 81<90.5149 190.238> 415 80<145.351 258.205 391.607 520.091>
VStem: 17 64<228.036 336.452> 564 64<194.998 371.056> 754 64<-167 -25> 780 64<148.601 413.155>
AnchorPoint: "VocL B" 860 -248 basechar 0
AnchorPoint: "Rakar" 764 -204 basechar 0
AnchorPoint: "U" 761 -168 basechar 0
AnchorPoint: "VocR" 818 -235 basechar 0
LayerCount: 2
Fore
SplineSet
112 39 m 0xfe
 44 99 17 189 17 278 c 0
 17 371 59 495 171 495 c 0
 231 495 272 469 306 421 c 1
 325 480 370 498 428 498 c 0
 520 498 588 423 615 341 c 0
 625 312 628 281 628 250 c 0
 628 191 607 132 577 82 c 1
 616 82 674 83 709 101 c 0
 725 109 738 120 748 135 c 0
 780 183 780 280 780 337 c 0
 780 367 779 398 767 426 c 0
 760 443 741 468 741 486 c 0
 741 494 744 498 752 498 c 0
 761 498 775 486 780 480 c 0
 824 432 844 343 844 281 c 0xfd
 844 216 843 105 800 52 c 1
 810 37 818 21 818 11 c 2
 818 -235 l 2
 818 -243 815 -247 807 -247 c 2
 230 -247 l 2
 209 -247 177 -199 177 -179 c 0
 177 -163 208 -157 220 -152 c 2
 578 1 l 1
 541 1 495 2 490 4 c 0
 469 13 442 48 442 71 c 0
 442 74 442 78 444 80 c 0
 446 83 449 84 452 86 c 0
 520 131 564 228 564 307 c 0
 564 378 553 417 470 417 c 0
 377 417 357 353 357 273 c 0
 357 245 358 217 360 189 c 0
 361 174 363 160 363 145 c 0
 363 137 360 133 352 133 c 0
 333 133 306 173 301 190 c 0
 296 207 296 224 294 241 c 0
 289 294 291 349 274 400 c 1
 275 400 l 1
 255 411 235 415 213 415 c 0
 121 415 82 306 81 228 c 1
 147 228 206 210 242 152 c 0
 252 136 261 116 261 96 c 0
 261 51 220 8 175 8 c 0
 151 8 129 24 112 39 c 0xfe
754 -25 m 1xfe
 423 -167 l 1
 754 -167 l 1
 754 -25 l 1xfe
123 147 m 0
 111 147 101 142 90 139 c 1
 97 112 110 89 132 89 c 0
 157 89 187 114 195 137 c 1
 172 144 147 147 123 147 c 0
EndSplineSet
Substitution2: "Link cons+-Ai-1" Wa.B_BAi
Substitution2: "Link cons+-Ee-1" Wa.B_BEe
Ligature2: "Subj ligs-1" Tutg.B Uml.Conj Tutg.B
LCarets2: 2 0 0
Colour: ccffcf
EndChar

StartChar: Syl.M_M
Encoding: 156 -1 117
Width: 1094
VWidth: 1000
GlyphClass: 3
Flags: W
HStem: -7 81<235.934 381.73 738.343 992.618> 3 73<738 880.069> 6 95<36.2341 103.568> 417 81<187.022 301.317 651.899 812.03>
VStem: 90 64<308.878 384.373> 338 64<279.962 396.557> 849 64<291.351 396.188> 1013 64<78.5 181.033>
AnchorPoint: "VocR" 1050 21 basechar 0
AnchorPoint: "U" 854 50 basechar 0
AnchorPoint: "Rakar" 936 43 basechar 0
LayerCount: 2
Fore
SplineSet
65 6 m 0x3f
 45 12 17 52 17 73 c 0
 17 77 19 82 22 85 c 0
 25 88 58 99 65 101 c 0x3f
 163 136 271 193 319 290 c 0
 330 312 338 341 338 365 c 0
 338 378 339 390 327 398 c 0
 309 411 279 417 257 417 c 0
 198 417 154 377 154 317 c 0
 154 311 155 307 155 301 c 0
 155 293 152 289 144 289 c 0
 125 289 98 329 93 346 c 0
 90 355 90 365 90 374 c 0
 90 449 139 498 214 498 c 0
 312 498 402 406 402 308 c 0
 402 202 318 123 233 74 c 1
 273 74 l 2x9f
 355 74 389 82 421 160 c 0
 443 216 449 275 478 329 c 0
 479 332 481 335 482 338 c 0
 485 351 500 377 505 386 c 0
 554 463 631 498 721 498 c 0
 816 498 913 414 913 316 c 0
 913 211 821 126 738 76 c 1x5f
 776 75 813 74 851 74 c 0
 879 74 963 76 984 91 c 0
 1000 102 1013 128 1013 148 c 0
 1013 194 985 211 955 238 c 0
 941 250 923 276 923 295 c 0
 923 303 926 307 934 307 c 0
 942 307 961 292 968 286 c 0
 1021 241 1077 164 1077 92 c 0
 1077 65 1063 28 1040 13 c 0
 1012 -5 928 -7 893 -7 c 0x9f
 801 -7 710 -1 618 3 c 0x5f
 609 3 581 4 574 6 c 0x3f
 553 13 526 51 526 73 c 0
 526 77 528 82 531 85 c 0
 535 88 569 101 577 104 c 0
 677 144 784 203 832 305 c 0
 841 325 849 350 849 372 c 0
 849 382 850 387 843 395 c 0
 831 408 780 417 762 417 c 0
 672 417 590 373 552 290 c 0
 549 284 548 276 543 269 c 0
 538 253 517 211 513 197 c 0
 495 137 487 75 444 27 c 0
 415 -7 356 -7 315 -7 c 0x9f
 245 -7 174 0 104 3 c 0x5f
 95 3 72 4 65 6 c 0x3f
EndSplineSet
Substitution2: "Link cons+-Ai-1" Wa.M_MAi
Substitution2: "Link cons+-Ee-1" Wa.M_MEe
Ligature2: "Subj ligs-1" Tutg.M Uml.Conj Tutg.M
LCarets2: 2 0 0
Colour: ccffcf
EndChar

StartChar: Syl.L_L
Encoding: 157 -1 118
Width: 1098
VWidth: 1000
GlyphClass: 3
Flags: W
HStem: -2 71<207.673 705 756.891 1042.06> 119 72<215.681 472.799 769.128 1023.8> 228 72<73.9981 152.191 624.999 703.191> 248 79<291.875 456.952 842.262 1009.67> 427 72<174.222 401.712 726.46 950.247>
VStem: 17 56<302.293 367.848> 161 57<280.5 380.341> 473 56<346.836 394.404> 568 56<301.293 366.848> 698 58<70.2216 103.907> 712 57<279.5 379.341> 1024 56<345.836 394.341>
AnchorPoint: "VocR" 1019 -2 basechar 0
AnchorPoint: "Rakar" 938 39 basechar 0
AnchorPoint: "U" 872 53 basechar 0
LayerCount: 2
Fore
SplineSet
276 309 m 0xdfd0
 276 315 276 327 330 327 c 0xdfd0
 387 330 473 334 473 380 c 2
 473 382 l 1
 428 415 349 427 294 427 c 0
 260 427 213 423 172 411 c 1
 199 378 218 335 218 304 c 0
 218 257 185 228 139 228 c 0
 69 228 17 301 17 366 c 0
 17 425 77 499 257 499 c 0
 440 499 529 403 529 330 c 0
 529 294 505 277 472 267 c 1
 497 245 530 204 530 169 c 0
 530 121 486 112 447 112 c 0
 402 112 358 119 313 119 c 0
 278 119 215 117 205 74 c 1
 262 63 320 63 378 63 c 0
 487 63 596 68 705 69 c 1
 700 82 698 96 698 110 c 0xefd0
 698 184 770 190 827 190 c 0
 872 190 917 183 962 183 c 0
 984 183 1020 186 1025 214 c 1
 989 236 960 252 919 254 c 0
 911 253 903 253 896 252 c 0
 888 250 881 247 873 247 c 0
 854 247 827 291 827 308 c 0
 827 315 827 326 881 326 c 0
 938 329 1024 333 1024 379 c 2
 1024 381 l 1
 979 414 900 426 845 426 c 0
 811 426 764 422 723 410 c 1
 750 377 769 334 769 303 c 0xefb0
 769 256 736 227 690 227 c 0
 620 227 568 300 568 365 c 0
 568 430 635 498 808 498 c 0
 1000 498 1080 396 1080 329 c 0
 1080 293 1056 276 1023 266 c 1
 1048 244 1081 203 1081 168 c 0
 1081 120 1037 111 998 111 c 0
 953 111 909 118 864 118 c 0
 825 118 770 117 756 73 c 1
 756 72 l 1
 775 70 795 69 814 69 c 0
 860 69 906 70 952 70 c 0
 998 70 1037 66 1065 25 c 0
 1071 16 1079 3 1079 -9 c 0
 1079 -16 1076 -20 1069 -20 c 0
 1059 -20 1053 -9 1043 -6 c 0
 1023 -1 999 -2 979 -2 c 0
 936 -2 894 -3 851 -3 c 0
 836 -3 822 -3 807 -2 c 0
 789 -3 742 -3 734 -3 c 0
 635 -5 535 -9 436 -9 c 0
 383 -9 239 -10 196 16 c 0
 163 36 147 74 147 111 c 0
 147 185 219 191 276 191 c 0
 321 191 366 184 411 184 c 0
 433 184 469 187 474 215 c 1
 438 237 409 253 368 255 c 0
 360 254 352 254 345 253 c 0
 337 251 330 248 322 248 c 0
 303 248 276 292 276 309 c 0xdfd0
134 383 m 0
 97 383 73 343 73 316 c 2
 73 305 l 1
 82 301 91 300 101 300 c 0xef90
 133 300 161 320 161 354 c 0
 161 373 153 383 134 383 c 0
685 382 m 0
 648 382 624 342 624 315 c 2
 624 304 l 1
 633 300 643 299 652 299 c 0
 684 299 712 319 712 353 c 0xcfb0
 712 372 704 382 685 382 c 0
EndSplineSet
Substitution2: "Link cons+-Ai-1" Wa.L_LAi
Substitution2: "Link cons+-Ee-1" Wa.L_LEe
Ligature2: "Subj ligs-1" Tutg.Ll Uml.Conj Tutg.Ll
LCarets2: 2 0 0
Colour: ccffcf
EndChar

StartChar: Syl.C_Ch
Encoding: 158 -1 119
Width: 1293
VWidth: 1000
GlyphClass: 3
Flags: W
HStem: 4 81<317 663.67 1076.58 1153.22> 177 81<1061.46 1171.28> 416 81<200.721 341.181 960.344 1121.71>
VStem: 79 62<299.67 355.671> 395 63<256.859 380.879> 689 64<131.413 315.239> 860 63<92.967 374.864> 992 63<101.326 206> 1211 64<175.738 319.299>
AnchorPoint: "U" 1180 94 basechar 0
AnchorPoint: "Rakar" 1142 58 basechar 0
AnchorPoint: "VocR" 1228 53 basechar 0
LayerCount: 2
Fore
SplineSet
65 6 m 0
 44 15 17 50 17 73 c 0
 17 76 18 82 21 84 c 0
 25 86 38 86 43 87 c 0
 173 101 395 191 395 339 c 0
 395 374 392 386 360 402 c 0
 337 413 311 416 286 416 c 0
 218 416 155 373 144 304 c 0
 143 298 144 289 141 284 c 0
 139 281 135 281 132 281 c 0
 111 281 79 329 79 349 c 0
 79 438 159 497 243 497 c 0
 360 497 458 400 458 283 c 0
 458 190 392 125 317 81 c 1
 359 81 l 2
 420 81 482 82 543 83 c 0
 571 84 601 80 629 86 c 0
 682 99 689 169 689 215 c 0
 689 266 678 356 646 396 c 0
 640 404 627 405 619 409 c 0
 601 419 576 453 576 474 c 0
 576 482 579 486 587 486 c 0
 602 486 631 467 642 457 c 0
 721 386 753 261 753 158 c 0
 753 152 753 147 752 140 c 1
 777 123 811 94 820 86 c 1
 858 91 860 144 860 173 c 0
 860 217 855 260 855 304 c 0
 855 420 883 503 1015 503 c 0
 1165 503 1275 338 1275 200 c 0
 1275 173 1271 145 1263 119 c 0
 1246 67 1202 4 1141 4 c 0
 1067 4 992 113 992 182 c 0
 992 230 1020 258 1068 258 c 0
 1112 258 1169 237 1208 215 c 1
 1210 229 1211 243 1211 256 c 0
 1211 355 1160 423 1057 423 c 0
 942 423 919 348 919 248 c 0
 919 204 923 160 923 116 c 0
 923 69 917 4 856 4 c 0
 844 4 769 67 745 90 c 1
 737 52 719 13 678 5 c 0
 649 -1 618 3 589 2 c 0
 526 1 463 0 400 0 c 0
 359 0 79 0 65 6 c 0
1055 126 m 0
 1055 98 1073 85 1099 85 c 0
 1139 85 1172 124 1190 159 c 1
 1165 170 1139 177 1111 177 c 0
 1079 177 1055 159 1055 126 c 0
EndSplineSet
Substitution2: "Link cons+-Ai-1" Wa.C_ChAi
Substitution2: "Link cons+-Ee-1" Wa.C_ChEe
Ligature2: "Subj ligs-1" Tutg.C Uml.Conj Tutg.Ch
LCarets2: 2 0 0
Colour: ccffcf
EndChar

StartChar: Syl.Ng_KU
Encoding: 159 -1 120
Width: 1319
VWidth: 1000
GlyphClass: 3
Flags: W
HStem: 0 81<94.5248 205.471 585.009 648.345 847.217 906.538 1148 1282.24> 198 81<103.067 216.578> 416 81<196.252 316.212 545.488 699.677 894.618 1029.65>
VStem: 17 63<99.2952 209.164> 245 64<117.035 186.146> 522 63<81.0535 180.592> 958 64<146.143 286.275> 1096 63<108.664 317.412>
LayerCount: 2
Fore
SplineSet
96 22 m 0
 44 60 17 160 17 222 c 0
 17 253 20 284 29 314 c 0
 55 404 131 497 232 497 c 0
 311 497 372 436 412 374 c 1
 443 466 534 502 624 502 c 0
 679 502 735 492 787 472 c 1
 828 491 875 505 921 505 c 0
 1091 505 1159 309 1159 167 c 0
 1159 138 1155 108 1148 80 c 1
 1165 80 1246 82 1254 79 c 0
 1275 71 1302 35 1302 12 c 0
 1302 4 1299 0 1291 0 c 2
 1100 0 l 2
 1079 0 1047 48 1047 68 c 0
 1047 77 1063 95 1068 103 c 0
 1087 135 1096 187 1096 224 c 0
 1096 269 1085 367 1051 398 c 0
 1029 418 992 424 963 424 c 0
 942 424 918 420 893 412 c 1
 959 362 1022 275 1022 189 c 0
 1022 173 1021 157 1018 142 c 0
 1010 99 974 23 933 4 c 0
 923 -1 913 -2 902 -2 c 0
 858 -2 802 69 782 104 c 1
 747 64 691 -1 633 -1 c 0
 572 -1 522 95 522 153 c 0
 522 251 612 354 701 420 c 1
 689 421 678 421 666 421 c 0
 570 421 480 376 467 274 c 0
 466 265 467 247 464 240 c 0
 462 237 458 237 455 237 c 0
 450 237 440 243 436 246 c 0
 407 270 403 299 390 332 c 0
 369 383 332 416 275 416 c 0
 198 416 131 347 102 279 c 1
 161 279 237 258 276 210 c 0
 295 186 309 144 309 114 c 0
 309 38 234 0 167 0 c 0
 142 0 117 7 96 22 c 0
832 388 m 1
 709 327 585 201 585 91 c 0
 585 88 586 83 587 80 c 2
 591 80 l 2
 631 80 686 137 711 165 c 0
 721 176 731 191 742 200 c 0
 744 201 747 201 749 201 c 0
 763 201 783 177 790 167 c 0
 805 146 833 79 861 79 c 0
 905 79 942 157 952 194 c 0
 956 211 958 228 958 245 c 0
 958 319 893 361 832 388 c 1
152 198 m 0
 127 198 105 193 81 186 c 1
 80 179 80 172 80 165 c 0
 80 146 87 102 95 85 c 1
 105 83 115 81 125 81 c 0
 175 81 245 113 245 171 c 2
 245 176 l 1
 220 191 181 198 152 198 c 0
EndSplineSet
Ligature2: "Subj ligs-1" Tutg.Ng Uml.Conj Tutg.K Uml.U
LCarets2: 3 344 516 1042
Colour: ff00
EndChar

StartChar: Syl.Ng_KUu
Encoding: 160 -1 121
Width: 1287
VWidth: 1000
GlyphClass: 3
Flags: W
HStem: -232 81<670.62 1254.29> -119 81<676.116 1090.45> 0 81<94.5248 205.471 585.445 646.548 847.217 906.759> 198 81<103.067 216.578> 414 81<194.708 319.875 541.731 697.671 910.301 1141.56>
VStem: 17 63<99.095 209.164> 245 64<117.035 186.146> 522 63<80.6152 178.885> 958 64<146.143 285.211> 1182 64<44.0605 148.38 296.613 390.758>
LayerCount: 2
Fore
SplineSet
17 222 m 0
 17 253 20 284 29 314 c 0
 55 404 131 497 232 497 c 0
 311 497 372 436 412 374 c 1
 443 466 534 502 624 502 c 0
 684 502 744 490 800 467 c 1
 863 486 935 495 992 495 c 0
 1052 495 1135 487 1182 445 c 0
 1219 413 1245 354 1245 306 c 0
 1245 257 1227 222 1186 196 c 1
 1223 160 1246 109 1246 57 c 0
 1246 24 1232 -10 1212 -37 c 0
 1163 -103 1086 -120 1008 -120 c 2
 809 -119 l 2
 768 -119 696 -113 669 -151 c 1
 852 -149 1034 -145 1217 -145 c 0
 1238 -145 1270 -193 1270 -213 c 0
 1270 -227 1258 -227 1247 -227 c 0
 1059 -227 873 -232 685 -232 c 0
 641 -232 597 -157 597 -118 c 0
 597 -49 673 -38 726 -38 c 0
 792 -38 857 -39 923 -39 c 0
 962 -39 1002 -41 1041 -32 c 0
 1115 -15 1182 43 1182 124 c 0
 1182 128 1180 144 1178 147 c 0
 1177 149 1167 154 1165 155 c 0
 1125 177 1104 154 1071 204 c 0
 1065 213 1058 227 1058 238 c 0
 1058 241 1059 247 1062 249 c 0
 1066 251 1090 256 1096 258 c 0
 1145 274 1182 309 1182 363 c 0
 1182 372 1180 380 1177 389 c 1
 1146 409 1071 414 1033 414 c 0
 996 414 951 410 908 401 c 1
 967 351 1022 269 1022 189 c 0
 1022 173 1021 157 1018 142 c 0
 1010 99 974 23 933 4 c 0
 922 -1 913 -2 902 -2 c 0
 858 -2 802 69 782 104 c 1
 747 64 691 -1 633 -1 c 0
 573 -1 522 94 522 151 c 0
 522 250 618 364 699 420 c 1
 688 421 677 421 666 421 c 0
 570 421 480 376 467 274 c 0
 466 265 467 247 464 240 c 0
 462 237 458 237 455 237 c 0
 449 237 440 243 436 246 c 0
 408 269 403 300 390 332 c 0
 369 383 332 416 275 416 c 0
 198 416 131 347 102 279 c 1
 161 279 237 258 276 210 c 0
 295 186 309 144 309 114 c 0
 309 38 234 0 167 0 c 0
 142 0 117 7 96 22 c 0
 44 60 17 160 17 222 c 0
585 94 m 0
 585 89 586 85 587 80 c 1
 591 80 l 2
 630 80 686 137 711 165 c 0
 721 176 731 191 742 200 c 0
 744 201 747 201 749 201 c 0
 763 201 783 177 790 167 c 0
 805 146 833 79 861 79 c 0
 905 79 942 157 952 194 c 0
 956 211 958 228 958 245 c 0
 958 316 899 356 841 384 c 1
 817 376 795 367 776 356 c 0
 700 313 585 189 585 94 c 0
152 198 m 0
 127 198 105 193 81 186 c 1
 80 179 80 172 80 165 c 0
 80 146 87 101 95 85 c 1
 105 83 115 81 125 81 c 0
 175 81 245 113 245 171 c 2
 245 176 l 1
 220 191 181 198 152 198 c 0
EndSplineSet
Ligature2: "Subj ligs-1" Tutg.Ng Uml.Conj Tutg.K Uml.Uu
LCarets2: 3 368 576 1030
Colour: ff00
EndChar

StartChar: Syl.Ny_GU
Encoding: 161 -1 122
Width: 789
VWidth: 1000
GlyphClass: 3
Flags: W
HStem: -505 80<134.087 261.641 509.205 606.853 722 900.875> -89 81<159.073 271.618> -83 80<486.753 615.085> -2 21G<651.5 659> 113 81<116.221 200.002> 243 81<511.771 597.117> 257 78<106.449 208.368> 416 81<158.006 280.567 489.192 670.743>
VStem: 10 64<-355.747 -182.043> 211 64<205.613 254.92> 599 67<20.0055 106> 684 63<-351.59 -178.483> 702 64<299.584 396.123>
LayerCount: 2
Fore
SplineSet
19 321 m 0x9be8
 19 416 99 497 194 497 c 0
 258 497 316 456 352 406 c 1
 396 467 492 503 566 503 c 0
 644 503 706 460 744 393 c 0
 756 371 766 345 766 319 c 0
 766 249 718 189 666 148 c 1
 666 117 663 88 663 57 c 0
 663 41 666 26 666 10 c 0
 666 2 663 -2 655 -2 c 0
 648 -2 637 7 632 11 c 0
 603 38 599 69 599 106 c 1
 574 95 549 88 525 88 c 0
 464 88 412 158 412 215 c 0
 412 273 476 324 531 324 c 0x9de8
 575 324 617 289 641 250 c 1
 677 290 702 337 702 375 c 0
 702 380 701 385 700 390 c 2
 700 391 l 1
 683 415 633 422 606 422 c 0
 545 422 434 381 404 321 c 0
 401 316 401 309 398 304 c 0
 396 301 393 301 389 301 c 0
 375 301 354 326 348 337 c 0
 343 345 341 353 336 361 c 0
 314 399 281 416 237 416 c 0
 182 416 129 381 102 333 c 1
 105 334 108 335 110 335 c 0
 119 337 127 338 136 338 c 0
 207 338 275 263 275 194 c 0
 275 148 240 113 194 113 c 0
 94 113 19 229 19 321 c 0x9be8
10 -232 m 0
 10 -114 75 -8 203 -8 c 0
 243 -8 263 -14 283 -50 c 0
 288 -59 293 -70 293 -80 c 0
 293 -88 290 -92 282 -92 c 0
 269 -92 257 -89 244 -89 c 0xd9f0
 133 -89 74 -187 74 -289 c 0
 74 -361 90 -425 175 -425 c 0
 417 -425 262 -80 469 -12 c 0
 493 -4 521 -3 547 -3 c 0
 576 -3 604 -18 626 -36 c 0
 705 -100 747 -214 747 -314 c 0
 747 -354 738 -390 722 -419 c 1
 791 -420 866 -420 869 -422 c 0
 890 -431 917 -466 917 -489 c 0
 917 -497 914 -501 906 -501 c 2
 795 -502 l 2
 772 -502 539 -502 533 -499 c 0
 512 -490 482 -451 482 -427 c 0
 482 -419 485 -415 493 -415 c 0
 506 -415 520 -417 533 -417 c 0
 628 -417 684 -349 684 -257 c 0
 684 -200 665 -83 589 -83 c 0xb9f0
 561 -83 528 -86 502 -99 c 0
 333 -183 476 -505 217 -505 c 0
 120 -505 48 -409 23 -324 c 0
 14 -294 10 -263 10 -232 c 0
573 243 m 0x9de0
 534 243 487 208 477 170 c 1
 481 169 l 2
 517 160 563 180 603 213 c 1
 603 222 603 229 601 237 c 1
 592 242 583 243 573 243 c 0x9de0
89 225 m 1
 94 200 129 194 150 194 c 0
 180 194 211 218 211 250 c 2
 211 252 l 1
 201 256 191 257 180 257 c 0x9be0
 144 257 100 226 89 225 c 1
EndSplineSet
Ligature2: "Subj ligs-1" Tutg.Ng Uml.Conj Tutg.G Uml.U
LCarets2: 3 352 524 706
Colour: ff00
EndChar

StartChar: Syl.Ny_GUu
Encoding: 162 -1 123
Width: 786
VWidth: 1000
GlyphClass: 3
Flags: W
HStem: -726 81<158.248 746.29> -606 81<169.904 594.05> -505 80<134.087 263.46> -89 81<159.073 271.532 479.062 593.906> -2 21G<651.5 659> 113 81<116.221 200.002> 243 81<511.771 597.117> 257 78<106.449 208.368> 416 81<158.006 280.567 489.192 670.743>
VStem: 10 64<-355.747 -182.043> 211 64<205.613 254.92> 599 67<20.0055 106> 690 63<-445.141 -362.016> 703 63<-217.14 -113.122 302.781 396.123>
LayerCount: 2
Fore
SplineSet
10 -232 m 0xfcf4
 10 -114 75 -8 203 -8 c 0
 242 -8 263 -14 283 -50 c 0
 288 -59 293 -70 293 -80 c 0
 293 -88 290 -92 282 -92 c 0
 269 -92 257 -89 244 -89 c 0
 133 -89 74 -187 74 -289 c 0
 74 -361 90 -425 175 -425 c 0
 417 -425 262 -81 469 -12 c 0
 491 -5 526 -2 550 -2 c 0
 632 -2 700 -41 742 -111 c 0
 756 -135 766 -163 766 -192 c 0xfcf4
 766 -246 726 -281 681 -303 c 1
 720 -336 753 -388 753 -440 c 0
 753 -529 661 -586 583 -601 c 0
 555 -606 527 -607 499 -607 c 2
 310 -606 l 2
 266 -606 183 -598 158 -645 c 1
 342 -643 525 -639 709 -639 c 0
 730 -639 762 -687 762 -707 c 0
 762 -720 752 -720 742 -720 c 0
 554 -720 366 -726 177 -726 c 0
 132 -726 89 -649 89 -609 c 0
 89 -538 162 -525 218 -525 c 0
 283 -525 350 -526 415 -526 c 0
 502 -526 581 -527 649 -464 c 0
 670 -444 690 -414 690 -384 c 0xfcf8
 690 -379 689 -371 687 -366 c 0
 681 -353 626 -334 611 -331 c 0
 601 -329 589 -328 580 -323 c 0
 562 -314 537 -279 537 -258 c 0
 537 -254 538 -249 541 -247 c 0
 543 -246 583 -239 590 -237 c 0
 636 -225 703 -190 703 -135 c 0
 703 -129 702 -120 698 -115 c 0
 697 -114 690 -109 689 -108 c 0
 663 -90 625 -83 594 -83 c 0
 592 -84 590 -84 588 -84 c 0
 583 -84 578 -84 573 -84 c 0
 567 -85 561 -86 554 -86 c 0
 303 -117 500 -505 217 -505 c 0
 120 -505 48 -409 23 -324 c 0
 14 -294 10 -263 10 -232 c 0xfcf4
194 113 m 0
 94 113 19 229 19 321 c 0
 19 416 99 497 194 497 c 0
 258 497 316 456 352 406 c 1
 396 467 492 503 566 503 c 0
 644 503 706 460 744 393 c 0
 756 371 766 345 766 319 c 0
 766 249 718 189 666 148 c 1
 666 117 663 88 663 57 c 0
 663 41 666 26 666 10 c 0
 666 2 663 -2 655 -2 c 0
 648 -2 637 7 632 11 c 0
 603 38 599 69 599 106 c 1
 574 95 549 88 525 88 c 0
 464 88 412 158 412 215 c 0
 412 273 476 324 531 324 c 0xfef4
 575 324 617 289 641 250 c 1
 677 290 702 337 702 375 c 0
 702 380 701 385 700 390 c 2
 700 391 l 1
 683 415 633 422 606 422 c 0
 545 422 434 381 404 321 c 0
 401 316 401 309 398 304 c 0
 396 301 393 301 389 301 c 0
 375 301 354 326 348 337 c 0
 343 345 341 353 336 361 c 0
 314 399 281 416 237 416 c 0
 182 416 129 381 102 333 c 1
 105 334 108 335 110 335 c 0xfdf4
 119 337 127 338 136 338 c 0
 207 338 275 263 275 194 c 0
 275 148 240 113 194 113 c 0
573 243 m 0
 534 243 487 208 477 170 c 1
 481 169 l 2
 517 160 563 180 603 213 c 1
 603 222 603 229 601 237 c 1
 592 242 583 243 573 243 c 0
89 225 m 1
 94 200 129 194 150 194 c 0
 180 194 211 218 211 250 c 2
 211 252 l 1
 201 256 191 257 180 257 c 0xfdf0
 144 257 100 226 89 225 c 1
EndSplineSet
Ligature2: "Subj ligs-1" Tutg.Ng Uml.Conj Tutg.G Uml.Uu
LCarets2: 3 290 466 662
Colour: ff00
EndChar

StartChar: Lig.Ny_ChU
Encoding: 163 -1 124
Width: 1444
VWidth: 1000
GlyphClass: 3
Flags: W
HStem: -246 80<830.708 1358.24> -129 80<841.973 1340.59> -4 81<922.788 960.649> 6 80<99.5814 186.401 1205.25 1261.37> 147 81<1214.91 1284.88> 421 81<173.728 279.98 450.549 567.023 694.839 807.163 1089.83 1204.6>
VStem: 198 64<58 172.58> 473 63<98.5726 242.743> 640 63<154.909 348.375> 858 63<78.0176 387.406> 971 63<84.967 366.864> 1142 63<80.3686 173.5> 1308 63<213 321.417> 1381 63<-6.01635 111.87>
LayerCount: 2
Fore
SplineSet
169 6 m 0xdffc
 94 6 17 92 17 221 c 0
 17 320 68 502 192 502 c 0
 259 502 310 465 340 412 c 1
 366 463 411 499 483 499 c 0
 535 499 574 491 614 457 c 1
 647 481 684 496 724 496 c 0
 762 496 928 482 928 237 c 0
 928 194 921 165 921 108 c 0
 921 97 922 88 923 77 c 1
 924 77 l 2
 968 77 971 133 971 165 c 0
 971 209 966 252 966 296 c 0
 966 412 994 495 1126 495 c 0
 1272 495 1371 334 1371 201 c 0
 1371 193 1371 184 1370 175 c 1
 1412 137 1444 76 1444 21 c 0
 1444 -41 1418 -105 1354 -125 c 0
 1321 -135 1219 -136 1180 -136 c 0
 1140 -136 1072 -129 951 -129 c 0
 918 -129 850 -137 829 -166 c 1
 885 -166 1323 -164 1330 -167 c 0
 1351 -177 1378 -210 1378 -234 c 0
 1378 -242 1375 -246 1367 -246 c 2
 841 -246 l 2
 797 -246 753 -174 753 -135 c 0
 753 -60 853 -49 909 -49 c 0
 1040 -49 1136 -55 1138 -55 c 0
 1140 -55 1270 -55 1305 -45 c 0
 1357 -30 1381 28 1381 78 c 0
 1381 94 1378 115 1363 124 c 1
 1350 73 1313 -2 1255 -2 c 0
 1197 -2 1142 93 1142 145 c 0
 1142 202 1175 228 1230 228 c 0
 1252 228 1279 222 1304 213 c 1
 1307 228 1308 243 1308 257 c 0
 1308 350 1267 415 1168 415 c 0
 1053 415 1030 340 1030 240 c 0
 1030 196 1034 152 1034 108 c 0
 1034 61 1028 -4 967 -4 c 0xeffc
 919 -4 878 53 866 94 c 0
 859 117 858 141 858 165 c 0
 858 215 862 258 862 296 c 0
 862 326 862 356 852 384 c 0
 837 415 762 416 761 416 c 4
 729 416 699 401 671 380 c 1
 693 334 703 279 703 231 c 0
 703 122 660 8 602 8 c 0
 546 8 473 106 473 191 c 0
 473 275 512 354 568 416 c 1
 553 418 539 418 527 418 c 0
 351 418 376 176 367 164 c 0
 365 161 362 161 358 161 c 0
 337 161 305 209 305 229 c 0
 305 256 307 285 311 314 c 0
 311 337 311 360 306 383 c 0
 304 391 300 398 298 406 c 1
 281 420 256 421 235 421 c 0
 169 421 125 350 104 296 c 1
 182 285 262 158 262 86 c 0
 262 30 221 6 169 6 c 0xdffc
557 89 m 0
 602 89 640 198 640 288 c 0
 640 307 638 329 634 349 c 1
 578 292 536 216 536 134 c 0
 536 123 540 101 546 92 c 0
 548 90 555 89 557 89 c 0
82 138 m 1
 87 92 93 86 125 86 c 0xdffc
 160 86 198 103 198 143 c 0
 198 175 174 215 138 215 c 0
 95 215 90 157 82 138 c 1
1205 88 m 0
 1205 79 1205 79 1214 79 c 0
 1244 79 1274 123 1285 146 c 1
 1280 147 1275 147 1272 147 c 0
 1235 147 1205 128 1205 88 c 0
EndSplineSet
Ligature2: "Subj ligs-1" Tutg.Ny Uml.Conj Tutg.Ch Uml.U
LCarets2: 3 676 848 1224
Colour: ff00
EndChar

StartChar: Lig.Ny_ChUu
Encoding: 164 -1 125
Width: 1518
VWidth: 1000
GlyphClass: 3
Flags: W
HStem: -249 80<889.035 1479.17> -132 81<897.55 1434.26> -4 81<922.788 960.649 1212.94 1255.23> 6 80<99.5814 186.401 549.909 631> 192 81<1236.57 1299.77> 421 81<173.728 279.98 450.549 567.023 695.826 808.144 1089.83 1204.18>
VStem: 198 64<58 172.58> 473 63<98.5726 242.743> 640 63<154.909 348.375> 858 63<78.0176 389.239> 971 63<84.967 366.864> 1145 64<81.9885 164.427> 1453 65<-30.0485 9.30859>
LayerCount: 2
Fore
SplineSet
169 6 m 0xdff8
 94 6 17 92 17 221 c 0
 17 320 68 502 192 502 c 0
 259 502 310 465 340 412 c 1
 366 463 411 499 483 499 c 0
 535 499 574 491 614 457 c 1
 647 481 684 496 724 496 c 0
 805 496 928 445 928 237 c 0
 928 194 921 165 921 108 c 0
 921 97 922 88 923 77 c 1
 924 77 l 2
 968 77 971 133 971 165 c 0
 971 209 966 252 966 296 c 0
 966 412 994 495 1126 495 c 0
 1252 495 1344 374 1366 255 c 1
 1491 217 1505 128 1505 113 c 0
 1505 85 1492 60 1473 40 c 1
 1495 16 1518 -18 1518 -52 c 0
 1518 -122 1423 -133 1371 -133 c 0
 1258 -133 1144 -132 1031 -132 c 0
 989 -132 917 -135 886 -166 c 1
 902 -168 919 -169 935 -169 c 2
 1370 -169 l 2
 1384 -169 1442 -167 1450 -170 c 0
 1471 -177 1498 -215 1498 -237 c 0
 1498 -245 1495 -249 1487 -249 c 2
 961 -249 l 2
 837 -249 811 -150 811 -128 c 0
 811 -58 935 -51 984 -51 c 0
 1098 -51 1213 -52 1327 -52 c 0
 1369 -52 1434 -47 1453 -2 c 1
 1453 -1 l 1
 1442 4 1430 8 1420 15 c 0
 1404 27 1382 57 1382 77 c 0xeff8
 1382 79 1383 84 1384 86 c 0xdff8
 1388 92 1431 120 1441 159 c 1
 1425 169 1398 178 1371 184 c 1
 1364 51 1297 0 1260 0 c 0
 1214 0 1145 76 1145 161 c 0
 1145 235 1198 273 1268 273 c 0
 1280 273 1293 272 1308 269 c 1
 1304 356 1263 415 1168 415 c 0
 1053 415 1030 340 1030 240 c 0
 1030 196 1034 152 1034 108 c 0
 1034 61 1028 -4 967 -4 c 0xeff8
 919 -4 878 53 866 94 c 0
 859 117 858 141 858 165 c 0
 858 215 862 258 862 296 c 0
 862 326 862 356 852 384 c 0
 837 415 762 416 761 416 c 4
 730 416 699 401 671 380 c 1
 693 334 703 279 703 231 c 0
 703 122 660 8 602 8 c 0
 546 8 473 106 473 191 c 0
 473 275 512 354 568 416 c 1
 553 418 539 418 527 418 c 0
 351 418 376 176 367 164 c 0
 365 161 362 161 358 161 c 0
 337 161 305 209 305 229 c 0
 305 256 307 285 311 314 c 0
 311 337 311 360 306 383 c 0
 304 391 300 398 298 406 c 1
 281 420 256 421 235 421 c 0
 169 421 125 350 104 296 c 1
 182 285 262 158 262 86 c 0
 262 30 221 6 169 6 c 0xdff8
557 89 m 0
 602 89 640 198 640 288 c 0
 640 307 638 329 634 349 c 1
 578 292 536 216 536 134 c 0
 536 123 540 101 546 92 c 0
 548 90 555 89 557 89 c 0
82 138 m 1
 87 92 93 86 125 86 c 0xdff8
 160 86 198 103 198 143 c 0
 198 175 174 215 138 215 c 0
 95 215 90 157 82 138 c 1
1209 105 m 0
 1209 97 1209 89 1211 81 c 1
 1217 81 l 2
 1239 81 1281 112 1300 192 c 1
 1251 189 1209 158 1209 105 c 0
EndSplineSet
Ligature2: "Subj ligs-1" Tutg.Ny Uml.Conj Tutg.Ch Uml.Uu
LCarets2: 3 0 0 0
Colour: ff00
EndChar

StartChar: Syl.N_TU
Encoding: 165 -1 126
Width: 1270
VWidth: 1000
GlyphClass: 3
Flags: W
HStem: -9 80<1094 1250.24> -1 81<674.453 766.526> 1 21G<145 154 373.5 384.5> 416 81<131.487 246.709 517.571 683.527 853.17 1003.27>
VStem: 17 63<151.341 358.401> 329 65<58.8186 255.517> 606 63<85.7929 205.957> 794 63<108.586 268.854> 1065 64<158.853 362.823>
LayerCount: 2
Fore
SplineSet
118 23 m 0x3f80
 51 90 17 199 17 293 c 0
 17 352 30 442 84 477 c 0
 105 491 140 497 165 497 c 0
 261 497 329 404 355 321 c 1
 372 385 410 439 466 471 c 0
 502 489 538 502 579 502 c 0
 642 502 696 472 739 428 c 1
 786 470 843 498 905 498 c 0
 1038 498 1129 376 1129 250 c 0
 1129 189 1118 127 1094 71 c 1
 1111 71 1215 73 1222 70 c 0
 1243 61 1270 26 1270 3 c 0
 1270 -5 1267 -9 1259 -9 c 2
 1032 -9 l 2x9f80
 1011 -9 979 39 979 59 c 0
 979 72 989 73 997 81 c 0
 1005 89 1011 100 1017 110 c 0
 1051 169 1065 239 1065 306 c 0
 1065 335 1060 380 1033 397 c 0
 1009 412 975 418 947 418 c 0
 894 418 842 391 796 350 c 1
 835 281 857 200 857 133 c 0
 857 68 828 -1 753 -1 c 0x5f80
 661 -1 606 83 606 169 c 0
 606 246 659 341 708 397 c 1
 683 413 654 421 620 421 c 0
 613 421 606 420 598 419 c 0
 584 416 571 413 557 408 c 0
 548 405 528 394 518 392 c 0
 408 326 394 175 394 59 c 0
 394 49 395 10 392 4 c 0
 390 1 386 1 383 1 c 0x3f80
 364 1 337 41 332 58 c 0
 327 75 330 122 329 142 c 0
 327 211 317 321 283 381 c 0
 267 409 238 416 208 416 c 0
 103 416 80 323 80 237 c 0
 80 186 92 123 120 80 c 0x5f80
 135 58 161 44 161 13 c 0
 161 5 158 1 150 1 c 0
 140 1 125 16 118 23 c 0x3f80
669 101 m 0
 669 96 670 92 671 87 c 1
 683 82 699 80 712 80 c 0x5f80
 770 80 794 140 794 190 c 0
 794 234 786 280 767 321 c 1
 709 256 669 171 669 101 c 0
EndSplineSet
Ligature2: "Subj ligs-1" Tutg.N Uml.Conj Tutg.T Uml.U
Colour: ff00
EndChar

StartChar: Syl.N_TUu
Encoding: 166 -1 127
Width: 1177
VWidth: 1000
GlyphClass: 3
Flags: W
HStem: -234 81<560.62 1144.29> -121 81<565.306 991.325> -1 81<674.453 766.526> 416 81<131.487 246.709 517.571 683.527 853.17 1033.93>
VStem: 17 63<151.341 358.401> 329 65<58.8186 255.517> 606 63<85.7929 205.957> 794 63<108.586 268.854> 1090 63<42.7657 132.35 297.847 383.046>
LayerCount: 2
Fore
SplineSet
118 23 m 0
 51 90 17 199 17 293 c 0
 17 352 30 442 84 477 c 0
 105 491 140 497 165 497 c 0
 261 497 329 404 355 321 c 1
 372 385 410 439 466 471 c 0
 502 489 538 502 579 502 c 0
 642 502 696 472 739 428 c 1
 786 470 843 498 905 498 c 0
 992 498 1072 471 1122 396 c 0
 1141 367 1153 335 1153 300 c 0
 1153 258 1122 208 1086 187 c 1
 1087 187 l 1
 1124 151 1153 104 1153 51 c 0
 1153 -40 1060 -99 980 -115 c 0
 953 -120 925 -122 897 -122 c 2
 704 -121 l 2
 662 -121 587 -114 559 -153 c 1
 742 -151 924 -147 1107 -147 c 0
 1128 -147 1160 -195 1160 -215 c 0
 1160 -229 1148 -229 1137 -229 c 0
 949 -229 763 -234 575 -234 c 0
 531 -234 487 -159 487 -120 c 0
 487 -51 563 -40 616 -40 c 0
 682 -40 748 -41 814 -41 c 0
 900 -41 989 -41 1053 28 c 0
 1072 49 1090 79 1090 108 c 0
 1090 113 1089 124 1087 129 c 0
 1082 139 1042 153 1031 156 c 0
 1023 158 1015 159 1007 163 c 0
 989 173 964 207 964 228 c 0
 964 232 965 237 968 239 c 0
 972 242 991 246 997 248 c 0
 1040 262 1089 310 1089 357 c 0
 1089 364 1089 374 1086 380 c 0
 1085 382 1077 387 1075 389 c 0
 1039 412 988 418 947 418 c 0
 894 418 842 391 796 350 c 1
 835 281 857 200 857 133 c 0
 857 68 828 -1 753 -1 c 0
 661 -1 606 83 606 169 c 0
 606 246 659 341 708 397 c 1
 683 413 654 421 620 421 c 0
 613 421 606 420 598 419 c 0
 584 416 571 413 557 408 c 0
 548 405 528 394 518 392 c 0
 408 326 394 175 394 59 c 0
 394 49 395 10 392 4 c 0
 390 1 386 1 383 1 c 0
 364 1 337 41 332 58 c 0
 327 75 330 122 329 142 c 0
 327 211 317 321 283 381 c 0
 267 409 238 416 208 416 c 0
 103 416 80 323 80 237 c 0
 80 186 92 123 120 80 c 0
 135 58 161 44 161 13 c 0
 161 5 158 1 150 1 c 0
 140 1 125 16 118 23 c 0
767 321 m 1
 709 256 669 171 669 101 c 0
 669 96 670 92 671 87 c 1
 683 82 699 80 712 80 c 0
 770 80 794 140 794 190 c 0
 794 234 786 280 767 321 c 1
EndSplineSet
Ligature2: "Subj ligs-1" Tutg.N Uml.Conj Tutg.T Uml.Uu
Colour: ff00
EndChar

